<?xml version="1.0" standalone="no"?><!DOCTYPE svg PUBLIC "-//W3C//DTD SVG 1.1//EN" "http://www.w3.org/Graphics/SVG/1.1/DTD/svg11.dtd"><svg class="icon" width="200px" height="200.00px" viewBox="0 0 1024 1024" version="1.1" xmlns="http://www.w3.org/2000/svg"><path d="M373.481691 182.705182l135.625934 0 0 21.685905-135.625934 0 0-21.685905Z" fill="#ffffff" /><path d="M806.84368 339.016227 806.84368 115.604948 806.84368 87.792509l-27.845185-3.499707L443.376575 41.986253l-2.931772-0.353041-0.889253 0L263.369851 41.633213l-31.704073 0 0 31.705096 0 265.677918-206.850092-0.088004 1.184989 486.99142 138.101311-0.288572 0 94.479815 0 42.307571 42.266639 0 634.845863 0 42.227754 0 0-42.307571 0-94.479815 118.53672 0.288572 0-486.99142L806.84368 339.016227zM734.392578 142.318356l-33.368992 45.174875L512.262478 114.323768 734.392578 142.318356zM295.081087 105.057731l134.978181 0 270.858918 105.003496 7.471159 2.90619 4.782933-6.446829 30.254048-41.024345 0 239.666498L295.081087 405.16274 295.081087 105.057731zM673.899832 614.897531c1.793856 63.383586-29.303396 94.174869-93.279477 92.381014l-67.267033 0L513.353322 521.619078l69.061912 0C642.80258 522.217712 673.298128 553.313941 673.899832 614.897531zM416.485111 624.762203l-22.422685 0 0-26.010397 15.247262 0c22.719444 0 34.675754-9.56075 35.877115-28.700669-0.600681-15.545044-9.56996-23.61586-26.906813-24.217564-17.34504 1.201361-27.804253 11.067057-31.391964 29.599132l-30.494525-7.175423c8.368598-32.289404 28.700669-48.729841 60.991096-49.330522 38.262442 0.600681 57.994855 17.937534 59.196217 52.019771 0 17.938558-9.866718 30.800493-29.598108 38.568411 23.912619 9.56996 36.172851 24.521486 36.773532 44.845371-2.394537 35.877115-24.217564 54.711066-65.475224 56.504922-37.077453-0.599657-58.899458-17.33583-65.4742-50.226938l30.495548-7.175423c2.38635 20.932752 13.453407 31.695886 33.18582 32.28838 24.5133 0.601704 36.46961-10.458189 35.876092-33.184797C450.568371 634.629945 438.603875 625.363907 416.485111 624.762203zM798.905894 877.852432 248.634242 877.852432l0-52.220339 550.271652 0L798.905894 877.852432z" fill="#ffffff" /><path d="M543.846824 549.421284l0 132.74328 36.773532 0c41.850154 0.601704 62.480007-21.525246 61.887512-66.370617-0.599657-43.645033-20.933775-65.769936-60.991096-66.37164L543.846824 549.422308z" fill="#ffffff" /><path d="M373.481691 316.952722l309.714877 0 0 21.670555-309.714877 0 0-21.670555Z" fill="#ffffff" /><path d="M373.481691 246.338455l293.634644 0 0 21.683858-293.634644 0 0-21.683858Z" fill="#ffffff" /></svg>