<?xml version="1.0" encoding="UTF-8" standalone="no"?> <!-- Created with Vectornator for iOS (http://vectornator.io/) --><!DOCTYPE svg PUBLIC "-//W3C//DTD SVG 1.1//EN" "http://www.w3.org/Graphics/SVG/1.1/DTD/svg11.dtd">
<svg style="fill-rule:evenodd;clip-rule:evenodd;stroke-linecap:round;stroke-linejoin:round;" xmlns:vectornator="http://vectornator.io" xmlns:xlink="http://www.w3.org/1999/xlink" xmlns="http://www.w3.org/2000/svg" xml:space="preserve" version="1.1" viewBox="0 0 1024 1024">
<metadata>
<vectornator:setting key="DynamicGuides" value="1"/>
<vectornator:setting key="Units" value="Points"/>
<vectornator:setting key="GuidesVisible" value="1"/>
<vectornator:setting key="RulersVisible" value="1"/>
<vectornator:setting key="SnapToGuides" value="1"/>
<vectornator:setting key="GridSpacing" value="36"/>
</metadata>
<defs>
<path d="M-0.13916-0.139038L1023.86-0.139038L1023.86+1023.86L-0.13916+1023.86L-0.13916-0.139038Z" id="Mask"/>
<path d="M-0.13916-0.139038L1023.86-0.139038L1023.86+1023.86L-0.13916+1023.86L-0.13916-0.139038Z" id="Mask_2"/>
</defs>
<g id="Untitled" vectornator:layerName="Untitled">
<g opacity="1" vectornator:mask="#Mask">
<clipPath id="ClipPath">
<use xlink:href="#Mask" fill="none" overflow="visible"/>
</clipPath>
<g clip-path="url(#ClipPath)">
<g opacity="1" vectornator:mask="#Mask_2">
<clipPath id="ClipPath_2">
<use xlink:href="#Mask_2" fill="none" overflow="visible"/>
</clipPath>
<g clip-path="url(#ClipPath_2)">
<g opacity="1">
<path d="M64.4608+511.661C64.4608+671.533+149.716+819.18+288.106+899.058C426.495+978.936+596.989+978.906+735.35+898.981C873.712+819.055+958.916+671.379+958.861+511.591C958.861+351.719+873.606+204.072+735.216+124.194C596.827+44.3162+426.334+44.3456+287.972+124.271C149.61+204.197+64.4057+351.874+64.4608+511.661Z" opacity="1" fill="#2195f2"/>
<path d="M368.961+369.561C355.394+369.561+341.828+369.561+328.261+369.561C328.261+328.894+328.261+288.228+328.261+247.561C341.828+247.561+355.394+247.561+368.961+247.561C368.961+288.228+368.961+328.894+368.961+369.561ZM288.861+410.261L288.861+450.861C302.428+450.861+315.994+450.861+329.561+450.861C329.561+559.261+329.561+667.661+329.561+776.061C343.128+776.061+356.694+776.061+370.261+776.061L370.261+450.861L410.861+450.861C410.861+437.294+410.861+423.728+410.861+410.161L288.861+410.161L288.861+410.261ZM531.561+572.861L490.861+572.861L490.861+247.561C504.428+247.561+517.994+247.561+531.561+247.561L531.561+572.861ZM450.261+613.461C450.261+627.028+450.261+640.594+450.261+654.161C490.928+654.161+531.594+654.161+572.261+654.161C572.261+640.594+572.261+627.028+572.261+613.461C531.594+613.461+490.928+613.461+450.261+613.461ZM531.561+776.161L490.861+776.161C490.861+735.494+490.861+694.828+490.861+654.161C504.428+654.161+517.994+654.161+531.561+654.161C531.561+694.828+531.561+735.494+531.561+776.161ZM694.161+369.561C680.594+369.561+667.028+369.561+653.461+369.561C653.461+328.894+653.461+288.228+653.461+247.561C667.028+247.561+680.594+247.561+694.161+247.561C694.161+288.228+694.161+328.894+694.161+369.561ZM734.861+410.261L612.861+410.261L612.861+450.861C653.528+450.861+694.194+450.861+734.861+450.861C734.861+437.328+734.861+423.794+734.861+410.261ZM694.161+776.161C680.594+776.161+667.028+776.161+653.461+776.161L653.461+450.861C667.028+450.861+680.594+450.861+694.161+450.861C694.161+559.294+694.161+667.728+694.161+776.161Z" opacity="1" fill="#ffffff"/>
</g>
</g>
</g>
</g>
</g>
</g>
</svg>
