<?xml version="1.0" encoding="utf-8"?>
<svg x="0pt" y="0pt" width="1024pt" height="1024pt" viewBox="0 0 1024 1024" xmlns="http://www.w3.org/2000/svg" xmlns:xlink="http://www.w3.org/1999/xlink">
  <g id="1">
    <title>Layer 1</title>
    <clipPath id="3">
      <use xlink:href="#2"/>
      <path id="2" d="M0,0 C0,0,1024,0,1024,0 C1024,0,1024,1024,1024,1024 C1024,1024,0,1024,0,1024 C0,1024,0,0,0,0 z"/>
    </clipPath>
    <g id="4" style="clip-path:url(#3);">
      <title>ClipGroup</title>
      <defs>
        <title>Shape 1</title>
        <g id="5">
          <defs>
            <path id="6" d="M511.8,511.8 M64.6,511.8 C64.6,671.672,149.855,819.319,288.245,899.197 C426.634,979.075,597.128,979.045,735.489,899.12 C873.851,819.194,959.055,671.518,959,511.73 C959,351.858,873.745,204.211,735.355,124.333 C596.966,44.4554,426.473,44.4848,288.111,124.41 C149.749,204.336,64.5449,352.013,64.6,511.8 z"/>
          </defs>
          <use xlink:href="#6" style="fill:#2196f3;fill-opacity:1;fill-rule:evenodd;opacity:1;stroke:none;"/>
        </g>
      </defs>
      <use xlink:href="#5"/>
      <defs>
        <title>Shape 2</title>
        <g id="7">
          <defs>
            <path id="8" d="M369.1,369.7 C355.533,369.7,341.967,369.7,328.4,369.7 C328.4,329.033,328.4,288.367,328.4,247.7 C341.967,247.7,355.533,247.7,369.1,247.7 C369.1,288.367,369.1,329.033,369.1,369.7 z M289,410.4 C289,410.4,289,451,289,451 C302.567,451,316.133,451,329.7,451 C329.7,559.4,329.7,667.8,329.7,776.2 C343.267,776.2,356.833,776.2,370.4,776.2 C370.4,776.2,370.4,451,370.4,451 C370.4,451,411,451,411,451 C411,437.433,411,423.867,411,410.3 C411,410.3,289,410.3,289,410.3 z M531.7,573 C531.7,573,491,573,491,573 C491,573,491,247.7,491,247.7 C504.567,247.7,518.133,247.7,531.7,247.7 C531.7,247.7,531.7,573,531.7,573 z M450.4,613.6 C450.4,627.167,450.4,640.733,450.4,654.3 C491.067,654.3,531.733,654.3,572.4,654.3 C572.4,640.733,572.4,627.167,572.4,613.6 C531.733,613.6,491.067,613.6,450.4,613.6 z M531.7,776.3 C531.7,776.3,491,776.3,491,776.3 C491,735.633,491,694.967,491,654.3 C504.567,654.3,518.133,654.3,531.7,654.3 C531.7,694.967,531.7,735.633,531.7,776.3 z M694.3,369.7 C680.733,369.7,667.167,369.7,653.6,369.7 C653.6,329.033,653.6,288.367,653.6,247.7 C667.167,247.7,680.733,247.7,694.3,247.7 C694.3,288.367,694.3,329.033,694.3,369.7 z M735,410.4 C735,410.4,613,410.4,613,410.4 C613,410.4,613,451,613,451 C653.667,451,694.333,451,735,451 C735,437.467,735,423.933,735,410.4 z M694.3,776.3 C680.733,776.3,667.167,776.3,653.6,776.3 C653.6,776.3,653.6,451,653.6,451 C667.167,451,680.733,451,694.3,451 C694.3,559.433,694.3,667.867,694.3,776.3 z"/>
          </defs>
          <use xlink:href="#8" style="fill:#ffffff;fill-opacity:1;fill-rule:evenodd;opacity:1;stroke:none;"/>
        </g>
      </defs>
      <use xlink:href="#7"/>
    </g>
    <clipPath id="10">
      <use xlink:href="#9"/>
      <path id="9" d="M0,0 C0,0,1024,0,1024,0 C1024,0,1024,1024,1024,1024 C1024,1024,0,1024,0,1024 C0,1024,0,0,0,0 z"/>
    </clipPath>
    <g id="11" style="clip-path:url(#10);"/>
  </g>
</svg>
