<?xml version="1.0" standalone="no"?><!DOCTYPE svg PUBLIC "-//W3C//DTD SVG 1.1//EN" "http://www.w3.org/Graphics/SVG/1.1/DTD/svg11.dtd"><svg class="icon" width="200px" height="200.00px" viewBox="0 0 1024 1024" version="1.1" xmlns="http://www.w3.org/2000/svg"><path d="M944.862 667.54l-329.71-363.787c-48.086-53.056-131.518-60.029-188.571-16.315a133.647 133.647 0 0 0-17.734 16.315L79.137 667.54c-21.672 23.913-19.857 60.867 4.056 82.54 23.912 21.673 60.866 19.857 82.539-4.056l329.71-363.787a16.717 16.717 0 0 1 2.218-2.03c9.061-6.942 23.886-5.703 30.895 2.03l329.711 363.787c21.673 23.913 58.627 25.728 82.54 4.056 23.913-21.673 25.729-58.627 4.056-82.54z" fill="#ffffff" /></svg>