<?xml version="1.0" standalone="no"?><!DOCTYPE svg PUBLIC "-//W3C//DTD SVG 1.1//EN" "http://www.w3.org/Graphics/SVG/1.1/DTD/svg11.dtd"><svg class="icon" width="200px" height="200.00px" viewBox="0 0 1024 1024" version="1.1" xmlns="http://www.w3.org/2000/svg"><path d="M512 370.526c-91.156 0-165.053 73.896-165.053 165.053S420.844 700.632 512 700.632c43.462 0 84.101-16.777 114.719-46.385 32.006-30.95 50.334-73.263 50.334-118.668 0-91.156-73.897-165.053-165.053-165.053z m0-70.737c130.223 0 235.789 105.567 235.789 235.789 0 66.543-27.565 126.647-71.898 169.518C633.465 746.124 575.68 771.368 512 771.368c-130.223 0-235.789-105.567-235.789-235.789 0-130.223 105.566-235.79 235.789-235.79z m94.316-165.052H417.684c-30.228 0-56.83 19.138-66.731 47.154l-16.671 47.17-105.23-0.008c-65.111 0-117.895 52.783-117.895 117.895v424.421c0 65.112 52.783 117.895 117.895 117.895h565.895c65.111 0 117.895-52.783 117.895-117.895V346.947c0-65.111-52.783-117.895-117.89-117.895l-105.236 0.008-16.67-47.17c-9.901-28.015-36.502-47.153-66.73-47.153z m0-70.737c61.6 0 114.005 39.37 133.425 94.32l55.206-0.004c104.178 0 188.632 84.453 188.632 188.632v424.421C983.579 875.547 899.126 960 794.947 960H229.053c-104.178 0-188.632-84.453-188.632-188.632V346.947c0-104.178 84.453-188.632 188.632-188.632l55.207 0.004C303.679 103.37 356.084 64 417.684 64h188.632z" fill="#ffffff" /></svg>