<?xml version="1.0" encoding="utf-8"?>
<svg x="0pt" y="0pt" width="1024pt" height="1024pt" viewBox="0 0 1024 1024" xmlns="http://www.w3.org/2000/svg" xmlns:xlink="http://www.w3.org/1999/xlink">
  <g id="1">
    <title>Layer 1</title>
    <clipPath id="3">
      <use xlink:href="#2"/>
      <path id="2" d="M0,0 C0,0,1024,0,1024,0 C1024,0,1024,1024,1024,1024 C1024,1024,0,1024,0,1024 C0,1024,0,0,0,0 z"/>
    </clipPath>
    <g id="4" style="clip-path:url(#3);">
      <title>ClipGroup</title>
      <defs>
        <title>Shape 4</title>
        <g id="5">
          <defs>
            <path id="6" d="M200.832,396.501 C180.722,416.612,160.612,436.722,140.501,456.832 C140.501,456.832,426.667,828.331,426.667,828.331 C426.667,828.331,968.832,200.832,968.832,200.832 C948.722,180.722,928.612,160.612,908.501,140.501 C908.501,140.501,426.667,622.336,426.667,622.336 z"/>
          </defs>
          <use xlink:href="#6" style="fill:#8bc34a;fill-opacity:1;fill-rule:evenodd;opacity:1;stroke:none;"/>
        </g>
      </defs>
      <use xlink:href="#5"/>
    </g>
    <clipPath id="8">
      <use xlink:href="#7"/>
      <path id="7" d="M0,0 C0,0,1024,0,1024,0 C1024,0,1024,1024,1024,1024 C1024,1024,0,1024,0,1024 C0,1024,0,0,0,0 z"/>
    </clipPath>
    <g id="9" style="clip-path:url(#8);"/>
  </g>
</svg>
