<?xml version="1.0" standalone="no"?><!DOCTYPE svg PUBLIC "-//W3C//DTD SVG 1.1//EN" "http://www.w3.org/Graphics/SVG/1.1/DTD/svg11.dtd"><svg class="icon" width="200px" height="200.00px" viewBox="0 0 1024 1024" version="1.1" xmlns="http://www.w3.org/2000/svg"><path d="M512 512m-79.644444 0a79.644444 79.644444 0 1 0 159.288888 0 79.644444 79.644444 0 1 0-159.288888 0Z" fill="#19ddb9" /><path d="M512 328.800711m-71.645867 0a71.645867 71.645867 0 1 0 143.291734 0 71.645867 71.645867 0 1 0-143.291734 0Z"  /><path d="M512 695.199289m-71.645867 0a71.645867 71.645867 0 1 0 143.291734 0 71.645867 71.645867 0 1 0-143.291734 0Z"  /><path d="M695.199289 512m-71.7312 0a71.7312 71.7312 0 1 0 143.4624 0 71.7312 71.7312 0 1 0-143.4624 0Z"  /><path d="M328.800711 512m-71.7312 0a71.7312 71.7312 0 1 0 143.4624 0 71.7312 71.7312 0 1 0-143.4624 0Z"  /><path d="M512 169.511822m-55.825067 0a55.825067 55.825067 0 1 0 111.650134 0 55.825067 55.825067 0 1 0-111.650134 0Z"  /><path d="M512 798.72a55.751111 55.751111 0 1 1-55.751111 55.751111 55.751111 55.751111 0 0 1 55.751111-55.751111z"  /><path d="M854.471111 456.248889a55.751111 55.751111 0 1 1-55.751111 55.751111 55.751111 55.751111 0 0 1 55.751111-55.751111z"  /><path d="M169.511822 512m-55.734044 0a55.734044 55.734044 0 1 0 111.468089 0 55.734044 55.734044 0 1 0-111.468089 0Z"  /><path d="M679.202133 344.797867m-55.734044 0a55.734044 55.734044 0 1 0 111.468089 0 55.734044 55.734044 0 1 0-111.468089 0Z"  /><path d="M679.202133 679.202133m-55.734044 0a55.734044 55.734044 0 1 0 111.468089 0 55.734044 55.734044 0 1 0-111.468089 0Z"  /><path d="M344.797867 344.797867m-55.734045 0a55.734044 55.734044 0 1 0 111.468089 0 55.734044 55.734044 0 1 0-111.468089 0Z"  /><path d="M344.797867 679.202133m-55.734045 0a55.734044 55.734044 0 1 0 111.468089 0 55.734044 55.734044 0 1 0-111.468089 0Z"  /><path d="M663.290311 185.423644m-39.822222 0a39.822222 39.822222 0 1 0 79.644444 0 39.822222 39.822222 0 1 0-79.644444 0Z"  /><path d="M838.576356 360.709689m-39.822223 0a39.822222 39.822222 0 1 0 79.644445 0 39.822222 39.822222 0 1 0-79.644445 0Z"  /><path d="M838.576356 663.290311m-39.822223 0a39.822222 39.822222 0 1 0 79.644445 0 39.822222 39.822222 0 1 0-79.644445 0Z"  /><path d="M185.423644 360.709689m-39.822222 0a39.822222 39.822222 0 1 0 79.644445 0 39.822222 39.822222 0 1 0-79.644445 0Z"  /><path d="M185.423644 663.290311m-39.822222 0a39.822222 39.822222 0 1 0 79.644445 0 39.822222 39.822222 0 1 0-79.644445 0Z"  /><path d="M360.709689 838.576356m-39.822222 0a39.822222 39.822222 0 1 0 79.644444 0 39.822222 39.822222 0 1 0-79.644444 0Z"  /><path d="M663.290311 838.576356m-39.822222 0a39.822222 39.822222 0 1 0 79.644444 0 39.822222 39.822222 0 1 0-79.644444 0Z"  /><path d="M360.709689 185.423644m-39.822222 0a39.822222 39.822222 0 1 0 79.644444 0 39.822222 39.822222 0 1 0-79.644444 0Z"  /></svg>