<?xml version="1.0" standalone="no"?><!DOCTYPE svg PUBLIC "-//W3C//DTD SVG 1.1//EN" "http://www.w3.org/Graphics/SVG/1.1/DTD/svg11.dtd"><svg class="icon" width="200px" height="200.00px" viewBox="0 0 1024 1024" version="1.1" xmlns="http://www.w3.org/2000/svg"><path d="M491.983788 139.739508a117.816942 117.816942 0 0 0-116.550093 116.550094v347.116582l-32.93807-32.938069a115.029875 115.029875 0 0 0-81.078326-32.93807 110.975959 110.975959 0 0 0-81.078326 32.93807 115.283245 115.283245 0 0 0-17.735884 141.88707l38.005466 58.275047L261.417299 886.926955l55.741349 111.482698a45.099819 45.099819 0 0 0 40.539163 25.336977h397.790536a46.113298 46.113298 0 0 0 45.606559-38.005465l76.01093-385.122048a47.126777 47.126777 0 0 0-32.93807-53.207651l-238.167582-70.943536v-217.898a114.776505 114.776505 0 0 0-114.016396-119.083792m0 70.943536a45.353189 45.353189 0 0 1 45.606559 45.606558v268.571954l50.673953 15.202187 217.898001 65.876139-68.409837 347.116583H373.913476l-50.673953-98.81421-68.409838-126.684884a399.564125 399.564125 0 0 1-35.471768-73.477233 46.366668 46.366668 0 0 1 15.202187-38.005465 46.873407 46.873407 0 0 1 30.404372-12.668488 48.140256 48.140256 0 0 1 32.93807 12.668488l32.93807 32.93807 40.539163 40.539163a45.859928 45.859928 0 0 0 78.544628-32.93807V256.289602a41.806012 41.806012 0 0 1 43.07286-45.606559m-184.959931 167.224047a202.695815 202.695815 0 0 1-22.803279-124.151186A209.790168 209.790168 0 0 1 703.294175 278.839511a219.418219 219.418219 0 0 1-15.202186 81.078326 25.336977 25.336977 0 0 0 7.601093 27.870674l17.735884 15.202187a22.803279 22.803279 0 0 0 35.471767-7.601093 290.868494 290.868494 0 0 0 25.336977-116.550094A286.814578 286.814578 0 0 0 502.118579 0.132766a280.226964 280.226964 0 0 0-288.841536 278.706745 274.906199 274.906199 0 0 0 35.471768 136.819675 23.056649 23.056649 0 0 0 35.471767 5.067395l17.735884-15.202186a23.056649 23.056649 0 0 0 5.067395-27.870674" fill="#ffffff" /></svg>