<?xml version="1.0" encoding="UTF-8" standalone="no"?> <!-- Created with Vectornator for iOS (http://vectornator.io/) --><!DOCTYPE svg PUBLIC "-//W3C//DTD SVG 1.1//EN" "http://www.w3.org/Graphics/SVG/1.1/DTD/svg11.dtd">
<svg style="fill-rule:evenodd;clip-rule:evenodd;stroke-linecap:round;stroke-linejoin:round;" xmlns:vectornator="http://vectornator.io" xmlns:xlink="http://www.w3.org/1999/xlink" xmlns="http://www.w3.org/2000/svg" xml:space="preserve" version="1.1" viewBox="0 0 1024 1024">
<metadata>
<vectornator:setting key="DynamicGuides" value="1"/>
<vectornator:setting key="Units" value="Points"/>
<vectornator:setting key="GuidesVisible" value="1"/>
<vectornator:setting key="RulersVisible" value="1"/>
<vectornator:setting key="SnapToGuides" value="1"/>
<vectornator:setting key="GridSpacing" value="36"/>
</metadata>
<defs>
<path d="M0+0L1024+0L1024+1024L0+1024L0+0Z" id="Mask"/>
</defs>
<g id="Untitled" vectornator:layerName="Untitled">
<g opacity="1" vectornator:mask="#Mask">
<clipPath id="ClipPath">
<use xlink:href="#Mask" fill="none" overflow="visible"/>
</clipPath>
<g clip-path="url(#ClipPath)">
<g opacity="1">
<path d="M512+0C229.683+0+0+229.786+0+512C0+794.368+229.683+1024+512+1024C794.317+1024+1024+794.368+1024+512C1024+229.734+794.317+0+512+0" opacity="1" fill="#2fce5c"/>
<path d="M454.246+587.674L343.398+476.826C319.266+500.958+295.134+525.09+271.002+549.222C336.418+614.673+401.835+680.124+467.251+745.574C564.309+609.724+661.367+473.873+758.426+338.022C730.658+318.157+702.891+298.291+675.123+278.426L454.246+587.674Z" opacity="1" fill="#ffffff"/>
</g>
</g>
</g>
</g>
</svg>
