<?xml version="1.0" encoding="utf-8"?>
<svg x="0pt" y="0pt" width="1024pt" height="1024pt" viewBox="0 0 1024 1024" xmlns="http://www.w3.org/2000/svg" xmlns:xlink="http://www.w3.org/1999/xlink">
  <g id="1">
    <title>Layer 1</title>
    <clipPath id="3">
      <use xlink:href="#2"/>
      <path id="2" d="M0,0 C0,0,1024,0,1024,0 C1024,0,1024,1024,1024,1024 C1024,1024,0,1024,0,1024 C0,1024,0,0,0,0 z"/>
    </clipPath>
    <g id="4" style="clip-path:url(#3);">
      <title>ClipGroup</title>
      <defs>
        <title>Shape 9</title>
        <g id="5">
          <defs>
            <path id="6" d="M699.552,572.128 C688.52,570.55,677.484,574.978,670.601,583.744 C663.719,592.509,662.035,604.281,666.185,614.624 C670.335,624.967,679.688,632.31,690.72,633.888 C820.288,652.448,897.632,692.96,897.632,742.208 C897.632,813.824,742.656,861.984,511.968,861.984 C288.512,861.984,126.304,811.616,126.304,742.208 C126.304,690.528,208.704,649.28,346.72,631.872 C354.923,630.842,362.381,626.595,367.452,620.065 C372.523,613.536,374.792,605.259,373.76,597.056 C371.516,580.03,355.995,567.976,338.944,570.016 C111.712,598.688,64,679.424,64,742.176 C64,876.448,295.424,924.288,512,924.288 C796.704,924.288,960,857.92,960,742.176 C960,681.664,914.816,603.008,699.552,572.128 z"/>
          </defs>
          <use xlink:href="#6" style="fill:#e6e6e6;fill-opacity:1;fill-rule:evenodd;opacity:1;stroke:none;"/>
        </g>
      </defs>
      <use xlink:href="#5"/>
      <defs>
        <title>Shape 10</title>
        <g id="7">
          <defs>
            <path id="8" d="M426.656,778.528 C441.763,785.24,458.917,785.676,474.346,779.741 C489.774,773.806,502.214,761.986,508.928,746.88 C535.947,686.08,562.965,625.28,589.984,564.48 C691.328,579.68,794.368,526.656,838.016,428.448 C863.211,371.804,864.862,307.47,842.608,249.608 C820.354,191.745,776.018,145.099,719.36,119.936 C662.711,94.7489,598.375,93.1006,540.51,115.354 C482.645,137.607,435.992,181.938,410.816,238.592 C367.168,336.768,396.864,448.768,476.064,513.888 C449.045,574.667,422.027,635.445,395.008,696.224 C388.304,711.336,387.871,728.492,393.805,743.923 C399.739,759.355,411.554,771.8,426.656,778.528 z"/>
          </defs>
          <use xlink:href="#8" style="fill:#e6e6e6;fill-opacity:1;fill-rule:evenodd;opacity:1;stroke:none;"/>
        </g>
      </defs>
      <use xlink:href="#7"/>
    </g>
    <clipPath id="10">
      <use xlink:href="#9"/>
      <path id="9" d="M0,0 C0,0,1024,0,1024,0 C1024,0,1024,1024,1024,1024 C1024,1024,0,1024,0,1024 C0,1024,0,0,0,0 z"/>
    </clipPath>
    <g id="11" style="clip-path:url(#10);"/>
  </g>
</svg>
