<?xml version="1.0" standalone="no"?><!DOCTYPE svg PUBLIC "-//W3C//DTD SVG 1.1//EN" "http://www.w3.org/Graphics/SVG/1.1/DTD/svg11.dtd"><svg class="icon" width="200px" height="200.00px" viewBox="0 0 1024 1024" version="1.1" xmlns="http://www.w3.org/2000/svg"><path d="M10.274304 853.333333L447.180971 95.573333c29.013333-49.493333 100.693333-49.493333 129.706666 0L1013.794304 853.333333c29.013333 49.493333-6.826667 112.64-64.853333 112.64H75.127637C17.100971 965.973333-18.739029 902.826667 10.274304 853.333333z" fill="#fff500" /><path d="M44.407637 853.333333L467.660971 119.466667c18.773333-34.133333 68.266667-34.133333 87.04 0l423.253333 733.866666c18.773333 34.133333-5.12 75.093333-44.373333 75.093334H88.780971c-39.253333 0-63.146667-40.96-44.373334-75.093334z"  /><path d="M114.380971 856.746667L512.034304 167.253333l397.653333 689.493334z" fill="#fff500" /><path d="M498.380971 621.226667l-13.653334 5.12c-5.12 1.706667-13.653333 0-17.066666-3.413334l-13.653334-13.653333c-5.12-3.413333-6.826667-11.946667-5.12-17.066667l5.12-13.653333c1.706667-1.706667 1.706667-5.12 0-6.826667l-5.12-5.12-22.186666-8.533333c-1.706667-1.706667-5.12-1.706667-6.826667 0l-5.12 5.12-5.12 13.653333c-1.706667 5.12-8.533333 10.24-15.36 8.533334H375.500971c-5.12 0-11.946667-3.413333-15.36-8.533334l-5.12-13.653333-5.12-5.12c-1.706667-1.706667-5.12 0-6.826667 0l-22.186667 10.24-5.12 5.12c-1.706667 1.706667 0 5.12 0 6.826667l5.12 13.653333c1.706667 5.12 0 13.653333-3.413333 17.066667l-13.653333 13.653333c-3.413333 5.12-11.946667 6.826667-17.066667 5.12l-13.653333-5.12c-1.706667-1.706667-5.12-1.706667-6.826667 0l-5.12 5.12-8.533333 22.186667c-1.706667 1.706667-1.706667 5.12 0 6.826666l5.12 5.12 13.653333 5.12c5.12 1.706667 10.24 8.533333 8.533333 15.36v18.773334c0 5.12-3.413333 11.946667-8.533333 15.36l-13.653333 5.12-5.12 5.12c-1.706667 1.706667 0 5.12 0 6.826666l10.24 22.186667 5.12 5.12c1.706667 1.706667 5.12 0 6.826666 0l13.653334-5.12c5.12-1.706667 13.653333 0 17.066666 3.413333l13.653334 13.653334c5.12 3.413333 6.826667 11.946667 5.12 17.066666l-5.12 13.653334c-1.706667 1.706667-1.706667 5.12 0 6.826666l5.12 5.12 22.186666 8.533334c1.706667 1.706667 5.12 1.706667 6.826667 0l5.12-5.12 5.12-13.653334c1.706667-5.12 8.533333-10.24 15.36-8.533333h18.773333c5.12 0 11.946667 3.413333 15.36 8.533333l5.12 13.653334 5.12 5.12c1.706667 1.706667 5.12 0 6.826667 0l22.186667-10.24 5.12-5.12c1.706667-1.706667 0-5.12 0-6.826667l-5.12-13.653333c-1.706667-5.12 0-13.653333 3.413333-17.066667l13.653333-13.653333c3.413333-5.12 11.946667-6.826667 17.066667-5.12l13.653333 5.12c1.706667 1.706667 5.12 1.706667 6.826667 0l5.12-5.12 8.533333-22.186667c1.706667-1.706667 1.706667-5.12 0-6.826667l-5.12-5.12-13.653333-5.12c-5.12-1.706667-10.24-8.533333-8.533333-15.36v-18.773333c0-5.12 3.413333-11.946667 8.533333-15.36l13.653333-5.12 5.12-5.12c1.706667-1.706667 0-5.12 0-6.826667l-10.24-22.186666-5.12-5.12c-1.706667-1.706667-5.12-1.706667-6.826666 0z m-90.453334 121.173333c-27.306667 11.946667-59.733333 0-69.973333-27.306667-11.946667-27.306667 0-59.733333 27.306667-69.973333 27.306667-11.946667 59.733333 0 69.973333 27.306667 13.653333 25.6 0 58.026667-27.306667 69.973333z m187.733334-290.133333h-5.12l-10.24 3.413333c-3.413333 1.706667-10.24 0-11.946667-3.413333l-10.24-8.533334c-3.413333-3.413333-5.12-8.533333-3.413333-11.946666l3.413333-10.24v-5.12c0-1.706667-1.706667-3.413333-3.413333-3.413334l-17.066667-6.826666h-5.12c-1.706667 0-3.413333 1.706667-3.413333 3.413333l-3.413334 10.24c-1.706667 3.413333-6.826667 6.826667-10.24 6.826667h-13.653333c-3.413333 0-8.533333-1.706667-10.24-6.826667l-3.413333-10.24c0-1.706667-1.706667-3.413333-3.413334-3.413333h-5.12l-18.773333 8.533333c-1.706667 0-3.413333 1.706667-3.413333 3.413333v5.12l3.413333 10.24c1.706667 3.413333 0 10.24-3.413333 11.946667l-10.24 10.24c-3.413333 3.413333-8.533333 5.12-11.946667 3.413333l-10.24-3.413333h-5.12c-1.706667 0-3.413333 1.706667-3.413333 3.413333l-6.826667 17.066667v5.12c0 1.706667 1.706667 3.413333 3.413333 3.413333l10.24 3.413334c3.413333 1.706667 6.826667 6.826667 6.826667 10.24v13.653333c0 3.413333-1.706667 8.533333-6.826667 10.24l-10.24 3.413333c-1.706667 0-3.413333 1.706667-3.413333 3.413334v5.12l6.826667 15.36c0 1.706667 1.706667 3.413333 3.413333 3.413333h5.12l10.24-3.413333c3.413333-1.706667 10.24 0 11.946667 3.413333l13.653333 10.24c3.413333 3.413333 5.12 8.533333 3.413333 11.946667l-3.413333 10.24v5.12c0 1.706667 1.706667 3.413333 3.413333 3.413333l17.066667 6.826667h5.12c1.706667 0 3.413333-1.706667 3.413333-3.413334l3.413334-10.24c1.706667-3.413333 6.826667-6.826667 10.24-6.826666h13.653333c3.413333 0 8.533333 1.706667 10.24 6.826666l3.413333 10.24c0 1.706667 1.706667 3.413333 3.413334 3.413334h5.12l15.36-6.826667c1.706667 0 3.413333-1.706667 3.413333-3.413333v-5.12l-3.413333-10.24c-1.706667-3.413333 0-10.24 3.413333-11.946667l10.24-10.24c3.413333-3.413333 8.533333-5.12 11.946667-3.413333l10.24 3.413333h5.12c1.706667 0 3.413333-1.706667 3.413333-3.413333l6.826667-17.066667v-5.12c0-1.706667-1.706667-3.413333-3.413334-3.413333l-10.24-3.413334c-3.413333-1.706667-6.826667-6.826667-6.826666-10.24v-13.653333c0-3.413333 1.706667-8.533333 6.826666-10.24l10.24-3.413333c1.706667 0 3.413333-1.706667 3.413334-3.413334v-5.12l-6.826667-15.36c0-5.12-1.706667-6.826667-3.413333-6.826666z m-69.973334 87.04c-20.48 8.533333-42.666667 0-51.2-20.48s0-42.666667 20.48-51.2 42.666667 0 51.2 20.48c8.533333 18.773333-1.706667 42.666667-20.48 51.2z"  /><path d="M803.874304 706.56V819.2l-83.626667-40.96s-10.24 8.533333-39.253333 0c-29.013333-8.533333-114.346667-32.426667-114.346667-32.426667s-18.773333-25.6 11.946667-35.84c0 0-29.013333-22.186667 6.826667-37.546666 0 0-11.946667-20.48 15.36-23.893334l-102.4-35.84s-13.653333-15.36 8.533333-20.48l180.906667 47.786667 116.053333 66.56z"  /></svg>