<?xml version="1.0" standalone="no"?><!DOCTYPE svg PUBLIC "-//W3C//DTD SVG 1.1//EN" "http://www.w3.org/Graphics/SVG/1.1/DTD/svg11.dtd"><svg class="icon" width="200px" height="200.00px" viewBox="0 0 1024 1024" version="1.1" xmlns="http://www.w3.org/2000/svg"><path d="M512 759.172414a17.655172 17.655172 0 0 1-17.655172-17.655173v-105.931034a17.655172 17.655172 0 0 1 35.310344 0v105.931034a17.655172 17.655172 0 0 1-17.655172 17.655173z m0 0" fill="#394d5c" /><path d="M423.724138 0h176.551724c39.000276 0 70.62069 31.620414 70.62069 70.62069v388.413793c0 39.000276-31.620414 70.62069-70.62069 70.620689h-176.551724c-39.000276 0-70.62069-31.620414-70.62069-70.620689V70.62069c0-39.000276 31.620414-70.62069 70.62069-70.62069z m0 0" fill="#195c85" /><path d="M459.034483 529.655172h105.931034v70.62069c0 19.500138-15.810207 35.310345-35.310345 35.310345h-35.310344c-19.500138 0-35.310345-15.810207-35.310345-35.310345z m0 0" fill="#aabece" /><path d="M353.103448 105.931034h317.793104v353.103449H353.103448z m0 0" fill="#e97424" /><path d="M0 918.068966h1024v105.931034H0z m0 0" fill="#195c85" /><path d="M300.137931 812.137931h423.724138v105.931035H300.137931z m0 0M52.965517 988.689655h35.310345v35.310345H52.965517z m0 0M123.586207 988.689655h35.310345v35.310345H123.586207z m0 0M564.965517 0h35.310345v35.310345h-35.310345z m0 0M494.344828 0h35.310344v35.310345h-35.310344z m0 0" fill="#aabece" /><path d="M423.724138 176.551724h176.551724v70.62069h-176.551724z m0 0M423.724138 317.793103h176.551724v70.62069h-176.551724z m0 0" fill="#fcf05a" /><path d="M1024 105.931034h-176.551724v105.931035h-176.551724v70.62069h247.172414V176.551724h105.931034z m0 0" fill="#7d8d9c" /><path d="M1024 176.551724h-105.931034v105.931035H670.896552v70.620689h317.793103v-105.931034h35.310345z m0 0" fill="#aabece" /><path d="M282.482759 494.344828a17.655172 17.655172 0 0 1-17.655173-17.655173V195.568552a17.655172 17.655172 0 0 1 35.310345 0V476.689655a17.655172 17.655172 0 0 1-17.655172 17.655173z m0 0M211.862069 338.162759a17.655172 17.655172 0 0 1-17.655172-17.655173V70.62069a17.655172 17.655172 0 0 1 35.310344 0v249.886896a17.655172 17.655172 0 0 1-17.655172 17.655173z m0 0" fill="#7d8d9c" /></svg>