<?xml version="1.0" encoding="UTF-8" standalone="no"?> <!-- Created with Vectornator for iOS (http://vectornator.io/) --><!DOCTYPE svg PUBLIC "-//W3C//DTD SVG 1.1//EN" "http://www.w3.org/Graphics/SVG/1.1/DTD/svg11.dtd">
<svg style="fill-rule:evenodd;clip-rule:evenodd;stroke-linecap:round;stroke-linejoin:round;" xmlns:vectornator="http://vectornator.io" xmlns:xlink="http://www.w3.org/1999/xlink" xmlns="http://www.w3.org/2000/svg" xml:space="preserve" version="1.1" viewBox="0 0 1024 1024">
<metadata>
<vectornator:setting key="DynamicGuides" value="1"/>
<vectornator:setting key="Units" value="Points"/>
<vectornator:setting key="GuidesVisible" value="1"/>
<vectornator:setting key="RulersVisible" value="1"/>
<vectornator:setting key="SnapToGuides" value="1"/>
<vectornator:setting key="GridSpacing" value="36"/>
</metadata>
<defs>
<path d="M0+0L1024+0L1024+1024L0+1024L0+0Z" id="Mask"/>
</defs>
<g id="Untitled" vectornator:layerName="Untitled">
<g opacity="1" vectornator:mask="#Mask">
<clipPath id="ClipPath">
<use xlink:href="#Mask" fill="none" overflow="visible"/>
</clipPath>
<g clip-path="url(#ClipPath)">
<g opacity="1">
<path d="M637.542+775.014C644.196+775.014+650.577+772.371+655.282+767.666C659.987+762.961+662.63+756.58+662.63+749.926L662.63+398.131C662.63+389.168+657.849+380.886+650.086+376.404C642.324+371.923+632.761+371.923+624.998+376.404C617.236+380.886+612.454+389.168+612.454+398.131C612.454+515.396+612.454+632.661+612.454+749.926C612.454+756.58+615.098+762.961+619.802+767.666C624.507+772.371+630.889+775.014+637.542+775.014ZM386.304+775.014C392.958+775.014+399.339+772.371+404.044+767.666C408.749+762.961+411.392+756.58+411.392+749.926L411.392+398.131C411.388+389.174+406.605+380.896+398.845+376.417C391.085+371.938+381.526+371.938+373.765+376.416C366.005+380.894+361.221+389.171+361.216+398.131C361.216+515.396+361.216+632.661+361.216+749.926C361.216+763.801+372.429+775.014+386.304+775.014ZM511.949+775.014C518.603+775.014+524.984+772.371+529.689+767.666C534.394+762.961+537.037+756.58+537.037+749.926L537.037+398.131C537.032+389.174+532.25+380.896+524.49+376.417C516.73+371.938+507.171+371.938+499.41+376.416C491.649+380.894+486.866+389.171+486.861+398.131C486.861+515.396+486.861+632.661+486.861+749.926C486.861+763.801+498.074+775.014+511.949+775.014Z" opacity="1" fill="#f73f44"/>
<path d="M888.883+251.648C833.161+251.648+777.438+251.648+721.715+251.648L721.715+199.322C721.715+165.12+693.862+137.267+659.661+137.267L364.339+137.267C347.75+137.267+332.186+143.718+320.461+155.443C308.776+167.053+302.214+182.85+302.234+199.322C302.234+216.764+302.234+234.206+302.234+251.648L135.066+251.648C126.103+251.648+117.82+256.43+113.339+264.192C108.857+271.954+108.857+281.518+113.339+289.28C117.82+297.042+126.103+301.824+135.066+301.824L210.432+301.824C210.432+488.431+210.432+675.038+210.432+861.645C210.432+875.418+221.594+886.733+235.52+886.733C419.806+886.733+604.092+886.733+788.378+886.733C795.031+886.733+801.413+884.09+806.117+879.385C810.822+874.68+813.466+868.299+813.466+861.645L813.466+301.824C838.588+301.824+863.71+301.824+888.832+301.824C902.067+300.992+912.38+290.021+912.393+276.76C912.407+263.499+902.117+252.507+888.883+251.648ZM346.214+199.322C346.214+194.509+348.109+189.952+351.488+186.522C354.911+183.141+359.528+181.246+364.339+181.248C462.78+181.248+561.22+181.248+659.661+181.248C669.645+181.248+677.734+189.389+677.734+199.322C677.734+216.764+677.734+234.206+677.734+251.648C672.734+251.648+667.733+251.648+662.733+251.648C662.733+251.614+662.733+251.58+662.733+251.546L361.216+251.546C361.216+251.58+361.216+251.614+361.216+251.648C356.215+251.648+351.215+251.648+346.214+251.648L346.214+199.322ZM763.187+836.454L260.71+836.454L260.71+301.824C428.203+301.824+595.695+301.824+763.187+301.824C763.187+480.034+763.187+658.244+763.187+836.454Z" opacity="1" fill="#f73f44"/>
</g>
</g>
</g>
</g>
</svg>
