<?xml version="1.0" encoding="utf-8"?>
<svg x="0pt" y="0pt" width="1024pt" height="1024pt" viewBox="0 0 1024 1024" xmlns="http://www.w3.org/2000/svg" xmlns:xlink="http://www.w3.org/1999/xlink">
  <g id="1">
    <title>Layer 1</title>
    <clipPath id="3">
      <use xlink:href="#2"/>
      <path id="2" d="M0,0 C0,0,1024,0,1024,0 C1024,0,1024,1024,1024,1024 C1024,1024,0,1024,0,1024 C0,1024,0,0,0,0 z"/>
    </clipPath>
    <g id="4" style="clip-path:url(#3);">
      <title>ClipGroup</title>
      <defs>
        <title>Shape 12</title>
        <g id="5">
          <defs>
            <path id="6" d="M637.542,775.014 C644.196,775.014,650.577,772.371,655.282,767.666 C659.987,762.961,662.63,756.58,662.63,749.926 C662.63,749.926,662.63,398.131,662.63,398.131 C662.63,389.168,657.849,380.886,650.086,376.404 C642.324,371.923,632.761,371.923,624.998,376.404 C617.236,380.886,612.454,389.168,612.454,398.131 C612.454,515.396,612.454,632.661,612.454,749.926 C612.454,756.58,615.098,762.961,619.802,767.666 C624.507,772.371,630.889,775.014,637.542,775.014 z M386.304,775.014 C392.958,775.014,399.339,772.371,404.044,767.666 C408.749,762.961,411.392,756.58,411.392,749.926 C411.392,749.926,411.392,398.131,411.392,398.131 C411.388,389.174,406.605,380.896,398.845,376.417 C391.085,371.938,381.526,371.938,373.765,376.416 C366.005,380.894,361.221,389.171,361.216,398.131 C361.216,515.396,361.216,632.661,361.216,749.926 C361.216,763.801,372.429,775.014,386.304,775.014 z M511.949,775.014 C518.603,775.014,524.984,772.371,529.689,767.666 C534.394,762.961,537.037,756.58,537.037,749.926 C537.037,749.926,537.037,398.131,537.037,398.131 C537.032,389.174,532.25,380.896,524.49,376.417 C516.73,371.938,507.171,371.938,499.41,376.416 C491.649,380.894,486.866,389.171,486.861,398.131 C486.861,515.396,486.861,632.661,486.861,749.926 C486.861,763.801,498.074,775.014,511.949,775.014 z"/>
          </defs>
          <use xlink:href="#6" style="fill:#f73f44;fill-opacity:1;fill-rule:evenodd;opacity:1;stroke:none;"/>
        </g>
      </defs>
      <use xlink:href="#5"/>
      <defs>
        <title>Shape 13</title>
        <g id="7">
          <defs>
            <path id="8" d="M888.883,251.648 C833.161,251.648,777.438,251.648,721.715,251.648 C721.715,251.648,721.715,199.322,721.715,199.322 C721.715,165.12,693.862,137.267,659.661,137.267 C659.661,137.267,364.339,137.267,364.339,137.267 C347.75,137.267,332.186,143.718,320.461,155.443 C308.776,167.053,302.214,182.85,302.234,199.322 C302.234,216.764,302.234,234.206,302.234,251.648 C302.234,251.648,135.066,251.648,135.066,251.648 C126.103,251.648,117.82,256.43,113.339,264.192 C108.857,271.954,108.857,281.518,113.339,289.28 C117.82,297.042,126.103,301.824,135.066,301.824 C135.066,301.824,210.432,301.824,210.432,301.824 C210.432,488.431,210.432,675.038,210.432,861.645 C210.432,875.418,221.594,886.733,235.52,886.733 C419.806,886.733,604.092,886.733,788.378,886.733 C795.031,886.733,801.413,884.09,806.117,879.385 C810.822,874.68,813.466,868.299,813.466,861.645 C813.466,861.645,813.466,301.824,813.466,301.824 C838.588,301.824,863.71,301.824,888.832,301.824 C902.067,300.992,912.38,290.021,912.393,276.76 C912.407,263.499,902.117,252.507,888.883,251.648 z M346.214,199.322 C346.214,194.509,348.109,189.952,351.488,186.522 C354.911,183.141,359.528,181.246,364.339,181.248 C462.78,181.248,561.22,181.248,659.661,181.248 C669.645,181.248,677.734,189.389,677.734,199.322 C677.734,216.764,677.734,234.206,677.734,251.648 C672.734,251.648,667.733,251.648,662.733,251.648 C662.733,251.614,662.733,251.58,662.733,251.546 C662.733,251.546,361.216,251.546,361.216,251.546 C361.216,251.58,361.216,251.614,361.216,251.648 C356.215,251.648,351.215,251.648,346.214,251.648 C346.214,251.648,346.214,199.322,346.214,199.322 z M763.187,836.454 C763.187,836.454,260.71,836.454,260.71,836.454 C260.71,836.454,260.71,301.824,260.71,301.824 C428.203,301.824,595.695,301.824,763.187,301.824 C763.187,480.034,763.187,658.244,763.187,836.454 z"/>
          </defs>
          <use xlink:href="#8" style="fill:#f73f44;fill-opacity:1;fill-rule:evenodd;opacity:1;stroke:none;"/>
        </g>
      </defs>
      <use xlink:href="#7"/>
    </g>
    <clipPath id="10">
      <use xlink:href="#9"/>
      <path id="9" d="M0,0 C0,0,1024,0,1024,0 C1024,0,1024,1024,1024,1024 C1024,1024,0,1024,0,1024 C0,1024,0,0,0,0 z"/>
    </clipPath>
    <g id="11" style="clip-path:url(#10);"/>
  </g>
</svg>
