<?xml version="1.0" standalone="no"?><!DOCTYPE svg PUBLIC "-//W3C//DTD SVG 1.1//EN" "http://www.w3.org/Graphics/SVG/1.1/DTD/svg11.dtd"><svg class="icon" width="200px" height="200.00px" viewBox="0 0 1024 1024" version="1.1" xmlns="http://www.w3.org/2000/svg"><path d="M691.2 896h-204.8c-30.72 0-51.2-20.48-51.2-51.2s20.48-51.2 51.2-51.2h204.8c87.04 0 153.6-66.56 153.6-153.6s-66.56-153.6-153.6-153.6H343.04L471.04 614.4c20.48 20.48 20.48 51.2 0 71.68-20.48 20.48-51.2 20.48-71.68 0L184.32 471.04c-20.48-20.48-20.48-51.2 0-71.68l215.04-215.04c20.48-20.48 51.2-20.48 71.68 0 20.48 20.48 20.48 51.2 0 71.68L343.04 384h348.16c143.36 0 256 112.64 256 256s-112.64 256-256 256z" fill="#FFFF00" /></svg>