<?xml version="1.0" encoding="utf-8"?>
<svg x="0pt" y="0pt" width="1024pt" height="1024pt" viewBox="0 0 1024 1024" xmlns="http://www.w3.org/2000/svg" xmlns:xlink="http://www.w3.org/1999/xlink">
  <g id="1">
    <title>Layer 1</title>
    <g id="2">
      <title>Group</title>
      <g id="3">
        <title>Group</title>
        <defs>
          <title>Shape 19</title>
          <g id="4">
            <defs>
              <path id="5" d="M512.396,1024.77 C376.631,1024.63,246.466,970.637,150.466,874.636 C54.4651,778.635,0.47033,648.471,0.33,512.706 C0.470636,376.94,54.4656,246.775,150.466,150.775 C246.467,54.7745,376.632,0.780083,512.397,0.639997 C648.139,0.815384,778.27,54.8255,874.241,150.822 C970.213,246.819,1024.19,376.963,1024.33,512.706 C1024.19,648.449,970.212,778.594,874.24,874.591 C778.268,970.587,648.137,1024.6,512.394,1024.77 z M512.396,70.895 C395.253,71.0003,282.937,117.582,200.105,200.415 C117.272,283.247,70.6902,395.563,70.5849,512.706 C70.7251,629.837,117.318,742.132,200.143,824.958 C282.968,907.783,395.263,954.376,512.395,954.517 C756.228,954.151,953.781,756.538,954.073,512.706 C953.794,268.897,756.251,71.2734,512.419,70.895 z"/>
            </defs>
            <use xlink:href="#5" style="fill:#ff5651;fill-opacity:1;fill-rule:evenodd;opacity:1;stroke:none;"/>
          </g>
        </defs>
        <use xlink:href="#4"/>
        <defs>
          <title>Shape 20</title>
          <g id="6">
            <defs>
              <path id="7" d="M377.983,682.113 C363.807,682.072,351.045,673.514,345.626,660.415 C340.206,647.315,343.192,632.242,353.195,622.198 C353.195,622.198,621.622,353.505,621.622,353.505 C630.502,344.626,643.444,341.158,655.574,344.408 C667.704,347.658,677.178,357.133,680.428,369.262 C683.679,381.392,680.211,394.335,671.331,403.214 C671.331,403.214,402.904,671.906,402.904,671.906 C396.011,678.799,386.997,682.113,377.983,682.113"/>
            </defs>
            <use xlink:href="#7" style="fill:#ff5651;fill-opacity:1;fill-rule:evenodd;opacity:1;stroke:none;"/>
          </g>
        </defs>
        <use xlink:href="#6"/>
        <defs>
          <title>Shape 21</title>
          <g id="8">
            <defs>
              <path id="9" d="M646.676,682.113 C637.662,682.113,628.648,678.799,621.755,671.906 C621.755,671.906,353.195,403.082,353.195,403.082 C344.316,394.202,340.848,381.26,344.098,369.13 C347.348,357,356.823,347.526,368.952,344.276 C381.082,341.025,394.025,344.493,402.904,353.373 C492.424,442.937,581.944,532.501,671.464,622.065 C681.467,632.109,684.453,647.183,679.033,660.282 C673.614,673.382,660.852,681.94,646.676,681.98"/>
            </defs>
            <use xlink:href="#9" style="fill:#ff5651;fill-opacity:1;fill-rule:evenodd;opacity:1;stroke:none;"/>
          </g>
        </defs>
        <use xlink:href="#8"/>
      </g>
    </g>
  </g>
</svg>
