<?xml version="1.0" standalone="no"?><!DOCTYPE svg PUBLIC "-//W3C//DTD SVG 1.1//EN" "http://www.w3.org/Graphics/SVG/1.1/DTD/svg11.dtd"><svg class="icon" width="200px" height="200.00px" viewBox="0 0 1024 1024" version="1.1" xmlns="http://www.w3.org/2000/svg"><path d="M512 672A160 160 0 1 0 352.01024 512 160.17408 160.17408 0 0 0 512 672z m0-256A96 96 0 1 1 415.98976 512 96.11264 96.11264 0 0 1 512 416zM896 128h-64v64h64V128z m-704 0H128v64h64V128z m-64 768h64v-64H128v64z m704 0h64v-64h-64v64z m-355.65568-148.498432a32.006144 32.006144 0 0 0-30.43328-33.501184c-16.34304-0.780288-32.62464 12.812288-33.50528 30.437376-0.1024 2.310144-1.90464 46.938112 18.8416 110.311424a277.21728 277.21728 0 0 1-40.0384-15.343616c-45.58848-19.032064-82.06336-41.3696-105.2672-64.3072l62.99648-86.28224a32.004096 32.004096 0 1 0-51.69152-37.748736l-77.9264 106.747904a31.9488 31.9488 0 0 0-0.18432 37.500928c35.08224 49.031168 99.51232 83.1488 146.20672 102.623232a320.512 320.512 0 0 0 52.1216 19.376128l5.2224 1.593344c0.90112 0.249856 1.8432 0.47104 2.74432 0.657408 22.13888 5.748736 38.95296 8.720384 51.79392 8.720384 19.5584 0 29.7984-6.905856 35.36896-21.344256a32.823296 32.823296 0 0 0-3.31776-28.8768c-34.65216-73.723904-32.9728-130.158592-32.93184-130.564096z m377.05728-31.9488a32.069632 32.069632 0 0 0-26.46016-12.027904c-81.26464-8.220672-128.90112-38.719488-129.24928-38.938624a31.985664 31.985664 0 0 0-35.45088 53.248c1.9456 1.312768 39.3216 25.782272 104.448 40.595456a278.607872 278.607872 0 0 1-33.62816 26.281984c-39.87456 29.247488-77.86496 48.965632-109.52704 57.063424l-41.84064-98.4064a31.995904 31.995904 0 1 0-58.88 25.061376l51.69152 121.593856a31.95904 31.95904 0 0 0 29.42976 19.468288c0.83968 0 1.69984-0.03072 2.53952-0.096256 60.19072-4.808704 122.65472-42.3936 163.36896-72.341504a319.125504 319.125504 0 0 0 43.45856-34.656256l3.95264-3.5328c0.67584-0.62464 1.3312-1.312768 1.96608-1.968128 41.3696-40.45824 49.99168-61.114368 34.18112-81.32608z m10.73152-390.060032a32.74752 32.74752 0 0 0-23.87968 16.498688c-48.8448 65.251328-99.57376 90.374144-99.9424 90.53184a32.012288 32.012288 0 1 0 27.38176 57.874432c2.10944-1.001472 42.45504-20.46976 88.71936-68.687872a281.581568 281.581568 0 0 1 5.34528 42.471424c4.608 49.061888 2.048 91.684864-7.24992 122.937344l-106.12736-14.784512a31.993856 31.993856 0 1 0-8.82688 63.37536l131.09248 18.282496a30.3104 30.3104 0 0 0 4.42368 0.313344 31.981568 31.981568 0 0 0 28.65152-17.782784c26.80832-54.032384 26.624-126.844928 21.83168-177.094656a320.565248 320.565248 0 0 0-7.45472-54.996992l-1.06496-5.500928c-0.22528-0.874496-0.43008-1.75104-0.7168-2.594816-13.47584-56.086528-26.78784-73.992192-52.18304-70.834176z m-301.38368-48.656384a32 32 0 0 0 63.6928 6.250496c0.2048-2.347008 4.21888-46.813184-13.37344-111.126528a280.49408 280.49408 0 0 1 39.23968 17.250304c44.56448 21.248 79.872 45.375488 101.96992 69.404672l-67.1744 83.095552a31.993856 31.993856 0 1 0 49.74592 40.249344l83.12832-102.780928a32.069632 32.069632 0 0 0 2.02752-37.4784c-32.68608-50.716672-95.35488-87.969792-140.98432-109.656064a320.940032 320.940032 0 0 0-51.3024-21.970944l-4.68992-1.718272c-0.83968-0.282624-1.65888-0.530432-2.49856-0.749568-55.5008-17.375232-77.74208-15.251456-88.14592 8.282112a32.67584 32.67584 0 0 0 1.90464 28.93824c30.96576 75.333632 26.50112 131.612672 26.46016 132.018176z m-378.18368 13.37344a32.768 32.768 0 0 0 25.8048 13.34272c80.75264 12.222464 126.8736 45.033472 127.1808 45.2608a31.997952 31.997952 0 1 0 38.07232-51.437568c-1.90464-1.406976-38.03136-27.68896-102.33856-45.688832a277.395456 277.395456 0 0 1 34.87744-24.592384c41.30816-27.250688 80.22016-45.094912 112.25088-51.625984l36.90496 100.313088a31.995904 31.995904 0 1 0 60.04736-22.1184l-45.60896-123.971584c-4.79232-12.9024-17.92-21.7088-31.00672-20.936704-60.27264 1.875968-124.55936 36.345856-166.72768 64.251904a320.206848 320.206848 0 0 0-45.28128 32.59392l-3.584 2.904064a28.790784 28.790784 0 0 0-2.6624 2.4064c-43.1104 38.21568-52.65408 58.368-37.92896 79.306752zM105.90208 614.680576l1.06496 5.500928c0.22528 0.872448 0.43008 1.746944 0.7168 2.59072 12.51328 52.000768 24.82176 71.18848 46.81728 71.18848a45.73184 45.73184 0 0 0 5.36576-0.344064 32.768 32.768 0 0 0 23.87968-16.498688c48.82432-65.251328 99.57376-90.3168 99.90144-90.50112a31.995904 31.995904 0 1 0-27.29984-57.87648c-2.12992 1.001472-42.47552 20.43904-88.76032 68.657152a281.55904 281.55904 0 0 1-5.34528-42.467328c-4.608-49.063936-2.048-91.686912 7.24992-122.937344l106.10688 14.811136a31.995904 31.995904 0 1 0 8.86784-63.37536l-131.09248-18.311168a31.744 31.744 0 0 0-33.09568 17.46944c-26.80832 54.028288-26.624 126.840832-21.83168 177.09056a320.612352 320.612352 0 0 0 7.45472 55.011328zM960 0H64A64.079872 64.079872 0 0 0 0 64v896A64.079872 64.079872 0 0 0 64 1024h896A64.079872 64.079872 0 0 0 1024 960V64A64.079872 64.079872 0 0 0 960 0z m0 960H64V64h896v896z" fill="#0097e6" /></svg>