<?xml version="1.0" encoding="utf-8"?>
<svg x="0pt" y="0pt" width="100pt" height="100pt" viewBox="0 0 100 100" xmlns="http://www.w3.org/2000/svg" xmlns:xlink="http://www.w3.org/1999/xlink">
  <g id="1">
    <title>ClipGroup</title>
    <g id="2">
      <title>Group</title>
      <g id="3">
        <title>Group</title>
        <g id="4">
          <title>Group</title>
          <g id="5">
            <title>Group</title>
            <g id="6">
              <title>Group</title>
              <g id="7">
                <title>Group</title>
                <defs>
                  <title>Shape 36</title>
                  <g id="8">
                    <defs>
                      <path id="9" d="M27.3,31.6 C24.2,31.6,22.5,38.3,22.5,44.9 C22.5,51.5,24.2,58.2,27.3,58.2 C30.4,58.2,32.2,51.5,32.2,44.9 C32.2,38.3,30.5,31.6,27.3,31.6 z M27.3,56.3 C26.3,56.3,24.4,52.3,24.4,44.9 C24.4,37.5,26.4,33.5,27.4,33.5 C28.4,33.5,30.3,37.5,30.3,44.9 C30.3,52.3,28.3,56.3,27.3,56.3 z M42.8,26.4 C42.3985,26.6542,42.2313,27.1558,42.4,27.6 C42.4,27.7,47.7,40,42.4,61.7 C42.4725,62.065,42.7417,62.3595,43.0987,62.4645 C43.4557,62.5695,43.8414,62.4676,44.1,62.2 C49.7,39.8,44.3,27.4,44.1,26.8 C43.838,26.3471,43.2713,26.1727,42.8,26.4 z M48,22.7 C47.8582,22.3289,47.5101,22.077,47.1133,22.0582 C46.7165,22.0394,46.3462,22.2572,46.1698,22.6132 C45.9935,22.9691,46.0446,23.3957,46.3,23.7 C46.5554,24.0043,51.3,32.7,49.7,46.1 C49.5306,46.495,49.6325,46.9541,49.9532,47.2403 C50.2739,47.5265,50.7416,47.5757,51.1149,47.3626 C51.4881,47.1494,51.6835,46.7216,51.6,46.3 C52.7374,38.2505,51.4856,30.0443,48,22.7 z M55.9,62.9 C55.9667,62.9,56.0333,62.9,56.1,62.9 C56.5449,62.8641,56.9122,62.5376,57,62.1 C61,43.9,57.5,33.7,57.4,33.3 C57.1418,32.9557,56.6921,32.8152,56.2838,32.9513 C55.8754,33.0874,55.6,33.4696,55.6,33.9 C55.6,34.3304,56.5,36.5,56.8,41.1 C57.2,45.4,57.1,52.5,55.2,61.7 C55,62.2,55.4,62.7,55.9,62.9 z M84.2,91.1 C78.9,87.4,71.6,87.9,64.6,88.3 C59.2,88.7,54,89,50.1,87.3 C42.9,84.3,41.8,75.5,41.6,73 C45.5,73,49.4,73,53.3,73 C55.6,79.6,58.5,83,61.9,83 C69.8,83,74.5,63.7,74.5,45 C74.5,26.3,69.8,6.7,61.9,6.7 C58.5,6.7,55.6,10.2,53.3,16.7 C53.3,16.7,36.7,16.7,36.7,16.7 C36.6,16.7333,36.5,16.7667,36.4,16.8 C34.3,10.7,31.4,6.7,27.8,6.7 C19.9,6.7,15.2,26.1,15.2,44.8 C15.2,63.5,19.9,83,27.8,83 C31.4,83,34.3,79,36.4,73 C37.5,73,38.6,73,39.7,73 C39.8,74,40,76.4,40.9,79 C42.5,84,45.4,87.4,49.4,89.1 C53.7,90.9,59,90.6,64.8,90.2 C71.4,89.8,78.3,89.3,83.1,92.7 C83.5224,92.9678,84.0777,92.8824,84.4,92.5 C84.7,92,84.6,91.5,84.2,91.1 z M61.9,8.7 C67.1,8.7,72.6,23.2,72.6,44.9 C72.6,66.6,67.1,81.2,62,81.2 C59.7,81.2,57.3,78.2,55.4,73 C56.8333,73,58.2667,73,59.7,73 C65,73,68,58.5,68,45 C68,31.5,65,16.9,59.5,16.9 C58.0667,16.9,56.6333,16.9,55.2,16.9 C57.1,11.6,59.5,8.7,61.8,8.7 z M27.8,81.2 C22.6,81.2,17,66.6,17,44.9 C17,23.2,22.6,8.7,27.8,8.7 C33,8.7,38.5,23.2,38.5,44.9 C38.5,66.6,33,81.2,27.8,81.2 z M40.4,44.9 C40.4,35.5,39.2,25.9,37,18.8 C44.5333,18.8,52.0667,18.8,59.6,18.8 C60.7,18.8,62.6,20.7,64,26 C65.4,31,66.2,37.8,66.2,45 C66.2,52.2,65.4,58.8,64,63.8 C62.5,69.2,60.7,71.1,59.6,71.1 C57.8333,71.1,56.0667,71.1,54.3,71.1 C54.0169,70.9574,53.683,70.9574,53.4,71.1 C53.4,71.1,37,71.1,37,71.1 C39.3443,62.5669,40.4886,53.7488,40.4,44.9 z"/>
                    </defs>
                    <use xlink:href="#9" style="fill:#0097e6;fill-opacity:1;fill-rule:nonzero;opacity:1;stroke:none;"/>
                  </g>
                </defs>
                <use xlink:href="#8"/>
              </g>
            </g>
          </g>
        </g>
      </g>
    </g>
  </g>
</svg>
