<?xml version="1.0" standalone="no"?><!DOCTYPE svg PUBLIC "-//W3C//DTD SVG 1.1//EN" "http://www.w3.org/Graphics/SVG/1.1/DTD/svg11.dtd"><svg t="1608196809956" class="icon" viewBox="0 0 1024 1024" version="1.1" xmlns="http://www.w3.org/2000/svg" p-id="13125" xmlns:xlink="http://www.w3.org/1999/xlink" width="1024" height="1024"><defs><style type="text/css"></style></defs><path d="M213.333333 259.84v512l-55.04-55.466667a42.666667 42.666667 0 0 0-60.586666 60.586667l128 128a42.666667 42.666667 0 0 0 60.586666 0l128-128a42.666667 42.666667 0 0 0 0-60.586667 42.666667 42.666667 0 0 0-60.586666 0L298.666667 771.84v-512A66.56 66.56 0 0 1 363.946667 192H469.333333a42.666667 42.666667 0 0 0 0-85.333333H363.946667A151.893333 151.893333 0 0 0 213.333333 259.84zM609.706667 247.04a42.666667 42.666667 0 0 0 60.586666 60.586667L725.333333 252.16v512a66.56 66.56 0 0 1-65.28 67.84H554.666667a42.666667 42.666667 0 0 0 0 85.333333h105.386666A151.893333 151.893333 0 0 0 810.666667 764.16v-512l55.04 55.466667a42.666667 42.666667 0 0 0 60.586666 0 42.666667 42.666667 0 0 0 0-60.586667l-128-128a42.666667 42.666667 0 0 0-60.586666 0z" p-id="13126" fill="#e6e6e6"></path></svg>