<?xml version="1.0" standalone="no"?><!DOCTYPE svg PUBLIC "-//W3C//DTD SVG 1.1//EN" "http://www.w3.org/Graphics/SVG/1.1/DTD/svg11.dtd"><svg t="1608196871919" class="icon" viewBox="0 0 1024 1024" version="1.1" xmlns="http://www.w3.org/2000/svg" p-id="13530" xmlns:xlink="http://www.w3.org/1999/xlink" width="1024" height="1024"><defs><style type="text/css"></style></defs><path d="M259.84 810.666667h512l-55.466667 55.04a42.666667 42.666667 0 0 0 60.586667 60.586666l128-128a42.666667 42.666667 0 0 0 0-60.586666l-128-128a42.666667 42.666667 0 0 0-60.586667 0 42.666667 42.666667 0 0 0 0 60.586666l55.466667 55.04h-512a66.56 66.56 0 0 1-67.84-65.28V554.666667a42.666667 42.666667 0 0 0-85.333333 0v105.386666A151.893333 151.893333 0 0 0 259.84 810.666667zM247.04 414.293333a42.666667 42.666667 0 1 0 60.586667-60.586666L252.16 298.666667h512a66.56 66.56 0 0 1 67.84 65.28V469.333333a42.666667 42.666667 0 0 0 85.333333 0V363.946667A151.893333 151.893333 0 0 0 764.16 213.333333h-512l55.466667-55.04a42.666667 42.666667 0 0 0 0-60.586666 42.666667 42.666667 0 0 0-60.586667 0l-128 128a42.666667 42.666667 0 0 0 0 60.586666z" p-id="13531" fill="#e6e6e6"></path></svg>