<?xml version="1.0" encoding="utf-8"?>
<svg x="0pt" y="0pt" width="1024pt" height="1024pt" viewBox="0 0 1024 1024" xmlns="http://www.w3.org/2000/svg" xmlns:xlink="http://www.w3.org/1999/xlink">
  <g id="1">
    <title>Layer 1</title>
    <clipPath id="3">
      <use xlink:href="#2"/>
      <path id="2" d="M0,0 C0,0,1024,0,1024,0 C1024,0,1024,1024,1024,1024 C1024,1024,0,1024,0,1024 C0,1024,0,0,0,0 z"/>
    </clipPath>
    <g id="4" style="clip-path:url(#3);">
      <title>ClipGroup</title>
      <defs>
        <title>Shape 23</title>
        <g id="5">
          <defs>
            <path id="6" d="M128,224 C128,416,128,608,128,800 C128,808.487,131.371,816.626,137.373,822.627 C143.374,828.629,151.513,832,160,832 C394.667,832,629.333,832,864,832 C872.487,832,880.626,828.629,886.627,822.627 C892.629,816.626,896,808.487,896,800 C896,650.667,896,501.333,896,352 C896,343.513,892.629,335.374,886.627,329.373 C880.626,323.371,872.487,320,864,320 C864,320,467.776,320,467.776,320 C431.394,319.999,398.139,299.431,381.888,266.88 C372.352,247.808,362.816,228.736,353.28,209.664 C347.855,198.837,336.782,192,324.672,192 C324.672,192,160,192,160,192 C151.513,192,143.374,195.371,137.373,201.373 C131.371,207.374,128,215.513,128,224 z M64,224 C64,198.539,74.1143,174.121,92.1177,156.118 C110.121,138.114,134.539,128,160,128 C214.891,128,269.781,128,324.672,128 C361.054,128.001,394.309,148.569,410.56,181.12 C420.096,200.192,429.632,219.264,439.168,238.336 C444.593,249.163,455.666,256,467.776,256 C467.776,256,864,256,864,256 C889.461,256,913.879,266.114,931.882,284.118 C949.886,302.121,960,326.539,960,352 C960,501.333,960,650.667,960,800 C960,825.461,949.886,849.879,931.882,867.882 C913.879,885.886,889.461,896,864,896 C629.333,896,394.667,896,160,896 C134.539,896,110.121,885.886,92.1177,867.882 C74.1143,849.879,64,825.461,64,800 C64,608,64,416,64,224 z"/>
          </defs>
          <use xlink:href="#6" style="fill:#e6e6e6;fill-opacity:1;fill-rule:evenodd;opacity:1;stroke:none;"/>
        </g>
      </defs>
      <use xlink:href="#5"/>
    </g>
    <clipPath id="8">
      <use xlink:href="#7"/>
      <path id="7" d="M0,0 C0,0,1024,0,1024,0 C1024,0,1024,1024,1024,1024 C1024,1024,0,1024,0,1024 C0,1024,0,0,0,0 z"/>
    </clipPath>
    <g id="9" style="clip-path:url(#8);"/>
  </g>
</svg>
