<?xml version="1.0" encoding="UTF-8" standalone="no"?> <!-- Created with Vectornator for iOS (http://vectornator.io/) --><!DOCTYPE svg PUBLIC "-//W3C//DTD SVG 1.1//EN" "http://www.w3.org/Graphics/SVG/1.1/DTD/svg11.dtd">
<svg style="fill-rule:evenodd;clip-rule:evenodd;stroke-linecap:round;stroke-linejoin:round;" xmlns:vectornator="http://vectornator.io" xmlns:xlink="http://www.w3.org/1999/xlink" xmlns="http://www.w3.org/2000/svg" xml:space="preserve" version="1.1" viewBox="0 0 1024 1024">
<metadata>
<vectornator:setting key="DynamicGuides" value="1"/>
<vectornator:setting key="Units" value="Points"/>
<vectornator:setting key="GuidesVisible" value="1"/>
<vectornator:setting key="RulersVisible" value="1"/>
<vectornator:setting key="SnapToGuides" value="1"/>
<vectornator:setting key="GridSpacing" value="36"/>
</metadata>
<defs>
<path d="M0+0L1024+0L1024+1024L0+1024L0+0Z" id="Mask"/>
</defs>
<g id="Untitled" vectornator:layerName="Untitled">
<g opacity="1" vectornator:mask="#Mask">
<clipPath id="ClipPath">
<use xlink:href="#Mask" fill="none" overflow="visible"/>
</clipPath>
<g clip-path="url(#ClipPath)">
<path d="M128+224C128+416+128+608+128+800C128+808.487+131.371+816.626+137.373+822.627C143.374+828.629+151.513+832+160+832C394.667+832+629.333+832+864+832C872.487+832+880.626+828.629+886.627+822.627C892.629+816.626+896+808.487+896+800C896+650.667+896+501.333+896+352C896+343.513+892.629+335.374+886.627+329.373C880.626+323.371+872.487+320+864+320L467.776+320C431.394+319.999+398.139+299.431+381.888+266.88C372.352+247.808+362.816+228.736+353.28+209.664C347.855+198.837+336.782+192+324.672+192L160+192C151.513+192+143.374+195.371+137.373+201.373C131.371+207.374+128+215.513+128+224ZM64+224C64+198.539+74.1143+174.121+92.1177+156.118C110.121+138.114+134.539+128+160+128C214.891+128+269.781+128+324.672+128C361.054+128.001+394.309+148.569+410.56+181.12C420.096+200.192+429.632+219.264+439.168+238.336C444.593+249.163+455.666+256+467.776+256L864+256C889.461+256+913.879+266.114+931.882+284.118C949.886+302.121+960+326.539+960+352C960+501.333+960+650.667+960+800C960+825.461+949.886+849.879+931.882+867.882C913.879+885.886+889.461+896+864+896C629.333+896+394.667+896+160+896C134.539+896+110.121+885.886+92.1177+867.882C74.1143+849.879+64+825.461+64+800C64+608+64+416+64+224Z" opacity="1" fill="#e6e6e6"/>
</g>
</g>
</g>
</svg>
