<?xml version="1.0" standalone="no"?><!DOCTYPE svg PUBLIC "-//W3C//DTD SVG 1.1//EN" "http://www.w3.org/Graphics/SVG/1.1/DTD/svg11.dtd"><svg class="icon" width="200px" height="200.00px" viewBox="0 0 1024 1024" version="1.1" xmlns="http://www.w3.org/2000/svg"><path d="M209.664 813.696a426.666667 426.666667 0 0 1 0-603.392 42.666667 42.666667 0 0 1 60.330667 60.330667 341.333333 341.333333 0 1 0 482.474666 0 42.666667 42.666667 0 0 1 60.330667-60.330667A426.666667 426.666667 0 0 1 209.664 813.696zM511.36 85.333333a42.666667 42.666667 0 0 1 42.666667 42.666667v384a42.666667 42.666667 0 0 1-85.333334 0V128a42.666667 42.666667 0 0 1 42.666667-42.666667z" fill="#f4ea2a" /></svg>