<?xml version="1.0" standalone="no"?><!DOCTYPE svg PUBLIC "-//W3C//DTD SVG 1.1//EN" "http://www.w3.org/Graphics/SVG/1.1/DTD/svg11.dtd"><svg class="icon" width="200px" height="200.00px" viewBox="0 0 1024 1024" version="1.1" xmlns="http://www.w3.org/2000/svg"><path d="M692.224 268.288c-15.36 0-28.672 4.096-41.984 11.264-14.336-8.192-28.672-11.264-45.056-11.264-17.408 0-32.768 4.096-48.128 13.312-14.336-8.192-29.696-12.288-46.08-12.288-15.36 0-30.72 4.096-44.032 11.264-14.336-8.192-28.672-11.264-45.056-11.264-16.384 0-31.744 4.096-45.056 12.288-14.336-8.192-29.696-12.288-45.056-12.288-38.912 0-72.704 25.6-99.328 66.56L232.448 129.024c0-11.264-10.24-22.528-22.528-22.528s-22.528 11.264-22.528 22.528l0 359.424c-1.024 11.264-1.024 21.504-1.024 32.768 0 142.336 63.488 252.928 145.408 252.928 16.384 0 31.744-4.096 45.056-12.288 14.336 8.192 29.696 12.288 45.056 12.288 15.36 0 30.72-4.096 44.032-11.264 14.336 7.168 28.672 11.264 45.056 11.264 17.408 0 32.768-4.096 48.128-13.312 14.336 8.192 29.696 12.288 46.08 12.288 15.36 0 28.672-4.096 41.984-11.264 14.336 8.192 28.672 11.264 45.056 11.264 39.936 0 74.752-26.624 100.352-68.608l0 188.416c0 12.288 10.24 22.528 22.528 22.528s22.528-10.24 22.528-22.528L837.632 679.936 837.632 515.072c1.024-1.024 0-3.072 0-4.096C834.56 373.76 771.072 268.288 692.224 268.288zM331.776 730.112c-48.128 0-100.352-86.016-100.352-207.872 0-2.048 0-4.096 0-6.144 1.024-2.048 1.024-4.096 1.024-6.144l0-17.408c7.168-106.496 55.296-178.176 99.328-178.176 2.048 0 4.096 0 6.144 1.024-36.864 45.056-61.44 120.832-61.44 206.848s23.552 161.792 61.44 206.848C335.872 730.112 333.824 730.112 331.776 730.112zM421.888 730.112c-48.128 0-100.352-86.016-100.352-207.872 0-83.968 24.576-149.504 55.296-183.296 1.024-1.024 2.048-3.072 4.096-4.096 1.024-1.024 3.072-3.072 4.096-4.096 2.048-2.048 4.096-3.072 5.12-4.096 1.024-1.024 3.072-2.048 4.096-3.072 2.048-2.048 4.096-3.072 6.144-4.096 1.024-1.024 2.048-1.024 3.072-2.048 3.072-2.048 5.12-3.072 8.192-4.096l1.024 0c2.048 0 4.096-1.024 4.096-1.024 2.048 0 4.096-1.024 6.144-1.024 2.048 0 4.096 0 4.096 1.024-36.864 45.056-61.44 120.832-61.44 207.872 0 87.04 24.576 161.792 61.44 207.872C425.984 730.112 423.936 730.112 421.888 730.112zM510.976 730.112c-48.128 0-100.352-86.016-100.352-207.872 0-83.968 25.6-150.528 56.32-184.32l1.024-1.024c2.048-2.048 4.096-4.096 6.144-6.144 1.024-1.024 2.048-1.024 2.048-2.048 2.048-2.048 4.096-4.096 6.144-4.096 1.024-1.024 3.072-2.048 4.096-3.072 2.048-1.024 3.072-2.048 4.096-2.048 2.048-1.024 4.096-2.048 6.144-3.072 4.096-1.024 6.144-2.048 10.24-3.072 2.048 0 4.096-1.024 4.096-1.024 3.072 0 5.12 0 8.192 1.024-36.864 46.08-60.416 120.832-60.416 205.824 1.024 87.04 24.576 162.816 62.464 208.896C517.12 730.112 515.072 730.112 510.976 730.112zM605.184 729.088c-48.128 0-100.352-86.016-100.352-207.872 0-81.92 23.552-146.432 53.248-181.248 4.096-5.12 9.216-10.24 13.312-13.312 2.048-1.024 4.096-3.072 4.096-4.096 1.024-1.024 3.072-2.048 4.096-3.072 2.048-1.024 4.096-2.048 5.12-3.072 1.024 0 2.048-1.024 3.072-1.024 2.048-1.024 4.096-2.048 6.144-2.048 4.096-1.024 6.144-1.024 10.24-1.024 2.048 0 3.072 0 4.096 0C570.368 358.4 545.792 435.2 545.792 522.24c0 86.016 23.552 160.768 59.392 206.848C606.208 729.088 605.184 729.088 605.184 729.088zM692.224 730.112c-2.048 0-3.072 0-4.096-1.024l1.024-1.024c-13.312-1.024-26.624-9.216-40.96-22.528 0 0 0 0-1.024 1.024-30.72-33.792-56.32-100.352-56.32-184.32 1.024-122.88 54.272-207.872 101.376-207.872 47.104 0 100.352 86.016 100.352 207.872S740.352 730.112 692.224 730.112z" fill="#f4ea2a" /><path d="M512 0c-95.232 0-183.296 25.6-260.096 70.656 0 0-18.432 14.336 1.024 31.744 16.384 15.36 36.864 6.144 36.864 6.144C355.328 71.68 431.104 51.2 512 51.2c253.952 0 460.8 206.848 460.8 460.8 0 80.896-20.48 156.672-57.344 222.208 0 0-12.288 24.576 9.216 40.96 18.432 13.312 28.672-3.072 28.672-3.072 45.056-75.776 70.656-164.864 70.656-260.096C1024 229.376 794.624 0 512 0z" fill="#f4ea2a" /><path d="M734.208 915.456C668.672 952.32 592.896 972.8 512 972.8 258.048 972.8 51.2 765.952 51.2 512c0-80.896 20.48-156.672 57.344-222.208 0 0 11.264-22.528-3.072-35.84-19.456-18.432-34.816-2.048-34.816-2.048C25.6 328.704 0 416.768 0 512c0 282.624 229.376 512 512 512 95.232 0 183.296-25.6 260.096-70.656 0 0 15.36-11.264-1.024-28.672C753.664 907.264 734.208 915.456 734.208 915.456z" fill="#f4ea2a" /></svg>