<?xml version="1.0" standalone="no"?><!DOCTYPE svg PUBLIC "-//W3C//DTD SVG 1.1//EN" "http://www.w3.org/Graphics/SVG/1.1/DTD/svg11.dtd"><svg class="icon" width="200px" height="200.00px" viewBox="0 0 1024 1024" version="1.1" xmlns="http://www.w3.org/2000/svg"><path d="M506.051552 15.244403c-270.509878 0-490.578363 195.2873-490.578363 435.308372 0 137.488617 73.235748 266.572342 196.852681 348.646472v121.690311a73.5127 73.5127 0 0 0 73.42841 73.42841H726.336783a73.5127 73.5127 0 0 0 73.42841-73.42841V799.199247c123.628975-82.07413 196.852681-211.145814 196.852681-348.646472 0.012041-240.033114-220.056444-435.308373-490.566322-435.308372z m244.06698 738.221637l-15.605644 9.548824v157.886735a8.176105 8.176105 0 0 1-8.164064 8.164064h-79.087864v-75.728316a18.363123 18.363123 0 0 0-36.726247 0v75.728316H518.74318v-75.728316a18.363123 18.363123 0 0 0-36.726247 0v75.728316h-91.791533v-75.728316a18.363123 18.363123 0 0 0-36.726247 0v75.728316h-67.780997a8.176105 8.176105 0 0 1-8.164064-8.164064V763.014864l-15.605644-9.548824C148.49445 684.059454 80.749577 570.822201 80.749577 450.552775c0-204.041392 190.795861-370.044026 425.301975-370.044026s425.301976 166.002634 425.301976 370.044026c0.012041 120.269426-67.744873 233.506679-181.234996 302.913265z" fill="#d81e06" /><path d="M331.102164 353.511195c-73.103293 0-132.58777 59.484478-132.587771 132.58777S257.98683 618.686736 331.102164 618.686736s132.58777-59.484478 132.58777-132.587771-59.484478-132.58777-132.58777-132.58777z m0 240.683349c-59.604892 0-108.10762-48.502728-108.10762-108.10762s48.490687-108.10762 108.10762-108.10762 108.10762 48.502728 108.10762 108.10762-48.502728 108.10762-108.10762 108.10762zM682.662653 353.511195c-73.103293 0-132.58777 59.484478-132.587771 132.58777S609.547319 618.686736 682.662653 618.686736s132.58777-59.484478 132.58777-132.587771-59.472437-132.58777-132.58777-132.58777z m0 240.683349c-59.604892 0-108.10762-48.502728-108.10762-108.10762s48.490687-108.10762 108.10762-108.10762 108.10762 48.502728 108.10762 108.10762-48.490687 108.10762-108.10762 108.10762z" fill="#d81e06" /></svg>