<svg width="100" height="100" xmlns="http://www.w3.org/2000/svg">
 <switch>
  <g id="svg_1">
   <g fill="#e1b12c" id="svg_2">
    <path d="m59.5,10.8l-1.5,-2c-0.5,-0.6 -1.299999,-0.8 -2.099998,-0.7a2.2,2.2 0 0 0 -1.700001,2.599999l0.200001,0.900001l0.399998,1.299999l0.299999,1.400001a9,9 0 0 1 -1,5.3l-1.599998,3.4a18,18 0 0 0 -1.799999,8.6a14,14 0 0 0 3.5,8.1c0.599998,0.700001 1.599998,1 2.5,0.700001c1.200001,-0.400002 1.799999,-1.700001 1.399998,-3l0,-0.100002c-0.799999,-2.199997 -1.299999,-4.099998 -1.099998,-5.899998c0.099998,-1.800001 0.700001,-3.6 1.700001,-5.800001l1.399998,-3.4a13.5,13.5 0 0 0 -0.599998,-11.4l0,-0.000001zm15.5,0l-1.5,-2a2.2,2.2 0 0 0 -3.800003,2l0.200005,0.9l0.400002,1.3l0.299995,1.4a9,9 0 0 1 -1,5.300001l-1.599998,3.4a17.5,17.5 0 0 0 -1.800003,8.6a14,14 0 0 0 3.5,8.099998c0.600006,0.700001 1.600006,1 2.5,0.700001c1.200005,-0.399998 1.800003,-1.700001 1.400002,-3l0,-0.099998c-0.799995,-2.200001 -1.299995,-4.100002 -1.099998,-5.9c0.099998,-1.800001 0.699997,-3.6 1.699997,-5.800001l1.400002,-3.4a13.5,13.5 0 0 0 -0.599998,-11.5l0,-0.000001zm16.5,2.2a11.5,11.5 0 0 0 -2.5,-4.1c-0.5,-0.599999 -1.300003,-0.799999 -2.099998,-0.7a2.2,2.2 0 0 0 -1.700005,2.6l0.200005,0.9l0.400002,1.299999l0.299995,1.4a9,9 0 0 1 -1,5.300002l-1.599998,3.4a18,18 0 0 0 -1.800003,8.6a14,14 0 0 0 3.5,8.099998c0.600006,0.700001 1.600006,1 2.5,0.700001c1.200005,-0.400002 1.800003,-1.700001 1.400002,-3l0,-0.099998c-0.799995,-2.200001 -1.299995,-4.100002 -1.099998,-5.900002c0.099998,-1.799999 0.699997,-3.6 1.699997,-5.799999l1.400002,-3.400002a13.5,13.5 0 0 0 0.400002,-9.299999zm-50.200001,48.700001l0,-45.5c0,-6.4 -4.299999,-12.100001 -10.5,-13.4a13.3,13.3 0 0 0 -16.1,13l0,45.900003c0,0.399998 -0.2,0.799999 -0.5,1a20,20 0 1 0 27.6,0c-0.400002,-0.200001 -0.5,-0.600002 -0.5,-1l0,-0.000004zm-17.699999,30.299999a14.8,14.8 0 0 1 -9.1,-7.5a15,15 0 0 1 4.5,-19.300003c0.4,-0.300003 0.6,-0.699997 0.6,-1.099998l0,-47.799999c0,-4.400001 3.199999,-8.5 7.6,-8.899999c5,-0.5 9.299999,3.5 9.299999,8.399999l0,48.200001c0,0.5 0.200001,0.900002 0.599998,1.099998c3.800003,2.800003 6.200001,7.400002 6.200001,12.200005a15.4,15.4 0 0 1 -19.699999,14.699997z" id="svg_3"/>
    <path d="m31.5,67.699997l0,-42.299997c0,-2 -1.6,-3.6 -3.6,-3.6s-3.6,1.6 -3.6,3.6l0,42.299997a10.4,10.4 0 1 0 7.200001,0z" id="svg_4"/>
   </g>
  </g>
 </switch>

 <g>
  <title>background</title>
  <rect height="402" width="582" y="-1" x="-1" fill="none" id="canvas_background"/>
 </g>
 <g>
  <title>Layer 1</title>
 </g>
</svg>