<?xml version="1.0" encoding="UTF-8" standalone="no"?> <!-- Created with Vectornator for iOS (http://vectornator.io/) --><!DOCTYPE svg PUBLIC "-//W3C//DTD SVG 1.1//EN" "http://www.w3.org/Graphics/SVG/1.1/DTD/svg11.dtd">
<svg style="fill-rule:evenodd;clip-rule:evenodd;stroke-linecap:round;stroke-linejoin:round;" xmlns:vectornator="http://vectornator.io" xmlns:xlink="http://www.w3.org/1999/xlink" xmlns="http://www.w3.org/2000/svg" xml:space="preserve" version="1.1" viewBox="0 0 1024 1024">
<metadata>
<vectornator:setting key="DynamicGuides" value="1"/>
<vectornator:setting key="Units" value="Points"/>
<vectornator:setting key="GuidesVisible" value="1"/>
<vectornator:setting key="RulersVisible" value="1"/>
<vectornator:setting key="SnapToGuides" value="1"/>
<vectornator:setting key="GridSpacing" value="36"/>
</metadata>
<defs>
<path d="M0+0L1024+0L1024+1024L0+1024L0+0Z" id="Mask"/>
</defs>
<g id="Untitled" vectornator:layerName="Untitled">
<g opacity="1" vectornator:mask="#Mask">
<clipPath id="ClipPath">
<use xlink:href="#Mask" fill="none" overflow="visible"/>
</clipPath>
<g clip-path="url(#ClipPath)">
<path d="M904.64+503.008C904.64+493.568+904.64+484.128+904.64+474.688C904.589+433.464+871.182+400.054+829.955+400C804.003+400+778.051+400+752.099+400C710.872+400.053+677.464+433.461+677.411+474.688C677.411+479.157+677.411+483.627+677.411+488.096C660.237+488.096+643.064+488.096+625.891+488.096C625.891+483.627+625.891+479.157+625.891+474.688C625.839+433.464+592.433+400.054+551.206+400C525.254+400+499.302+400+473.35+400C432.122+400.053+398.714+433.461+398.662+474.688C398.662+479.157+398.662+483.627+398.662+488.096C381.478+488.096+364.294+488.096+347.11+488.096C347.11+483.627+347.11+479.157+347.11+474.688C347.058+433.462+313.648+400.051+272.419+400L194.56+400C153.333+400.053+119.925+433.461+119.872+474.688C119.872+483.979+119.872+493.269+119.872+502.56C98.3219+517.526+85.4516+542.083+85.408+568.32C85.408+585.813+85.408+603.307+85.408+620.8C85.408+647.03+98.2822+671.607+119.859+686.551C119.859+751.852+119.859+817.154+119.859+882.455C119.882+902.255+127.76+921.239+141.765+935.237C155.77+949.236+174.757+957.106+194.559+957.12C220.511+957.12+246.463+957.12+272.415+957.12C292.215+957.112+311.202+949.244+325.206+935.246C339.21+921.248+347.086+902.264+347.103+882.464C347.103+821.995+347.103+761.525+347.103+701.056C364.287+701.056+381.471+701.056+398.655+701.056C398.655+761.525+398.655+821.995+398.655+882.464C398.679+902.259+406.557+921.238+420.558+935.235C434.56+949.232+453.542+957.102+473.34+957.12C499.292+957.12+525.244+957.12+551.196+957.12C570.996+957.112+589.984+949.244+603.987+935.246C617.991+921.249+625.867+902.264+625.884+882.464C625.884+821.995+625.884+761.526+625.884+701.056C643.057+701.056+660.23+701.056+677.404+701.056C677.404+761.526+677.404+821.995+677.404+882.464C677.428+902.259+685.306+921.238+699.307+935.235C713.309+949.232+732.291+957.102+752.089+957.12C778.041+957.12+803.993+957.12+829.945+957.12C849.745+957.112+868.733+949.245+882.737+935.246C896.74+921.249+904.616+902.265+904.633+882.464C904.633+817.056+904.633+751.648+904.633+686.24C925.916+671.237+938.598+646.84+938.649+620.8C938.649+603.307+938.649+585.814+938.649+568.32C938.649+541.312+925.145+517.472+904.633+502.976L904.64+503.008ZM291.296+882.496C291.296+892.736+282.624+901.376+272.352+901.376L194.496+901.376C184.102+901.273+175.691+892.89+175.552+882.496L175.552+474.72C175.69+464.315+184.091+455.914+194.496+455.776C220.448+455.776+246.4+455.776+272.352+455.776C282.757+455.914+291.158+464.315+291.296+474.72C291.296+610.645+291.296+746.571+291.296+882.496ZM347.072+645.344C347.072+611.52+347.072+577.696+347.072+543.872C364.256+543.872+381.44+543.872+398.624+543.872C398.624+577.696+398.624+611.52+398.624+645.344C381.44+645.344+364.256+645.344+347.072+645.344ZM570.112+882.496C570.112+892.736+561.44+901.376+551.168+901.376C525.216+901.376+499.264+901.376+473.312+901.376C462.917+901.273+454.506+892.89+454.368+882.496L454.368+474.72C454.506+464.315+462.907+455.914+473.312+455.776C499.264+455.776+525.216+455.776+551.168+455.776C561.573+455.914+569.974+464.315+570.112+474.72C570.112+610.645+570.112+746.571+570.112+882.496ZM625.856+645.344C625.856+611.52+625.856+577.696+625.856+543.872C643.029+543.872+660.203+543.872+677.376+543.872C677.376+577.696+677.376+611.52+677.376+645.344C660.203+645.344+643.029+645.344+625.856+645.344ZM848.864+882.496C848.864+892.736+840.224+901.376+829.92+901.376C803.968+901.376+778.016+901.376+752.064+901.376C741.669+901.273+733.259+892.89+733.12+882.496L733.12+474.72C733.12+464.416+741.76+455.776+752.064+455.776C778.016+455.776+803.968+455.776+829.92+455.776C840.325+455.914+848.726+464.315+848.864+474.72C848.864+610.645+848.864+746.571+848.864+882.496ZM770.528+373.504C781.494+373.446+791.415+366.985+795.902+356.978C800.388+346.971+798.613+335.266+791.36+327.04C773.664+307.232+765.824+289.024+767.936+273.088C770.88+251.04+792.32+236.896+796.64+233.504C831.552+200.832+846.304+168.16+840.512+136.384C832.288+91.36+786.4+71.168+781.152+68.992C767.022+63.131+750.813+69.7977+744.896+83.904C739+98.052+745.575+114.311+759.648+120.384C765.632+123.008+783.392+133.408+785.664+146.528C787.68+158.112+778.048+174.56+762.784+189.6C758.368+192.384+719.488+217.856+712.736+264.832C708+297.888+720.416+331.296+749.6+364.192C754.922+370.111+762.504+373.496+770.464+373.504L770.528+373.504ZM513.824+373.504C524.823+373.515+534.802+367.064+539.307+357.03C543.812+346.997+542.004+335.253+534.688+327.04C516.992+307.232+509.152+289.024+511.264+273.088C514.208+251.04+535.648+236.896+539.968+233.504C574.88+200.832+589.632+168.16+583.84+136.384C575.616+91.36+529.728+71.168+524.48+68.992C515.3+65.1506+504.767+66.4987+496.851+72.5285C488.934+78.5582+484.835+88.3534+486.099+98.2244C487.362+108.095+493.796+116.543+502.976+120.384C508.96+123.008+526.72+133.408+528.992+146.528C531.008+158.112+521.376+174.56+506.112+189.6C501.696+192.384+462.816+217.856+456.064+264.832C451.328+297.888+463.744+331.296+492.928+364.192C498.25+370.111+505.832+373.496+513.792+373.504L513.824+373.504ZM248.352+373.504C259.351+373.515+269.329+367.064+273.835+357.03C278.34+346.997+276.532+335.253+269.216+327.04C251.52+307.232+243.68+289.024+245.792+273.088C248.736+251.04+270.176+236.896+274.496+233.504C309.408+200.832+324.16+168.16+318.368+136.384C310.144+91.36+264.256+71.168+259.008+68.992C244.878+63.1499+228.683+69.8111+222.752+83.904C216.856+98.052+223.431+114.311+237.504+120.384C243.488+123.008+261.248+133.408+263.52+146.528C265.536+158.112+255.904+174.56+240.64+189.6C236.224+192.384+197.344+217.856+190.592+264.832C185.856+297.888+198.272+331.296+227.456+364.192C232.778+370.111+240.36+373.496+248.32+373.504L248.352+373.504Z" opacity="1" fill="#f4ea2a"/>
</g>
</g>
</g>
</svg>
