<svg t="1598631583391" class="icon" viewBox="0 0 1024 1024" version="1.1" xmlns="http://www.w3.org/2000/svg" p-id="56038" width="1024" height="1024"><path d="M562.96 597.716V291.795c0-21.295-22.807-38.561-50.941-38.561-28.133 0-50.94 17.266-50.94 38.561v305.922c-44.218 19.566-75.072 63.818-75.072 115.283 0 69.596 56.418 126.014 126.014 126.014 69.595 0 126.013-56.418 126.013-126.014-0.001-51.467-30.856-95.717-75.074-115.284z" fill="#f4ea2a" p-id="56039"></path><path d="M681.52 533.337V200.385c0-37.654-19.349-73.895-53.083-99.432C596.961 77.125 555.616 64 512.019 64c-43.597 0-84.942 13.125-116.417 36.953-33.736 25.537-53.084 61.778-53.084 99.432v332.952c-49.444 46.612-77.497 111.223-77.497 179.662 0 65.975 25.692 128.003 72.344 174.655C384.017 934.307 446.044 960 512.021 960c65.975 0 128.004-25.693 174.658-72.345 46.648-46.653 72.346-108.68 72.346-174.655-0.007-68.439-28.06-133.051-77.505-179.663zM512.021 893.591c-99.578 0-180.591-81.013-180.591-180.591 0-53.96 23.864-104.678 65.475-139.147l12.022-9.958v-363.51c0-37.932 47.21-69.979 103.092-69.979 55.881 0 103.092 32.046 103.092 69.979v363.507l12.023 9.958c41.612 34.471 65.478 85.188 65.478 139.148 0 99.58-81.013 180.593-180.591 180.593zM714.085 235.73h39.843c9.042 0 16.364-7.328 16.364-16.364 0-9.037-7.322-16.364-16.364-16.364h-39.843c-9.037 0-16.364 7.328-16.364 16.364-0.001 9.036 7.327 16.364 16.364 16.364zM753.927 253.234h-39.843c-9.037 0-16.364 7.328-16.364 16.364s7.328 16.364 16.364 16.364h39.843c9.042 0 16.364-7.328 16.364-16.364 0.001-9.042-7.321-16.364-16.364-16.364z" fill="#f4ea2a" p-id="56040"></path><path d="M753.927 303.46h-39.843c-9.037 0-16.364 7.328-16.364 16.364 0 9.043 7.328 16.364 16.364 16.364h39.843c9.042 0 16.364-7.322 16.364-16.364 0.001-9.036-7.321-16.364-16.364-16.364zM753.927 353.692h-39.843c-9.037 0-16.364 7.328-16.364 16.364 0 9.042 7.328 16.364 16.364 16.364h39.843c9.042 0 16.364-7.322 16.364-16.364 0.001-9.036-7.321-16.364-16.364-16.364zM753.927 403.925h-39.843c-9.037 0-16.364 7.327-16.364 16.365 0 9.037 7.328 16.364 16.364 16.364h39.843c9.042 0 16.364-7.327 16.364-16.364 0.001-9.04-7.321-16.365-16.364-16.365zM753.927 454.155h-39.843c-9.037 0-16.364 7.327-16.364 16.365 0 9.037 7.328 16.364 16.364 16.364h39.843c9.042 0 16.364-7.327 16.364-16.364 0.001-9.039-7.321-16.365-16.364-16.365z" fill="#f4ea2a" p-id="56041"></path></svg>