<?xml version="1.0" encoding="utf-8"?>
<svg x="0pt" y="0pt" width="1024pt" height="1024pt" viewBox="0 0 1024 1024" xmlns="http://www.w3.org/2000/svg" xmlns:xlink="http://www.w3.org/1999/xlink">
  <g id="1">
    <title>Layer 1</title>
    <clipPath id="3">
      <use xlink:href="#2"/>
      <path id="2" d="M0,0 C0,0,1024,0,1024,0 C1024,0,1024,1024,1024,1024 C1024,1024,0,1024,0,1024 C0,1024,0,0,0,0 z"/>
    </clipPath>
    <g id="4" style="clip-path:url(#3);">
      <title>ClipGroup</title>
      <defs>
        <title>Shape 25</title>
        <g id="5">
          <defs>
            <path id="6" d="M904.64,503.008 C904.64,493.568,904.64,484.128,904.64,474.688 C904.589,433.464,871.182,400.054,829.955,400 C804.003,400,778.051,400,752.099,400 C710.872,400.053,677.464,433.461,677.411,474.688 C677.411,479.157,677.411,483.627,677.411,488.096 C660.237,488.096,643.064,488.096,625.891,488.096 C625.891,483.627,625.891,479.157,625.891,474.688 C625.839,433.464,592.433,400.054,551.206,400 C525.254,400,499.302,400,473.35,400 C432.122,400.053,398.714,433.461,398.662,474.688 C398.662,479.157,398.662,483.627,398.662,488.096 C381.478,488.096,364.294,488.096,347.11,488.096 C347.11,483.627,347.11,479.157,347.11,474.688 C347.058,433.462,313.648,400.051,272.419,400 C272.419,400,194.56,400,194.56,400 C153.333,400.053,119.925,433.461,119.872,474.688 C119.872,483.979,119.872,493.269,119.872,502.56 C98.3219,517.526,85.4516,542.083,85.408,568.32 C85.408,585.813,85.408,603.307,85.408,620.8 C85.408,647.03,98.2822,671.607,119.859,686.551 C119.859,751.852,119.859,817.154,119.859,882.455 C119.882,902.255,127.76,921.239,141.765,935.237 C155.77,949.236,174.757,957.106,194.559,957.12 C220.511,957.12,246.463,957.12,272.415,957.12 C292.215,957.112,311.202,949.244,325.206,935.246 C339.21,921.248,347.086,902.264,347.103,882.464 C347.103,821.995,347.103,761.525,347.103,701.056 C364.287,701.056,381.471,701.056,398.655,701.056 C398.655,761.525,398.655,821.995,398.655,882.464 C398.679,902.259,406.557,921.238,420.558,935.235 C434.56,949.232,453.542,957.102,473.34,957.12 C499.292,957.12,525.244,957.12,551.196,957.12 C570.996,957.112,589.984,949.244,603.987,935.246 C617.991,921.249,625.867,902.264,625.884,882.464 C625.884,821.995,625.884,761.526,625.884,701.056 C643.057,701.056,660.23,701.056,677.404,701.056 C677.404,761.526,677.404,821.995,677.404,882.464 C677.428,902.259,685.306,921.238,699.307,935.235 C713.309,949.232,732.291,957.102,752.089,957.12 C778.041,957.12,803.993,957.12,829.945,957.12 C849.745,957.112,868.733,949.245,882.737,935.246 C896.74,921.249,904.616,902.265,904.633,882.464 C904.633,817.056,904.633,751.648,904.633,686.24 C925.916,671.237,938.598,646.84,938.649,620.8 C938.649,603.307,938.649,585.814,938.649,568.32 C938.649,541.312,925.145,517.472,904.633,502.976 z M291.296,882.496 C291.296,892.736,282.624,901.376,272.352,901.376 C272.352,901.376,194.496,901.376,194.496,901.376 C184.102,901.273,175.691,892.89,175.552,882.496 C175.552,882.496,175.552,474.72,175.552,474.72 C175.69,464.315,184.091,455.914,194.496,455.776 C220.448,455.776,246.4,455.776,272.352,455.776 C282.757,455.914,291.158,464.315,291.296,474.72 C291.296,610.645,291.296,746.571,291.296,882.496 z M347.072,645.344 C347.072,611.52,347.072,577.696,347.072,543.872 C364.256,543.872,381.44,543.872,398.624,543.872 C398.624,577.696,398.624,611.52,398.624,645.344 C381.44,645.344,364.256,645.344,347.072,645.344 z M570.112,882.496 C570.112,892.736,561.44,901.376,551.168,901.376 C525.216,901.376,499.264,901.376,473.312,901.376 C462.917,901.273,454.506,892.89,454.368,882.496 C454.368,882.496,454.368,474.72,454.368,474.72 C454.506,464.315,462.907,455.914,473.312,455.776 C499.264,455.776,525.216,455.776,551.168,455.776 C561.573,455.914,569.974,464.315,570.112,474.72 C570.112,610.645,570.112,746.571,570.112,882.496 z M625.856,645.344 C625.856,611.52,625.856,577.696,625.856,543.872 C643.029,543.872,660.203,543.872,677.376,543.872 C677.376,577.696,677.376,611.52,677.376,645.344 C660.203,645.344,643.029,645.344,625.856,645.344 z M848.864,882.496 C848.864,892.736,840.224,901.376,829.92,901.376 C803.968,901.376,778.016,901.376,752.064,901.376 C741.669,901.273,733.259,892.89,733.12,882.496 C733.12,882.496,733.12,474.72,733.12,474.72 C733.12,464.416,741.76,455.776,752.064,455.776 C778.016,455.776,803.968,455.776,829.92,455.776 C840.325,455.914,848.726,464.315,848.864,474.72 C848.864,610.645,848.864,746.571,848.864,882.496 z M770.528,373.504 C781.494,373.446,791.415,366.985,795.902,356.978 C800.388,346.971,798.613,335.266,791.36,327.04 C773.664,307.232,765.824,289.024,767.936,273.088 C770.88,251.04,792.32,236.896,796.64,233.504 C831.552,200.832,846.304,168.16,840.512,136.384 C832.288,91.36,786.4,71.168,781.152,68.992 C767.022,63.131,750.813,69.7977,744.896,83.904 C739,98.052,745.575,114.311,759.648,120.384 C765.632,123.008,783.392,133.408,785.664,146.528 C787.68,158.112,778.048,174.56,762.784,189.6 C758.368,192.384,719.488,217.856,712.736,264.832 C708,297.888,720.416,331.296,749.6,364.192 C754.922,370.111,762.504,373.496,770.464,373.504 z M513.824,373.504 C524.823,373.515,534.802,367.064,539.307,357.03 C543.812,346.997,542.004,335.253,534.688,327.04 C516.992,307.232,509.152,289.024,511.264,273.088 C514.208,251.04,535.648,236.896,539.968,233.504 C574.88,200.832,589.632,168.16,583.84,136.384 C575.616,91.36,529.728,71.168,524.48,68.992 C515.3,65.1506,504.767,66.4987,496.851,72.5285 C488.934,78.5582,484.835,88.3534,486.099,98.2244 C487.362,108.095,493.796,116.543,502.976,120.384 C508.96,123.008,526.72,133.408,528.992,146.528 C531.008,158.112,521.376,174.56,506.112,189.6 C501.696,192.384,462.816,217.856,456.064,264.832 C451.328,297.888,463.744,331.296,492.928,364.192 C498.25,370.111,505.832,373.496,513.792,373.504 z M248.352,373.504 C259.351,373.515,269.329,367.064,273.835,357.03 C278.34,346.997,276.532,335.253,269.216,327.04 C251.52,307.232,243.68,289.024,245.792,273.088 C248.736,251.04,270.176,236.896,274.496,233.504 C309.408,200.832,324.16,168.16,318.368,136.384 C310.144,91.36,264.256,71.168,259.008,68.992 C244.878,63.1499,228.683,69.8111,222.752,83.904 C216.856,98.052,223.431,114.311,237.504,120.384 C243.488,123.008,261.248,133.408,263.52,146.528 C265.536,158.112,255.904,174.56,240.64,189.6 C236.224,192.384,197.344,217.856,190.592,264.832 C185.856,297.888,198.272,331.296,227.456,364.192 C232.778,370.111,240.36,373.496,248.32,373.504 z"/>
          </defs>
          <use xlink:href="#6" style="fill:#f4ea2a;fill-opacity:1;fill-rule:evenodd;opacity:1;stroke:none;"/>
        </g>
      </defs>
      <use xlink:href="#5"/>
    </g>
    <clipPath id="8">
      <use xlink:href="#7"/>
      <path id="7" d="M0,0 C0,0,1024,0,1024,0 C1024,0,1024,1024,1024,1024 C1024,1024,0,1024,0,1024 C0,1024,0,0,0,0 z"/>
    </clipPath>
    <g id="9" style="clip-path:url(#8);"/>
  </g>
</svg>
