<?xml version="1.0" standalone="no"?><!DOCTYPE svg PUBLIC "-//W3C//DTD SVG 1.1//EN" "http://www.w3.org/Graphics/SVG/1.1/DTD/svg11.dtd"><svg class="icon" width="200px" height="200.00px" viewBox="0 0 1024 1024" version="1.1" xmlns="http://www.w3.org/2000/svg"><path d="M596.880896 817.5616c23.8592-45.8752 39.7312-109.568 32.9728-197.3248 0 0 144.7936 105.6768 13.1072 303.7184 0 0 209.6128 55.0912 267.776-202.4448 52.5312-233.3696-96.5632-369.7664-206.336-382.976 0 0 83.456 74.752 43.8272 158.4128 0 0-171.008-101.1712-166.7072-330.0352 0 0-32.768 20.8896-62.976 61.0304v381.8496c50.176 55.296 78.336 128 78.336 205.5168v2.2528zM428.637696 650.24V128C428.637696 57.344 373.136896 0 304.733696 0 236.228096 0 180.829696 57.344 180.624896 128V650.24C131.268096 689.8688 102.391296 750.6944 102.391296 815.2064 102.391296 930.5088 193.117696 1024 304.631296 1024c111.616 0 202.3424-93.5936 202.3424-208.6912 0-64.8192-28.9792-125.5424-78.336-164.9664z m-123.904 323.584c-84.7872 0-153.7024-71.168-153.7024-158.72 0-52.6336 25.2928-101.7856 67.584-131.3792a25.2928 25.2928 0 0 0 10.6496-20.6848V128c0-43.008 33.792-77.824 75.3664-77.824 41.6768 0 75.3664 34.816 75.4688 77.824v535.1424c0 8.2944 3.9936 16.0768 10.6496 20.6848 42.2912 29.4912 67.584 78.848 67.584 131.4816 0 87.4496-68.9152 158.5152-153.6 158.5152z m28.5696-836.3008a26.112 26.112 0 0 0-25.6-26.4192 25.088 25.088 0 0 0-18.1248 7.7824 26.7264 26.7264 0 0 0-7.4752 18.6368V708.608c-48.128 14.336-78.336 63.1808-70.656 114.176a100.5568 100.5568 0 0 0 100.5568 87.2448 100.864 100.864 0 0 0 96.768-91.7504 102.6048 102.6048 0 0 0-75.5712-110.8992V137.6256z" fill="#d81e06" /></svg>