<?xml version="1.0" encoding="utf-8"?>
<svg x="0pt" y="0pt" width="1024pt" height="1024pt" viewBox="0 0 1024 1024" xmlns="http://www.w3.org/2000/svg" xmlns:xlink="http://www.w3.org/1999/xlink">
  <g id="1">
    <title>Layer 1</title>
    <clipPath id="3">
      <use xlink:href="#2"/>
      <path id="2" d="M0,0 C0,0,1024,0,1024,0 C1024,0,1024,1024,1024,1024 C1024,1024,0,1024,0,1024 C0,1024,0,0,0,0 z"/>
    </clipPath>
    <g id="4" style="clip-path:url(#3);">
      <title>ClipGroup</title>
      <defs>
        <title>Shape 38</title>
        <g id="5">
          <defs>
            <path id="6" d="M1008.99,440.714 C989.927,307.988,920.31,190.599,812.979,110.189 C705.67,29.8031,573.441,-3.99904,440.751,15.0497 C332.195,30.6412,233.938,80.0639,157.744,156.266 C140.754,173.259,124.888,191.564,110.254,211.169 C29.7959,318.507,-3.98098,450.779,15.0605,583.484 C25.432,655.279,50.3836,722.327,89.3083,782.898 C100.009,799.53,122.218,804.349,138.875,793.627 C155.432,783.006,160.298,760.739,149.605,744.053 C116.254,692.246,94.9041,634.782,86.0606,573.286 C52.309,338.39,215.941,119.823,450.938,86.151 C564.663,69.7935,677.984,98.7297,769.976,167.653 C861.994,236.554,921.658,337.151,937.994,450.913 C971.687,685.859,807.99,904.401,573.239,938.069 C474.752,952.223,373.804,931.61,288.982,880.049 C272.047,869.757,250.086,875.291,239.722,892.097 C229.452,909.01,234.831,931.072,251.763,941.368 C350.781,1001.49,468.563,1025.56,583.43,1009.08 C857.359,969.693,1048.34,714.791,1008.99,440.714 z"/>
          </defs>
          <use xlink:href="#6" style="fill:#e6e6e6;fill-opacity:1;fill-rule:evenodd;opacity:1;stroke:none;"/>
        </g>
      </defs>
      <use xlink:href="#5"/>
      <defs>
        <title>Shape 39</title>
        <g id="7">
          <defs>
            <path id="8" d="M462.111,794.144 C462.111,823.838,486.21,847.937,515.898,847.937 C545.593,847.937,569.692,823.838,569.692,794.144 C569.692,764.453,545.593,740.35,515.898,740.35 C486.21,740.35,462.111,764.453,462.111,794.144 z"/>
          </defs>
          <use xlink:href="#8" style="fill:#e6e6e6;fill-opacity:1;fill-rule:evenodd;opacity:1;stroke:none;"/>
        </g>
      </defs>
      <use xlink:href="#7"/>
      <defs>
        <title>Shape 40</title>
        <g id="9">
          <defs>
            <path id="10" d="M615.162,481.272 C654.499,441.935,695.197,401.266,695.197,347.617 C695.197,248.28,614.768,167.476,515.898,167.476 C417.038,167.476,336.598,247.2,336.598,345.178 C336.598,364.971,352.663,381.036,372.463,381.036 C392.256,381.036,408.325,364.971,408.325,345.178 C408.325,285.749,455.583,239.202,515.901,239.202 C575.211,239.202,623.478,287.826,623.478,347.613 C623.478,371.531,593.465,401.515,564.453,430.527 C524.868,470.081,480.04,514.908,480.04,573.582 C480.04,593.798,480.04,614.013,480.04,634.229 C480.04,654.022,496.105,670.09,515.898,670.09 C535.691,670.09,551.756,654.022,551.756,634.229 C551.756,614.013,551.756,593.798,551.756,573.582 C551.759,544.65,583.961,512.444,615.162,481.272 z"/>
          </defs>
          <use xlink:href="#10" style="fill:#e6e6e6;fill-opacity:1;fill-rule:evenodd;opacity:1;stroke:none;"/>
        </g>
      </defs>
      <use xlink:href="#9"/>
    </g>
    <clipPath id="12">
      <use xlink:href="#11"/>
      <path id="11" d="M0,0 C0,0,1024,0,1024,0 C1024,0,1024,1024,1024,1024 C1024,1024,0,1024,0,1024 C0,1024,0,0,0,0 z"/>
    </clipPath>
    <g id="13" style="clip-path:url(#12);"/>
  </g>
</svg>
