<?xml version="1.0" encoding="UTF-8" standalone="no"?> <!-- Created with Vectornator for iOS (http://vectornator.io/) --><!DOCTYPE svg PUBLIC "-//W3C//DTD SVG 1.1//EN" "http://www.w3.org/Graphics/SVG/1.1/DTD/svg11.dtd">
<svg style="fill-rule:evenodd;clip-rule:evenodd;stroke-linecap:round;stroke-linejoin:round;" xmlns:vectornator="http://vectornator.io" xmlns:xlink="http://www.w3.org/1999/xlink" xmlns="http://www.w3.org/2000/svg" xml:space="preserve" version="1.1" viewBox="0 0 1024 1024">
<metadata>
<vectornator:setting key="DynamicGuides" value="1"/>
<vectornator:setting key="Units" value="Points"/>
<vectornator:setting key="GuidesVisible" value="1"/>
<vectornator:setting key="RulersVisible" value="1"/>
<vectornator:setting key="SnapToGuides" value="1"/>
<vectornator:setting key="GridSpacing" value="36"/>
</metadata>
<defs>
<path d="M0+0L1024+0L1024+1024L0+1024L0+0Z" id="Mask"/>
</defs>
<g id="Untitled" vectornator:layerName="Untitled">
<g opacity="1" vectornator:mask="#Mask">
<clipPath id="ClipPath">
<use xlink:href="#Mask" fill="none" overflow="visible"/>
</clipPath>
<g clip-path="url(#ClipPath)">
<g opacity="1">
<path d="M1008.99+440.714C989.927+307.988+920.31+190.599+812.979+110.189C705.67+29.8031+573.441-3.99902+440.751+15.05C332.195+30.6412+233.938+80.0639+157.744+156.266C140.754+173.259+124.888+191.564+110.254+211.169C29.7959+318.507-3.98098+450.779+15.0605+583.484C25.432+655.279+50.3836+722.327+89.3083+782.898C100.009+799.53+122.218+804.349+138.875+793.627C155.432+783.006+160.298+760.739+149.605+744.053C116.254+692.246+94.9041+634.782+86.0606+573.286C52.309+338.39+215.941+119.823+450.938+86.151C564.663+69.7935+677.984+98.7297+769.976+167.653C861.994+236.554+921.658+337.151+937.994+450.913C971.687+685.859+807.99+904.401+573.239+938.069C474.752+952.223+373.804+931.61+288.982+880.049C272.047+869.757+250.086+875.291+239.722+892.097C229.452+909.01+234.831+931.072+251.763+941.368C350.781+1001.49+468.563+1025.56+583.43+1009.08C857.359+969.693+1048.34+714.791+1008.99+440.714Z" opacity="1" fill="#e6e6e6"/>
<path d="M462.111+794.144C462.111+823.838+486.21+847.937+515.898+847.937C545.593+847.937+569.692+823.838+569.692+794.144C569.692+764.453+545.593+740.35+515.898+740.35C486.21+740.35+462.111+764.453+462.111+794.144Z" opacity="1" fill="#e6e6e6"/>
<path d="M615.162+481.272C654.499+441.935+695.197+401.266+695.197+347.617C695.197+248.28+614.768+167.476+515.898+167.476C417.038+167.476+336.598+247.2+336.598+345.178C336.598+364.971+352.663+381.036+372.463+381.036C392.256+381.036+408.325+364.971+408.325+345.178C408.325+285.749+455.583+239.202+515.901+239.202C575.211+239.202+623.478+287.826+623.478+347.613C623.478+371.531+593.465+401.515+564.453+430.527C524.868+470.081+480.04+514.908+480.04+573.582C480.04+593.798+480.04+614.013+480.04+634.229C480.04+654.022+496.105+670.09+515.898+670.09C535.691+670.09+551.756+654.022+551.756+634.229C551.756+614.013+551.756+593.798+551.756+573.582C551.759+544.65+583.961+512.444+615.162+481.272Z" opacity="1" fill="#e6e6e6"/>
</g>
</g>
</g>
</g>
</svg>
