<?xml version="1.0" standalone="no"?><!DOCTYPE svg PUBLIC "-//W3C//DTD SVG 1.1//EN" "http://www.w3.org/Graphics/SVG/1.1/DTD/svg11.dtd"><svg class="icon" width="200px" height="200.00px" viewBox="0 0 1024 1024" version="1.1" xmlns="http://www.w3.org/2000/svg"><path d="M552.625521 179.441349v278.13409a26.916202 26.916202 0 0 1-53.832404 0V53.832405a53.832405 53.832405 0 1 0-107.664809 0v403.743034a26.916202 26.916202 0 0 1-53.832405 0v-322.994428a44.860337 44.860337 0 1 0-89.720674 0v358.882698a26.916202 26.916202 0 0 1-53.832405 0V269.162023a44.860337 44.860337 0 0 0-44.860337-44.860337h-0.179441a44.860337 44.860337 0 0 0-44.860338 44.860337v486.78849c15.001297 216.765149 133.863246 268.049487 301.640907 268.049487 119.633547 0 222.794378-61.171556 272.338135-149.85147 20.833141-33.627309 147.034241-230.13353 157.872499-250.66162 12.632671-23.937476 31.133074-52.755756 54.460449-71.812428 12.435285-10.15638 20.707532-23.65037 28.369677-37.772404 1.955911-3.624715 7.644201-47.480181-24.960291-47.354572-28.279957 0.107665-60.561455 12.02257-83.978551 27.849298-26.252269 17.746749-60.328181 48.377388-89.433569 99.24901-9.456559 16.544492-26.395822 28.064627-45.434549 28.495286-17.962079 0.412715-13.314548-8.397855-14.427085-45.506326V179.441349a53.832405 53.832405 0 1 0-107.664809 0z" fill="#F7B563" /></svg>