<?xml version="1.0" standalone="no"?><!DOCTYPE svg PUBLIC "-//W3C//DTD SVG 1.1//EN" "http://www.w3.org/Graphics/SVG/1.1/DTD/svg11.dtd"><svg class="icon" width="200px" height="200.00px" viewBox="0 0 1024 1024" version="1.1" xmlns="http://www.w3.org/2000/svg"><path d="M768 388.3L513.6 217.8 256 388.7V864c0 17.7-14.3 32-32 32h-64c-17.7 0-32-14.3-32-32V337.2c0-10.7 5.4-20.7 14.3-26.7L491.8 78.7c13.5-8.9 31-8.9 44.4 0.1l345.7 231.6c8.9 5.9 14.2 15.9 14.2 26.6v527c0 17.7-14.3 32-32 32h-64c-17.7 0-32-14.3-32-32V388.3zM416 768h192c17.7 0 32 14.3 32 32v64c0 17.7-14.3 32-32 32H416c-17.7 0-32-14.3-32-32v-64c0-17.7 14.3-32 32-32z" fill="#1296db" /></svg>