<?xml version="1.0" standalone="no"?><!DOCTYPE svg PUBLIC "-//W3C//DTD SVG 1.1//EN" "http://www.w3.org/Graphics/SVG/1.1/DTD/svg11.dtd"><svg class="icon" width="200px" height="200.00px" viewBox="0 0 1024 1024" version="1.1" xmlns="http://www.w3.org/2000/svg"><path d="M940 524.3c12.5 12.1 18.8 25.1 19.7 39.4 0.4 14.3-4 26-14.3 35.8-11.2 10.3-24.2 14.8-39.4 14.3-14.8-0.4-26.8-4.9-35.8-12.5-3.1-2.2-12.1-10.7-27.3-25.1-15.2-14.3-33.1-31.3-54.6-51.5-22.8-21.5-45.2-43-67.6-64-22.8-21.5-45.6-43-68-64.4-21.5-20.1-39.8-37.6-55-52.8-15.7-14.8-25.1-24.2-29.5-27.7-18.8-17.5-37.6-25.5-55.9-25.1-18.3 0.4-36.7 8.9-54.6 25.1-5.8 5.4-17 15.7-33.6 30.9s-35.4 32.7-56.4 53.3c-22.4 21-45.2 42.5-67.6 63.1-23.7 21.9-45.6 42.5-65.8 61.3-20.1 18.8-37.6 35.4-52.4 48.8-14.8 13.4-23.3 21-26.4 23.7-8.9 7.2-20.6 11.2-35.8 11.6-14.8 0.4-27.7-4-38.5-13.4-12.1-10.7-17.5-23.7-17-38.9 0.4-15.2 5.8-27.3 15.2-36.2 3.6-3.6 14.8-13.9 33.1-31.3 21.9-20.6 43.9-41.2 65.8-61.3 25.5-23.7 53.3-49.2 82.3-76.5l81.9-76.5c25.1-23.7 47-44.3 64.9-60.9s28.6-26.8 31.8-30c22.4-21.9 47-33.1 72.9-33.6 26-0.4 48.3 8.5 66.7 26.4 3.6 3.1 11.2 9.8 22.4 21l41.6 40.3c16.6 15.7 34.5 33.6 54.6 53.3 20.6 19.7 40.7 39.4 61.3 59.1 20.6 19.7 40.7 39.4 60.9 59.1 19.7 19.7 38 37.1 54.6 53.3 16.6 15.7 30.4 29.1 42.1 40.7l23.7 21.2zM457.6 395c14.8-13.9 32.7-21 53.7-21.9 20.6-0.9 39.4 6.3 55.9 21.9 1.8 1.8 7.2 6.7 16.1 15.2l34 31.3c14.8 13.9 29.5 27.7 44.3 42.1 16.6 15.7 33.6 31.3 50.6 46.5 39.8 36.7 84.6 78.3 133.8 124v169.1c0 13-4.9 24.6-14.8 34.9-9.8 10.3-22.8 15.7-39.8 16.1H623.2V736c0-19.7-9.4-29.5-27.7-29.5h-170c-10.3 0-17 3.1-21 8.9-4 5.8-5.8 13-5.8 20.6 0 3.6 0 12.5-0.4 27.3s-0.4 30-0.4 47v63.5H234.3c-17.5 0-30.9-4-41.2-11.6-10.3-7.6-15.2-18.8-15.2-33.1V651.8c44.3-40.3 88.6-81 132.9-121.3 16.6-15.2 33.1-30.9 50.1-46.1l45.6-41.6c13.9-12.5 25.1-22.8 34.5-31.8 8.6-8 14.4-13.3 16.6-16z" fill="#e6e6e6" /></svg>