<?xml version="1.0" standalone="no"?><!DOCTYPE svg PUBLIC "-//W3C//DTD SVG 1.1//EN" "http://www.w3.org/Graphics/SVG/1.1/DTD/svg11.dtd"><svg class="icon" width="200px" height="200.00px" viewBox="0 0 1024 1024" version="1.1" xmlns="http://www.w3.org/2000/svg"><path d="M416.45485 121.979v122.859a51.14 51.14 0 0 0 15.118 36.301c8.858 8.792 20.81 14.052 33.269 14.77 11.338 0.652 279.292 18.116 420.755 202.483 63.589 82.877 92.486 188.426 86.411 314.9-65.667-114.232-190.171-265.054-389.807-265.068-41.894-0.002-85.408 6.942-129.331 20.64-21.366 6.663-35.918 26.445-35.918 48.825V740.99S55.60585 435.363 52.83185 432.14c2.033-2.332 363.623-310.161 363.623-310.161m16.788-64.462c-17.141 0.002-33.759 11.701-33.759 11.701L35.77985 379.734c-80.424 56.44-0.142 104.352-0.142 104.352l355.444 302.037c17.61 13.15 31.213 18.108 41.719 18.108 32.259 0 35.295-46.768 35.295-46.768V617.688c40.69-12.689 78.679-18.322 114.102-18.321 281.198 0.02 399.293 355.193 399.293 355.193 4.449 8.606 8.528 11.473 11.992 11.473 6.925 0 11.383-11.473 11.383-11.473 140.318-677.203-537.2-709.656-537.267-709.723V94.017c-5.892-28.635-20.299-36.501-34.356-36.5z" fill="#ffffff" /></svg>