<?xml version="1.0" encoding="UTF-8" standalone="no"?> <!-- Created with Vectornator for iOS (http://vectornator.io/) --><!DOCTYPE svg PUBLIC "-//W3C//DTD SVG 1.1//EN" "http://www.w3.org/Graphics/SVG/1.1/DTD/svg11.dtd">
<svg style="fill-rule:evenodd;clip-rule:evenodd;stroke-linecap:round;stroke-linejoin:round;" xmlns:vectornator="http://vectornator.io" xmlns:xlink="http://www.w3.org/1999/xlink" xmlns="http://www.w3.org/2000/svg" xml:space="preserve" version="1.1" viewBox="0 0 1024 1024">
<metadata>
<vectornator:setting key="DynamicGuides" value="1"/>
<vectornator:setting key="Units" value="Points"/>
<vectornator:setting key="GuidesVisible" value="1"/>
<vectornator:setting key="RulersVisible" value="1"/>
<vectornator:setting key="SnapToGuides" value="1"/>
<vectornator:setting key="GridSpacing" value="36"/>
</metadata>
<defs>
<path d="M0+0L1024+0L1024+1024L0+1024L0+0Z" id="Mask"/>
</defs>
<g id="Untitled" vectornator:layerName="Untitled">
<g opacity="1" vectornator:mask="#Mask">
<clipPath id="ClipPath">
<use xlink:href="#Mask" fill="none" overflow="visible"/>
</clipPath>
<g clip-path="url(#ClipPath)">
<path d="M610.609+507.115C742.774+639.28+874.939+771.445+1007.1+903.611C1011.68+908.183+1014.25+914.389+1014.25+920.86C1014.25+927.33+1011.68+933.536+1007.1+938.109C984.122+961.091+961.14+984.073+938.157+1007.06C933.584+1011.63+927.379+1014.21+920.908+1014.21C914.438+1014.21+908.232+1011.63+903.659+1007.06L507.188+610.56L110.669+1007.06C106.096+1011.63+99.8905+1014.21+93.4198+1014.21C86.9491+1014.21+80.7438+1011.63+76.1708+1007.06L7.22361+938.109C2.64557+933.536+0.0732231+927.33+0.0732231+920.86C0.0732231+914.389+2.64557+908.183+7.22361+903.611L403.719+507.14L7.22361+110.62C2.64557+106.047+0.0732231+99.8418+0.0732231+93.3711C0.0732231+86.9003+2.64557+80.695+7.22361+76.1221L76.1464+7.17499C80.7194+2.59698+86.9247+0.0239868+93.3954+0.0239868C99.8662+0.0239868+106.071+2.59698+110.644+7.17499C242.81+139.34+374.975+271.505+507.14+403.67L903.659+7.17499C908.232+2.59698+914.438+0.0239868+920.908+0.0239868C927.379+0.0239868+933.584+2.59698+938.157+7.17499C961.14+30.1573+984.122+53.1397+1007.1+76.1221C1011.68+80.695+1014.25+86.9003+1014.25+93.3711C1014.25+99.8418+1011.68+106.047+1007.1+110.62L610.609+507.115Z" opacity="1" fill="#d81e06"/>
</g>
</g>
</g>
</svg>
