<?xml version="1.0" encoding="utf-8"?>
<svg x="0pt" y="0pt" width="1024pt" height="1024pt" viewBox="0 0 1024 1024" xmlns="http://www.w3.org/2000/svg" xmlns:xlink="http://www.w3.org/1999/xlink">
  <g id="1">
    <title>Layer 1</title>
    <clipPath id="3">
      <use xlink:href="#2"/>
      <path id="2" d="M0,0 C0,0,1024,0,1024,0 C1024,0,1024,1024,1024,1024 C1024,1024,0,1024,0,1024 C0,1024,0,0,0,0 z"/>
    </clipPath>
    <g id="4" style="clip-path:url(#3);">
      <title>ClipGroup</title>
      <defs>
        <title>Shape 42</title>
        <g id="5">
          <defs>
            <path id="6" d="M610.609,507.115 C742.774,639.28,874.939,771.445,1007.1,903.611 C1011.68,908.183,1014.25,914.389,1014.25,920.86 C1014.25,927.33,1011.68,933.536,1007.1,938.109 C984.122,961.091,961.14,984.073,938.157,1007.06 C933.584,1011.63,927.379,1014.21,920.908,1014.21 C914.438,1014.21,908.232,1011.63,903.659,1007.06 C903.659,1007.06,507.188,610.56,507.188,610.56 C507.188,610.56,110.669,1007.06,110.669,1007.06 C106.096,1011.63,99.8905,1014.21,93.4198,1014.21 C86.9491,1014.21,80.7438,1011.63,76.1708,1007.06 C76.1708,1007.06,7.22361,938.109,7.22361,938.109 C2.64557,933.536,0.0732231,927.33,0.0732231,920.86 C0.0732231,914.389,2.64557,908.183,7.22361,903.611 C7.22361,903.611,403.719,507.14,403.719,507.14 C403.719,507.14,7.22361,110.62,7.22361,110.62 C2.64557,106.047,0.0732231,99.8418,0.0732231,93.3711 C0.0732231,86.9003,2.64557,80.695,7.22361,76.1221 C7.22361,76.1221,76.1464,7.17485,76.1464,7.17485 C80.7194,2.59681,86.9247,0.0244598,93.3954,0.0244598 C99.8662,0.0244598,106.071,2.5968,110.644,7.17485 C242.81,139.34,374.975,271.505,507.14,403.67 C507.14,403.67,903.659,7.17485,903.659,7.17485 C908.232,2.59681,914.438,0.0244617,920.908,0.0244617 C927.379,0.0244617,933.584,2.59681,938.157,7.17485 C961.14,30.1573,984.122,53.1397,1007.1,76.1221 C1011.68,80.695,1014.25,86.9003,1014.25,93.3711 C1014.25,99.8418,1011.68,106.047,1007.1,110.62 C1007.1,110.62,610.609,507.115,610.609,507.115 z"/>
          </defs>
          <use xlink:href="#6" style="fill:#d81e06;fill-opacity:1;fill-rule:evenodd;opacity:1;stroke:none;"/>
        </g>
      </defs>
      <use xlink:href="#5"/>
    </g>
    <clipPath id="8">
      <use xlink:href="#7"/>
      <path id="7" d="M0,0 C0,0,1024,0,1024,0 C1024,0,1024,1024,1024,1024 C1024,1024,0,1024,0,1024 C0,1024,0,0,0,0 z"/>
    </clipPath>
    <g id="9" style="clip-path:url(#8);"/>
  </g>
</svg>
