<svg width="799.9986430666081" height="599.9989822999562" xmlns="http://www.w3.org/2000/svg" class="icon">

 <g>
  <title>background</title>
  <rect height="602" width="802" y="-1" x="-1" fill="none" id="canvas_background"/>
 </g>
 <g>
  <title>Layer 1</title>
  <path d="m297.169861,570.624695c-36.244873,-75.071045 -16.948364,-118.134399 10.822266,-158.608826c30.359619,-44.244904 38.35968,-88.248962 38.35968,-88.248962s23.766876,31.067017 14.359436,79.541504c42.12262,-47.067139 50.122681,-121.664124 43.770844,-150.375565c95.541595,66.596939 136.256805,210.861404 81.189606,317.699417c292.517639,-165.201538 72.723022,-412.300278 34.589172,-440.304245c12.703735,28.003967 15.059387,75.071106 -10.588989,97.897247c-43.529907,-164.97583 -151.316223,-198.857529 -151.316223,-198.857529c12.711304,85.185959 -46.359741,178.146194 -103.075073,247.806152c-2.114792,-33.889236 -4.237106,-57.422806 -22.118698,-89.897171c-4.003784,61.659912 -51.304199,112.015884 -64.007996,173.675766c-17.181702,83.771088 12.94458,144.956879 128.015976,209.672333l0,-0.000122zm0,0.000122" fill="#f4ea2a" id="svg_1"/>
 </g>
</svg>