<?xml version="1.0" standalone="no"?><!DOCTYPE svg PUBLIC "-//W3C//DTD SVG 1.1//EN" "http://www.w3.org/Graphics/SVG/1.1/DTD/svg11.dtd"><svg class="icon" width="200px" height="200.00px" viewBox="0 0 1024 1024" version="1.1" xmlns="http://www.w3.org/2000/svg"><path d="M250.215762 541.679973c12.342096 69.563332-3.207042 133.357264-44.125987 191.724603-9.17701 13.091156-20.339234 24.928762-31.03483 37.882795 2.837628-1.24741 5.27105-2.213411 7.609305-3.350304 29.471219-14.287401 56.282864-32.099069 78.603219-55.411008 72.751954-75.978439 95.197152-163.326832 64.524572-262.181281-7.212262-23.240307-19.923772-44.042075-33.368992-64.665788-30.227442-46.362934-43.982724-97.150644-40.746006-151.795195 3.331885-56.293097 23.867594-106.061594 63.040778-148.699694 1.019213-1.112334 1.825578-2.399653 4.027734-5.330402-4.207835 1.620917-6.459109 2.316765-8.549724 3.319605-86.803995 41.557488-133.910872 109.201098-142.754284 200.232371-5.724375 58.947554 9.908674 113.883747 43.729967 163.739225 19.747763 29.107945 32.984229 60.379159 39.044248 94.535073zM526.789844 541.679973c12.342096 69.563332-3.207042 133.357264-44.125986 191.724603-9.17701 13.091156-20.339234 24.928762-31.03483 37.882795 2.837628-1.24741 5.27105-2.213411 7.609304-3.350304 29.471219-14.287401 56.282864-32.099069 78.603219-55.411008 72.751954-75.978439 95.197152-163.326832 64.524573-262.181281-7.212262-23.240307-19.923772-44.042075-33.368992-64.665788-30.227442-46.362934-43.982724-97.150644-40.746006-151.795195 3.331885-56.293097 23.867594-106.061594 63.040778-148.699694 1.019213-1.112334 1.825578-2.399653 4.027733-5.330402-4.207835 1.620917-6.459109 2.316765-8.549723 3.319605-86.803995 41.557488-133.911896 109.201098-142.755308 200.232371-5.724375 58.947554 9.908674 113.883747 43.729967 163.739225 19.747763 29.107945 32.984229 60.379159 39.045271 94.535073zM803.362904 541.679973c12.342096 69.563332-3.207042 133.357264-44.125987 191.724603-9.17701 13.091156-20.339234 24.928762-31.03483 37.882795 2.837628-1.24741 5.27105-2.213411 7.609305-3.350304 29.471219-14.287401 56.282864-32.099069 78.603219-55.411008 72.751954-75.978439 95.197152-163.326832 64.524572-262.181281-7.212262-23.240307-19.923772-44.042075-33.368992-64.665788-30.227442-46.362934-43.982724-97.150644-40.746006-151.795195 3.331885-56.293097 23.867594-106.061594 63.040779-148.699694 1.019213-1.112334 1.825578-2.399653 4.027733-5.330402-4.207835 1.620917-6.459109 2.316765-8.549724 3.319605C776.540002 124.730793 729.432101 192.374402 720.588689 283.405675c-5.724375 58.947554 9.908674 113.883747 43.729967 163.739225 19.747763 29.107945 32.984229 60.379159 39.044248 94.535073zM874.958522 840.431148H149.041478c-28.844955 0-51.90209 23.217794-51.902091 51.858088 0 28.838815 23.23826 51.857065 51.902091 51.857065h725.917044c28.847002 0 51.90209-23.217794 51.902091-51.857065 0-28.840862-23.23826-51.858088-51.902091-51.858088z" fill="#d81e06" /></svg>