<?xml version="1.0" standalone="no"?><!DOCTYPE svg PUBLIC "-//W3C//DTD SVG 1.1//EN" "http://www.w3.org/Graphics/SVG/1.1/DTD/svg11.dtd"><svg class="icon" width="200px" height="200.00px" viewBox="0 0 1024 1024" version="1.1" xmlns="http://www.w3.org/2000/svg"><path d="M564.297143 438.857143h100.937143v0.146286h74.386285c35.84 0 64.950857 28.16 64.950858 62.902857v459.117714c0 34.816-28.964571 62.976-64.877715 62.976H64.950857A63.926857 63.926857 0 0 1 0 961.097143V501.833143c0-34.742857 29.110857-62.902857 64.950857-62.902857h74.386286V438.857143h100.937143v0.146286h324.022857V438.857143z m-132.534857 299.885714c25.819429-13.165714 43.666286-39.643429 43.666285-70.656a79.652571 79.652571 0 0 0-159.085714 0c0 31.012571 17.846857 57.490286 43.666286 70.729143v101.888c0 4.681143 3.803429 8.411429 8.411428 8.411429h54.930286a8.484571 8.484571 0 0 0 8.411429-8.411429v-101.888z m178.614857-469.723428V438.857143H512V264.704C512 118.710857 626.834286 0 768.073143 0 909.238857 0 1024 118.710857 1024 264.704V438.857143h-98.230857V269.019429c0-89.965714-70.656-163.108571-157.622857-163.108572-87.04 0-157.769143 73.142857-157.769143 163.108572z" fill="#2BA638" /></svg>