<?xml version="1.0" standalone="no"?><!DOCTYPE svg PUBLIC "-//W3C//DTD SVG 1.1//EN" "http://www.w3.org/Graphics/SVG/1.1/DTD/svg11.dtd"><svg class="icon" width="200px" height="200.00px" viewBox="0 0 1024 1024" version="1.1" xmlns="http://www.w3.org/2000/svg"><path d="M546.133333 904.533333c117.828267 0 213.333333-52.5312 213.333334-117.333333S663.9616 669.866667 546.133333 669.866667 332.8 722.397867 332.8 787.2 428.305067 904.533333 546.133333 904.533333z m0-17.066666c-109.653333 0-196.266667-47.633067-196.266666-100.266667S436.48 686.933333 546.133333 686.933333s196.266667 47.633067 196.266667 100.266667S655.786667 887.466667 546.133333 887.466667z" fill="#c6e5ff" /><path d="M546.133333 716.8c188.5184 0 341.333333-84.053333 341.333334-187.733333s-152.814933-187.733333-341.333334-187.733334S204.8 425.386667 204.8 529.066667s152.814933 187.733333 341.333333 187.733333z m0-17.066667C365.789867 699.733333 221.866667 620.578133 221.866667 529.066667s143.9232-170.666667 324.266666-170.666667 324.266667 79.1552 324.266667 170.666667-143.9232 170.666667-324.266667 170.666666z" fill="#c6e5ff" /><path d="M537.6 183.466667h17.066667v716.8h-17.066667z" fill="#c6e5ff" /><path d="M210.3296 501.623467c28.672 85.879467 165.4784 150.954667 329.915733 150.954666s301.243733-65.0752 329.9328-150.954666c3.6352 10.871467 5.5296 22.084267 5.5296 33.553066 0 101.888-150.186667 184.490667-335.4624 184.490667C354.986667 719.6672 204.8 637.064533 204.8 535.176533c0-11.4688 1.8944-22.6816 5.5296-33.553066z" fill="#1875f0" /><path d="M546.133333 904.533333m-34.133333 0a34.133333 34.133333 0 1 0 68.266667 0 34.133333 34.133333 0 1 0-68.266667 0Z" fill="#1875f0" /><path d="M750.933333 802.133333m-34.133333 0a34.133333 34.133333 0 1 0 68.266667 0 34.133333 34.133333 0 1 0-68.266667 0Z" fill="#1875f0" /><path d="M341.333333 802.133333m-34.133333 0a34.133333 34.133333 0 1 0 68.266667 0 34.133333 34.133333 0 1 0-68.266667 0Z" fill="#1875f0" /><path d="M702.088533 240.810667h-21.4016a137.454933 137.454933 0 0 0-16.452266-39.901867l15.138133-15.1552a14.711467 14.711467 0 0 0 0-20.804267l-24.968533-24.968533a14.6944 14.6944 0 0 0-20.804267 0l-15.138133 15.138133a137.642667 137.642667 0 0 0-39.816534-16.469333V117.111467a14.165333 14.165333 0 0 0-4.317866-10.3936 14.165333 14.165333 0 0 0-10.427734-4.317867h-35.328a14.711467 14.711467 0 0 0-14.6944 14.711467v21.572266a137.301333 137.301333 0 0 0-39.8336 16.418134l-15.223466-15.274667a14.711467 14.711467 0 0 0-20.821334 0l-24.951466 24.9856a14.711467 14.711467 0 0 0 0 20.804267l15.291733 15.2576a137.454933 137.454933 0 0 0-16.520533 39.714133h-21.640534a14.711467 14.711467 0 0 0-14.711466 14.711467v35.310933a14.711467 14.711467 0 0 0 14.711466 14.711467h21.640534c3.328 14.0288 8.840533 27.460267 16.349866 39.765333l-15.274666 15.291733a14.711467 14.711467 0 0 0 0 20.821334l24.968533 24.951466a14.711467 14.711467 0 0 0 20.804267 0l15.240533-15.274666c12.288 7.5776 25.7024 13.175467 39.748267 16.571733v21.572267a14.711467 14.711467 0 0 0 14.711466 14.711466h35.310934a14.711467 14.711467 0 0 0 14.711466-14.711466v-21.486934a137.557333 137.557333 0 0 0 39.8848-16.384l15.189334 15.172267a14.711467 14.711467 0 0 0 20.7872 0l24.968533-24.968533a14.728533 14.728533 0 0 0 0-20.821334l-15.138133-15.138133c7.594667-12.322133 13.192533-25.770667 16.5888-39.816533h21.418666a14.711467 14.711467 0 0 0 14.711467-14.711467V255.488a14.711467 14.711467 0 0 0-14.711467-14.711467v0.034134z m-251.835733 76.987733a105.813333 105.813333 0 0 1 86.715733-150.186667v76.765867a31.061333 31.061333 0 0 0-20.804266 35.2768l-65.911467 38.109867v0.034133z m173.329067 27.665067l-4.846934 4.846933a105.472 105.472 0 0 1-72.311466 28.740267h-0.3584a105.745067 105.745067 0 0 1-85.998934-44.424534l65.4336-37.8368c11.997867 11.281067 30.72 11.195733 42.632534-0.170666l64.7168 37.4272c-2.816 4.027733-5.905067 7.850667-9.2672 11.434666z m28.501333-67.8912a104.96 104.96 0 0 1-9.5744 39.5264l-65.160533-37.717334a31.0272 31.0272 0 0 0-20.8896-35.037866V167.645867a105.472 105.472 0 0 1 62.293333 28.245333l4.676267 4.6592a105.506133 105.506133 0 0 1 28.637866 67.874133v9.147734z" fill="#1875f0" /></svg>