<?xml version="1.0" standalone="no"?><!DOCTYPE svg PUBLIC "-//W3C//DTD SVG 1.1//EN" "http://www.w3.org/Graphics/SVG/1.1/DTD/svg11.dtd"><svg class="icon" width="200px" height="200.00px" viewBox="0 0 1024 1024" version="1.1" xmlns="http://www.w3.org/2000/svg"><path d="M512 190.171429c-175.542857 0-321.828571 146.285714-321.828571 321.828571s146.285714 321.828571 321.828571 321.828571 321.828571-146.285714 321.828571-321.828571-146.285714-321.828571-321.828571-321.828571z m0 512C409.6 702.171429 321.828571 614.4 321.828571 512c0-102.4 87.771429-190.171429 190.171429-190.171429S702.171429 409.6 702.171429 512c0 102.4-87.771429 190.171429-190.171429 190.171429z m0-314.514286C438.857143 387.657143 387.657143 438.857143 387.657143 512S438.857143 643.657143 512 643.657143 643.657143 585.142857 643.657143 512 585.142857 387.657143 512 387.657143zM899.657143 0H131.657143C58.514286 0 0 58.514286 0 131.657143v768c0 73.142857 58.514286 124.342857 124.342857 124.342857h768c73.142857 0 124.342857-58.514286 124.342857-124.342857V131.657143c7.314286-73.142857-51.2-131.657143-117.028571-131.657143zM160.914286 131.657143c14.628571 0 29.257143 14.628571 29.257143 29.257143s-14.628571 29.257143-29.257143 29.257143-29.257143-14.628571-29.257143-29.257143 7.314286-29.257143 29.257143-29.257143z m0 768c-14.628571 0-29.257143-14.628571-29.257143-29.257143s14.628571-29.257143 29.257143-29.257143 29.257143 14.628571 29.257143 29.257143-14.628571 29.257143-29.257143 29.257143z m702.171428 0c-14.628571 0-29.257143-14.628571-29.257143-29.257143s14.628571-29.257143 29.257143-29.257143 29.257143 14.628571 29.257143 29.257143c7.314286 14.628571-7.314286 29.257143-29.257143 29.257143z m-351.085714 0c-212.114286 0-387.657143-175.542857-387.657143-387.657143S299.885714 131.657143 512 131.657143s387.657143 175.542857 387.657143 387.657143-175.542857 380.342857-387.657143 380.342857z m351.085714-709.485714c-14.628571 0-29.257143-14.628571-29.257143-29.257143s14.628571-29.257143 29.257143-29.257143 29.257143 14.628571 29.257143 29.257143-7.314286 29.257143-29.257143 29.257143z" fill="#e6e6e6" /></svg>