<?xml version="1.0" standalone="no"?><!DOCTYPE svg PUBLIC "-//W3C//DTD SVG 1.1//EN" "http://www.w3.org/Graphics/SVG/1.1/DTD/svg11.dtd"><svg class="icon" width="200px" height="200.00px" viewBox="0 0 1024 1024" version="1.1" xmlns="http://www.w3.org/2000/svg"><path d="M930.909091 434.424242c-10.860606-26.375758-29.478788-55.854545-60.509091-65.163636a88.591515 88.591515 0 0 0-74.472727 17.066667c-41.890909 26.375758-107.054545 57.406061-158.254546 63.612121a125.207273 125.207273 0 0 0-26.375757-37.236364c-1.551515-46.545455-18.618182-232.727273-183.078788-296.339394-58.957576-23.272727-131.878788 6.206061-179.975758 74.472728-17.066667 23.272727-34.133333 52.751515-26.375757 85.333333 4.654545 23.272727 21.721212 40.339394 51.2 55.854545 41.890909 21.721212 96.193939 57.406061 127.224242 97.745455a133.895758 133.895758 0 0 0-24.824242 54.30303c-44.993939 29.478788-186.181818 136.533333-161.357576 304.09697 9.309091 62.060606 71.369697 110.157576 155.151515 119.466667 7.757576 0 15.515152 1.551515 23.272727 1.551515a97.28 97.28 0 0 0 63.612122-20.169697c17.066667-15.515152 24.824242-40.339394 23.272727-72.921212a471.660606 471.660606 0 0 1 20.169697-159.806061h13.963636a119.001212 119.001212 0 0 0 52.751515-10.860606 403.393939 403.393939 0 0 0 172.218182 43.442424 254.603636 254.603636 0 0 0 166.012121-57.40606c49.648485-43.442424 60.509091-121.018182 26.375758-197.042425z m-636.121212-144.290909c-10.860606-6.206061-24.824242-15.515152-27.927273-26.375757s4.654545-24.824242 18.618182-46.545455c35.684848-49.648485 86.884848-72.921212 125.672727-57.40606 110.157576 43.442424 141.187879 159.806061 150.49697 221.866666a126.448485 126.448485 0 0 0-48.09697-9.309091 142.894545 142.894545 0 0 0-77.575757 23.272728 543.030303 543.030303 0 0 0-141.187879-105.503031z m136.533333 524.412122a57.871515 57.871515 0 0 1-7.757576 37.236363c-7.757576 7.757576-23.272727 9.309091-49.648484 6.206061-60.509091-6.206061-107.054545-38.787879-113.260607-79.127273-17.066667-114.812121 63.612121-198.593939 114.812122-238.933333a139.636364 139.636364 0 0 0 79.127272 99.296969c-26.375758 69.818182-23.272727 156.70303-23.272727 175.321213zM418.909091 512a93.090909 93.090909 0 1 1 93.090909 93.090909 93.090909 93.090909 0 0 1-93.090909-93.090909z m456.145454 79.127273c-91.539394 72.921212-204.8 43.442424-263.757575 20.169697A140.722424 140.722424 0 0 0 651.636364 512a75.558788 75.558788 0 0 0-1.551516-18.618182c74.472727-10.860606 153.6-58.957576 169.115152-69.818182 10.860606-6.206061 26.375758-13.963636 35.684848-10.860606s20.169697 15.515152 31.030304 40.339394c27.927273 55.854545 21.721212 111.709091-10.860607 138.084849z" fill="#0b82fd" /><path d="M512 0a512 512 0 1 0 512 512A512 512 0 0 0 512 0z m0 977.454545a465.454545 465.454545 0 1 1 465.454545-465.454545 466.850909 466.850909 0 0 1-465.454545 465.454545z" fill="#0b82fd" /></svg>