<?xml version="1.0" standalone="no"?><!DOCTYPE svg PUBLIC "-//W3C//DTD SVG 1.1//EN" "http://www.w3.org/Graphics/SVG/1.1/DTD/svg11.dtd"><svg class="icon" width="200px" height="160.13px" viewBox="0 0 1279 1024" version="1.1" xmlns="http://www.w3.org/2000/svg"><path d="M410.833593 355.267702v311.116614a31.011421 31.011421 0 0 1-31.002389 31.183004 30.939175 30.939175 0 0 1-20.725455-8.037322l-205.26779-153.837959a31.201065 31.201065 0 0 1-6.176998-43.491847c1.760986-2.375074 3.792894-4.470196 6.176998-6.131844l207.46225-155.571854c13.591202-10.195659 33.178788-7.441296 43.356386 6.249244 4.271521 5.590003 6.176998 12.001799 6.176998 18.521964z m447.137004-4.614687c0-6.682717 2.095122-13.329312 6.475012-19.108959 10.45755-14.114983 30.568916-16.878377 44.593592-6.393735l213.621187 160.204601c2.384105 1.706802 4.569534 3.801924 6.384704 6.366643a32.058982 32.058982 0 0 1-6.384704 44.738083l-211.345451 158.398462a31.806122 31.806122 0 0 1-21.339542 8.226967 32.022859 32.022859 0 0 1-32.004798-32.149288V350.653015z m-376.787858-62.058964a29.259465 29.259465 0 0 1-18.160735-6.113784 30.252842 30.252842 0 0 1-6.077661-42.335917L609.066469 37.260664c1.616495-2.284767 3.61228-4.298613 5.987354-6.014445a30.36121 30.36121 0 0 1 42.453316 6.014445l150.406293 200.752441c4.894639 5.373266 7.838647 12.426242 7.838647 20.219735a30.36121 30.36121 0 0 1-30.424425 30.35218H481.182739z m0 446.802868h304.253283a30.379272 30.379272 0 0 1 30.415395 30.379271 30.252842 30.252842 0 0 1-7.793494 20.201674l-150.4966 200.74341c-10.07826 13.266097-29.006605 16.110767-42.408163 6.032507a24.698962 24.698962 0 0 1-5.996384-6.032507l-152.212433-202.829501a30.370241 30.370241 0 0 1 6.077661-42.36301 29.530386 29.530386 0 0 1 18.160735-6.131844z m0-218.904146M479.954564 511.977423c0-86.667619 70.258839-156.95355 156.971612-156.95355s156.971612 70.285931 156.971611 156.95355c0 86.712773-70.258839 156.971612-156.971611 156.971612s-156.971612-70.258839-156.971612-156.971612z" fill="#439fd9" /></svg>