<?xml version="1.0" standalone="no"?><!DOCTYPE svg PUBLIC "-//W3C//DTD SVG 1.1//EN" "http://www.w3.org/Graphics/SVG/1.1/DTD/svg11.dtd"><svg class="icon" width="200px" height="200.00px" viewBox="0 0 1024 1024" version="1.1" xmlns="http://www.w3.org/2000/svg"><path d="M294.912 534.528c0 63.488-53.248 118.784-114.688 118.784-65.536 0-116.736-53.248-116.736-118.784 0-63.488 53.248-116.736 116.736-116.736 61.44-2.048 114.688 53.248 114.688 116.736z m-116.736-38.912c-20.48 0-38.912 20.48-36.864 40.96 0 20.48 20.48 36.864 38.912 36.864 20.48 0 38.912-20.48 36.864-40.96-2.048-20.48-20.48-36.864-38.912-36.864zM962.56 364.544c0 65.536-51.2 116.736-114.688 118.784-63.488 0-116.736-51.2-118.784-116.736 0-65.536 51.2-118.784 116.736-118.784 63.488-2.048 114.688 51.2 116.736 116.736z m-79.872 0c0-20.48-16.384-38.912-36.864-38.912s-38.912 18.432-38.912 38.912 18.432 38.912 36.864 38.912c22.528 0 38.912-18.432 38.912-38.912zM512 843.776c-63.488 0-114.688-53.248-114.688-116.736 0-65.536 53.248-118.784 118.784-116.736 63.488 2.048 116.736 55.296 114.688 118.784-4.096 65.536-55.296 116.736-118.784 114.688z m0-155.648c-20.48 0-36.864 16.384-36.864 38.912 0 20.48 18.432 40.96 38.912 38.912 20.48 0 36.864-18.432 36.864-38.912-2.048-22.528-18.432-38.912-38.912-38.912z m-38.912-368.64V143.36c0-10.24 0-18.432 2.048-28.672 4.096-18.432 16.384-30.72 34.816-30.72 20.48-2.048 34.816 10.24 38.912 30.72 2.048 8.192 2.048 18.432 2.048 28.672v366.592c0 32.768-14.336 51.2-38.912 51.2-26.624 0-38.912-16.384-40.96-51.2 2.048-63.488 2.048-126.976 2.048-190.464z m333.824 434.176V573.44c0-30.72 14.336-49.152 36.864-49.152 24.576 0 40.96 16.384 40.96 49.152v364.544c0 30.72-14.336 47.104-38.912 47.104s-38.912-16.384-38.912-47.104c-2.048-61.44 0-122.88 0-184.32zM139.264 227.328v-96.256c0-30.72 16.384-47.104 38.912-47.104s38.912 16.384 38.912 45.056v190.464c0 28.672-14.336 45.056-38.912 45.056s-38.912-18.432-38.912-47.104v-90.112z m77.824 618.496v92.16c0 28.672-14.336 45.056-38.912 45.056s-38.912-16.384-38.912-45.056V747.52c0-26.624 14.336-43.008 36.864-43.008s38.912 16.384 40.96 43.008c2.048 32.768 0 65.536 0 98.304z m667.648-698.368c0 2.048 0 10.24-2.048 18.432-4.096 20.48-26.624 32.768-47.104 28.672-22.528-6.144-30.72-22.528-28.672-63.488 0-22.528 8.192-40.96 32.768-45.056 28.672-6.144 45.056 16.384 45.056 61.44zM473.088 933.888c0-30.72 16.384-49.152 40.96-47.104 24.576 0 38.912 20.48 38.912 51.2s-16.384 49.152-40.96 47.104c-26.624-2.048-38.912-20.48-38.912-51.2z" fill="#e6e6e6" /></svg>