<?xml version="1.0" standalone="no"?><!DOCTYPE svg PUBLIC "-//W3C//DTD SVG 1.1//EN" "http://www.w3.org/Graphics/SVG/1.1/DTD/svg11.dtd"><svg t="1608184646538" class="icon" viewBox="0 0 1024 1024" version="1.1" xmlns="http://www.w3.org/2000/svg" p-id="4906" xmlns:xlink="http://www.w3.org/1999/xlink" width="1024" height="1024"><defs><style type="text/css"></style></defs><path d="M881.008308 539.64871l0 380.215558c0 21.451568-17.392112 38.844703-38.844703 38.844703s-38.844703-17.392112-38.844703-38.844703L803.318902 539.64871c0-21.451568 17.392112-38.844703 38.844703-38.844703S881.008308 518.197142 881.008308 539.64871zM842.163605 176.219467c21.451568 0 38.844703-17.393135 38.844703-38.844703L881.008308 104.134709c0-21.451568-17.392112-38.844703-38.844703-38.844703s-38.844703 17.392112-38.844703 38.844703l0 33.240055C803.318902 158.825308 820.712037 176.219467 842.163605 176.219467zM297.095465 512c0 64.439638-51.993165 116.869754-115.90273 116.869754S65.290005 576.439638 65.290005 512s51.993165-116.869754 115.90273-116.869754S297.095465 447.560362 297.095465 512zM219.407082 512c0-21.603017-17.142425-39.181371-38.214347-39.181371s-38.214347 17.578354-38.214347 39.181371 17.142425 39.181371 38.214347 39.181371S219.407082 533.603017 219.407082 512zM627.90273 703.05843c0 64.440661-51.993165 116.869754-115.90273 116.869754-63.908542 0-115.901707-52.429093-115.901707-116.869754 0-64.449871 51.993165-116.878964 115.901707-116.878964C575.909565 586.179466 627.90273 638.608559 627.90273 703.05843zM550.213323 703.05843c0-21.608134-17.141402-39.189557-38.214347-39.189557-21.071921 0-38.213323 17.581424-38.213323 39.189557 0 21.603017 17.141402 39.181371 38.213323 39.181371C533.072945 742.239801 550.213323 724.661448 550.213323 703.05843zM958.708971 343.335602c0 64.440661-51.993165 116.869754-115.901707 116.869754-63.909565 0-115.90273-52.429093-115.90273-116.869754 0-64.439638 51.993165-116.868731 115.90273-116.868731C906.715807 226.466871 958.708971 278.895965 958.708971 343.335602zM881.020588 343.335602c0-21.603017-17.141402-39.180348-38.213323-39.180348-21.071921 0-38.214347 17.577331-38.214347 39.180348s17.142425 39.181371 38.214347 39.181371C863.879186 382.516973 881.020588 364.939643 881.020588 343.335602zM511.986697 858.681814c-21.451568 0-38.844703 17.392112-38.844703 38.844703l0 22.338774c0 21.451568 17.392112 38.844703 38.844703 38.844703s38.844703-17.392112 38.844703-38.844703l0-22.338774C550.8314 876.074949 533.439288 858.681814 511.986697 858.681814zM511.986697 538.278503c21.451568 0 38.844703-17.393135 38.844703-38.844703L550.8314 104.134709c0-21.451568-17.392112-38.844703-38.844703-38.844703s-38.844703 17.392112-38.844703 38.844703l0 395.300115C473.143017 520.885368 490.535129 538.278503 511.986697 538.278503zM181.810812 679.781284c-21.451568 0-38.844703 17.393135-38.844703 38.844703l0 201.239304c0 21.451568 17.392112 38.844703 38.844703 38.844703s38.844703-17.392112 38.844703-38.844703L220.655516 718.624964C220.654492 697.17442 203.26238 679.781284 181.810812 679.781284zM181.810812 346.162997c21.451568 0 38.844703-17.393135 38.844703-38.844703L220.655516 104.134709c0-21.451568-17.392112-38.844703-38.844703-38.844703s-38.844703 17.392112-38.844703 38.844703l0 203.183586C142.966109 328.768839 160.359244 346.162997 181.810812 346.162997z" p-id="4907" fill="#2c2c2c"></path></svg>