<?xml version="1.0" standalone="no"?><!DOCTYPE svg PUBLIC "-//W3C//DTD SVG 1.1//EN" "http://www.w3.org/Graphics/SVG/1.1/DTD/svg11.dtd"><svg class="icon" width="200px" height="200.00px" viewBox="0 0 1024 1024" version="1.1" xmlns="http://www.w3.org/2000/svg"><path d="M512 34.133333C248.500907 34.133333 34.133333 248.50432 34.133333 512s214.367573 477.866667 477.866667 477.866667c263.49568 0 477.866667-214.370987 477.866667-477.866667S775.49568 34.133333 512 34.133333z m431.619413 511.996587a30.78144 30.78144 0 0 1-26.671786-15.418027h-207.261014a15.414613 15.414613 0 0 1-14.148266-9.284266l-53.415254-123.252054-114.875733 423.082667a15.407787 15.407787 0 0 1-14.865067 11.373227h-0.006826a15.414613 15.414613 0 0 1-14.871894-11.359574L343.12192 255.232l-106.24 265.78944a15.414613 15.414613 0 0 1-14.31552 9.693867H64.965973a15.414613 15.414613 0 1 1 0-30.829227h147.162454l119.446186-298.82368a15.42144 15.42144 0 0 1 29.187414 1.665707l151.575893 555.782826 111.557973-410.862933a15.42144 15.42144 0 0 1 13.7728-11.339093 15.469227 15.469227 0 0 1 15.250774 9.24672l66.884266 154.330453h197.143894c5.33504-9.20576 15.271253-15.414613 26.671786-15.414613a30.83264 30.83264 0 0 1 0 61.658453z" fill="#1296db" /></svg>