<svg width="1023.999901204964" height="1023.999901204964" xmlns="http://www.w3.org/2000/svg" class="icon">

 <g>
  <title>background</title>
  <rect height="402" width="582" y="-1" x="-1" fill="none" id="canvas_background"/>
 </g>
 <g>
  <title>Layer 1</title>
  <g id="svg_5">
   <path d="m414.528229,1023.679626c-52.735443,0 -101.704102,-26.134766 -131.838654,-70.717834c-3.766815,-5.380737 -2.260132,-12.298767 3.013458,-16.142212s12.053802,-2.305908 15.820618,3.074768c25.61441,37.664978 67.802734,60.725159 113.004578,60.725159c46.708527,0 89.65033,-23.828857 115.264618,-63.799805c3.766785,-5.380798 10.547058,-6.918091 15.820679,-3.074768c5.27356,3.843323 6.780273,10.761414 3.013428,16.142212c-29.381104,45.351624 -79.856537,73.79248 -134.098724,73.79248z" fill="#c23616" id="svg_1"/>
   <path d="m232.214218,909.1474c-1.50676,0 -3.013458,0 -4.520203,-0.768677c-3.76683,-1.537415 -6.780273,-6.149353 -6.780273,-9.992676l-6.026901,-626.46814c0,-4.612061 3.013443,-9.22406 7.533646,-10.761444l50.475388,-18.448166c37.668182,-13.836105 99.444031,-66.874451 100.197418,-92.240677c0,-3.074677 0,-6.149368 -6.780273,-8.455353l-34.654755,-16.142174c-6.026917,-2.306 -8.287048,-9.224037 -5.27359,-15.373405l47.461914,-103.770792c1.506744,-3.074748 3.766846,-4.612056 6.026978,-6.14943c3.013428,-0.768622 6.026886,-0.768622 8.286926,0l414.350128,196.011531c6.026855,2.306 8.286987,9.224045 5.273499,15.373398l-47.461914,103.770782c-1.506775,3.074738 -3.766785,4.61203 -6.026917,6.149414c-3.013367,0.768707 -6.026917,0.768707 -8.287048,0l-34.654724,-16.142151c-6.026855,-3.074707 -9.040283,-1.537323 -10.546997,0.768677c-18.080688,16.910797 -18.080688,99.158783 -4.520142,137.592407l18.080688,51.501068c1.506714,4.612 0,9.992676 -3.766785,13.067413l-473.112549,399.709717s-3.013443,0.768677 -5.273514,0.768677zm6.026886,-630.311432l5.273529,594.183868l449.004837,-378.955597l-15.820557,-43.814331c-14.313904,-39.20224 -19.587585,-135.286346 10.547058,-162.958527c9.793762,-9.224091 22.600952,-10.761475 35.408081,-4.612l24.107605,11.530029l37.668274,-83.016617l-394.009338,-186.787424l-37.668213,83.016626l24.107666,11.530113c12.80722,6.149361 20.34082,16.910789 19.587494,30.746895c-1.506775,40.739609 -76.84314,98.390045 -115.264709,112.994843l-42.941727,16.14212z" fill="#c23616" id="svg_2"/>
   <path d="m713.613647,303.433441c-1.506714,0 -3.01355,0 -4.520142,-0.768707l-341.273834,-161.421158c-3.766785,-2.306061 -6.780273,-6.149429 -6.780273,-10.761429c0,-1.537354 0,-3.074677 0.753387,-4.612053c2.260101,-6.149361 9.040375,-8.455353 15.067261,-5.380676l341.273743,161.421196c3.766907,2.306061 6.780273,6.149353 6.780273,10.761414c0,1.537384 0,3.074677 -0.753357,4.61203c-2.26001,3.843384 -6.780273,6.149384 -10.547058,6.149384zm-39.174866,66.105835c-1.506775,0 -3.013489,0 -4.520142,-0.768707l-320.933075,-151.428406c-3.766815,-2.306015 -6.780273,-6.149368 -6.780273,-10.761444c0,-1.537292 0,-3.074661 0.753387,-4.612045c2.260071,-6.149368 9.040344,-8.455368 15.06723,-5.380676l320.179657,151.428452c3.766846,2.30603 6.780273,6.149353 6.780273,10.761414c0,1.537384 0,3.074707 -0.753418,4.61203c-1.506714,3.843445 -6.026855,6.149384 -9.79364,6.149384zm-236.556213,128.368439c-7.533661,0 -14.313934,-1.537415 -21.094208,-4.61203c-25.614349,-12.298798 -36.161438,-43.045685 -24.860962,-69.180603c12.053802,-26.134857 42.188385,-36.89621 67.802734,-25.36615c25.614349,12.298737 36.161499,43.045654 24.860962,69.180542c-9.040405,18.44809 -27.121094,29.978241 -46.708527,29.978241zm0,-80.710693c-3.013519,0 -6.780273,0.768738 -9.793793,1.537415c-6.780273,2.306 -12.80719,7.686707 -15.820557,14.604767s-3.766907,14.604706 -0.753387,22.291473c2.260132,6.91803 7.533661,13.067444 14.313934,16.142181c6.780273,3.074646 14.313934,3.843262 21.847565,0.768585c6.780273,-2.306 12.80719,-7.686646 15.820557,-14.604706c6.780273,-14.604828 0.753387,-31.515594 -13.560547,-38.433685c-3.766754,-1.537292 -7.53363,-2.30603 -12.053772,-2.30603z" fill="#c23616" id="svg_3"/>
   <path d="m362.546112,622.432617c-1.506744,0 -3.013458,0 -4.520203,-0.768677c-6.026886,-2.306091 -8.286957,-9.224121 -5.273529,-15.373535l51.22876,-112.99472c2.26004,-6.149414 9.040314,-8.455444 15.06723,-5.380737c6.026886,2.305969 8.287018,9.22403 5.273529,15.373413l-51.228699,112.994904c-2.26004,3.843262 -6.026886,6.149353 -10.547089,6.149353z" fill="#c23616" id="svg_4"/>
  </g>
 </g>
</svg>