<?xml version="1.0" encoding="UTF-8" standalone="no"?> <!-- Created with Vectornator for iOS (http://vectornator.io/) --><!DOCTYPE svg PUBLIC "-//W3C//DTD SVG 1.1//EN" "http://www.w3.org/Graphics/SVG/1.1/DTD/svg11.dtd">
<svg style="fill-rule:evenodd;clip-rule:evenodd;stroke-linecap:round;stroke-linejoin:round;" xmlns:vectornator="http://vectornator.io" xmlns:xlink="http://www.w3.org/1999/xlink" xmlns="http://www.w3.org/2000/svg" xml:space="preserve" version="1.1" viewBox="0 0 1024 1024">
<metadata>
<vectornator:setting key="DynamicGuides" value="1"/>
<vectornator:setting key="Units" value="Points"/>
<vectornator:setting key="GuidesVisible" value="1"/>
<vectornator:setting key="RulersVisible" value="1"/>
<vectornator:setting key="SnapToGuides" value="1"/>
<vectornator:setting key="GridSpacing" value="36"/>
</metadata>
<defs>
<path d="M0+0L1024+0L1024+1024L0+1024L0+0Z" id="Mask"/>
</defs>
<g id="Untitled" vectornator:layerName="Untitled">
<g opacity="1" vectornator:mask="#Mask">
<clipPath id="ClipPath">
<use xlink:href="#Mask" fill="none" overflow="visible"/>
</clipPath>
<g clip-path="url(#ClipPath)">
<path d="M298.667+85.3333C440.889+85.3333+583.111+85.3333+725.333+85.3333C725.333+156.444+725.333+227.556+725.333+298.667C753.778+298.667+782.222+298.667+810.667+298.667C810.667+384+810.667+469.333+810.667+554.667C775.111+554.667+739.556+554.667+704+554.667L554.667+725.333C526.222+725.333+497.778+725.333+469.333+725.333C419.556+668.444+369.778+611.556+320+554.667L213.333+554.667L213.333+298.667C241.778+298.667+270.222+298.667+298.667+298.667L298.667+85.3333ZM426.667+938.667L85.3333+938.667C85.3333+910.222+85.3333+881.778+85.3333+853.333C199.111+853.333+312.889+853.333+426.667+853.333C437.983+853.333+448.835+848.838+456.837+840.837C464.838+832.835+469.333+821.983+469.333+810.667C469.333+796.444+469.333+782.222+469.333+768C497.778+768+526.222+768+554.667+768C554.667+782.222+554.667+796.444+554.667+810.667C554.667+844.614+541.181+877.172+517.176+901.176C493.172+925.181+460.614+938.667+426.667+938.667ZM298.667+384C298.667+412.444+298.667+440.889+298.667+469.333C320+469.333+341.333+469.333+362.667+469.333C412.444+526.222+462.222+583.111+512+640C561.778+583.111+611.556+526.222+661.333+469.333L725.333+469.333L725.333+384C696.889+384+668.444+384+640+384L640+170.667L384+170.667C384+241.778+384+312.889+384+384L298.667+384Z" opacity="1" fill="#d81e06"/>
</g>
</g>
</g>
</svg>
