<?xml version="1.0" encoding="utf-8"?>
<svg x="0pt" y="0pt" width="1024pt" height="1024pt" viewBox="0 0 1024 1024" xmlns="http://www.w3.org/2000/svg" xmlns:xlink="http://www.w3.org/1999/xlink">
  <g id="1">
    <title>Layer 1</title>
    <clipPath id="3">
      <use xlink:href="#2"/>
      <path id="2" d="M0,0 C0,0,1024,0,1024,0 C1024,0,1024,1024,1024,1024 C1024,1024,0,1024,0,1024 C0,1024,0,0,0,0 z"/>
    </clipPath>
    <g id="4" style="clip-path:url(#3);">
      <title>ClipGroup</title>
      <defs>
        <title>Shape 44</title>
        <g id="5">
          <defs>
            <path id="6" d="M298.667,85.3333 C440.889,85.3333,583.111,85.3333,725.333,85.3333 C725.333,156.444,725.333,227.556,725.333,298.667 C753.778,298.667,782.222,298.667,810.667,298.667 C810.667,384,810.667,469.333,810.667,554.667 C775.111,554.667,739.556,554.667,704,554.667 C704,554.667,554.667,725.333,554.667,725.333 C526.222,725.333,497.778,725.333,469.333,725.333 C419.556,668.444,369.778,611.556,320,554.667 C320,554.667,213.333,554.667,213.333,554.667 C213.333,554.667,213.333,298.667,213.333,298.667 C241.778,298.667,270.222,298.667,298.667,298.667 C298.667,298.667,298.667,85.3333,298.667,85.3333 z M426.667,938.667 C426.667,938.667,85.3333,938.667,85.3333,938.667 C85.3333,910.222,85.3333,881.778,85.3333,853.333 C199.111,853.333,312.889,853.333,426.667,853.333 C437.983,853.333,448.835,848.838,456.837,840.837 C464.838,832.835,469.333,821.983,469.333,810.667 C469.333,796.444,469.333,782.222,469.333,768 C497.778,768,526.222,768,554.667,768 C554.667,782.222,554.667,796.444,554.667,810.667 C554.667,844.614,541.181,877.172,517.176,901.176 C493.172,925.181,460.614,938.667,426.667,938.667 z M298.667,384 C298.667,412.444,298.667,440.889,298.667,469.333 C320,469.333,341.333,469.333,362.667,469.333 C412.444,526.222,462.222,583.111,512,640 C561.778,583.111,611.556,526.222,661.333,469.333 C661.333,469.333,725.333,469.333,725.333,469.333 C725.333,469.333,725.333,384,725.333,384 C696.889,384,668.444,384,640,384 C640,384,640,170.667,640,170.667 C640,170.667,384,170.667,384,170.667 C384,241.778,384,312.889,384,384 C384,384,298.667,384,298.667,384 z"/>
          </defs>
          <use xlink:href="#6" style="fill:#d81e06;fill-opacity:1;fill-rule:evenodd;opacity:1;stroke:none;"/>
        </g>
      </defs>
      <use xlink:href="#5"/>
    </g>
    <clipPath id="8">
      <use xlink:href="#7"/>
      <path id="7" d="M0,0 C0,0,1024,0,1024,0 C1024,0,1024,1024,1024,1024 C1024,1024,0,1024,0,1024 C0,1024,0,0,0,0 z"/>
    </clipPath>
    <g id="9" style="clip-path:url(#8);"/>
  </g>
</svg>
