<?xml version="1.0" encoding="utf-8"?>
<svg x="0pt" y="0pt" width="1024pt" height="1024pt" viewBox="0 0 1024 1024" xmlns="http://www.w3.org/2000/svg" xmlns:xlink="http://www.w3.org/1999/xlink">
  <g id="1">
    <title>Layer 1</title>
    <clipPath id="3">
      <use xlink:href="#2"/>
      <path id="2" d="M0,0 C0,0,1024,0,1024,0 C1024,0,1024,1024,1024,1024 C1024,1024,0,1024,0,1024 C0,1024,0,0,0,0 z"/>
    </clipPath>
    <g id="4" style="clip-path:url(#3);">
      <title>ClipGroup</title>
      <defs>
        <title>Shape 46</title>
        <g id="5">
          <defs>
            <path id="6" d="M509.867,889.6 C492.8,889.6,477.867,874.667,477.867,857.6 C478.578,736,479.289,614.4,480,492.8 C586.667,433.067,693.333,373.333,800,313.6 C814.933,305.067,834.133,311.467,842.667,326.4 C851.2,341.333,846.933,360.533,829.867,369.067 C733.867,423.111,637.867,477.156,541.867,531.2 C541.156,640.711,540.444,750.222,539.733,859.733 C541.867,876.8,529.067,889.6,509.867,889.6 z"/>
          </defs>
          <use xlink:href="#6" style="fill:#e6e6e6;fill-opacity:1;fill-rule:evenodd;opacity:1;stroke:none;"/>
        </g>
      </defs>
      <use xlink:href="#5"/>
      <defs>
        <title>Shape 47</title>
        <g id="7">
          <defs>
            <path id="8" d="M512,544 C507.733,544,501.333,541.867,497.067,539.733 C393.244,482.844,289.422,425.956,185.6,369.067 C170.667,360.533,164.267,341.333,172.8,326.4 C181.333,311.467,200.533,305.067,215.467,313.6 C319.289,370.489,423.111,427.378,526.933,484.267 C541.867,492.8,548.267,512,539.733,526.933 C533.333,537.6,522.667,544,512,544 z"/>
          </defs>
          <use xlink:href="#8" style="fill:#e6e6e6;fill-opacity:1;fill-rule:evenodd;opacity:1;stroke:none;"/>
        </g>
      </defs>
      <use xlink:href="#7"/>
      <defs>
        <title>Shape 48</title>
        <g id="9">
          <defs>
            <path id="10" d="M512,889.6 C507.733,889.6,501.333,887.467,497.067,885.333 C497.067,885.333,172.8,721.067,172.8,721.067 C162.133,714.667,155.733,704,155.733,693.333 C155.733,693.333,155.733,341.333,155.733,341.333 C155.733,324.267,170.667,309.333,187.733,309.333 C204.8,309.333,219.733,324.267,219.733,341.333 C219.733,452.267,219.733,563.2,219.733,674.133 C317.867,723.911,416,773.689,514.133,823.467 C612.267,773.689,710.4,723.911,808.533,674.133 C808.533,674.133,808.533,341.333,808.533,341.333 C808.533,324.267,823.467,309.333,840.533,309.333 C857.6,309.333,872.533,324.267,872.533,341.333 C872.533,458.667,872.533,576,872.533,693.333 C872.533,706.133,866.133,716.8,855.467,721.067 C746.667,775.822,637.867,830.578,529.067,885.333 C522.667,889.6,516.267,889.6,512,889.6 z"/>
          </defs>
          <use xlink:href="#10" style="fill:#e6e6e6;fill-opacity:1;fill-rule:evenodd;opacity:1;stroke:none;"/>
        </g>
      </defs>
      <use xlink:href="#9"/>
      <defs>
        <title>Shape 49</title>
        <g id="11">
          <defs>
            <path id="12" d="M838.4,373.333 C834.133,373.333,827.733,371.2,823.467,369.067 C823.467,369.067,512,200.533,512,200.533 C512,200.533,202.667,369.067,202.667,369.067 C187.733,377.6,168.533,371.2,160,356.267 C149.333,341.333,155.733,322.133,170.667,313.6 C279.467,254.578,388.267,195.556,497.067,136.533 C505.6,132.267,518.4,132.267,526.933,136.533 C526.933,136.533,853.333,313.6,853.333,313.6 C868.267,322.133,874.667,341.333,866.133,356.267 C859.733,366.933,849.067,373.333,838.4,373.333 z"/>
          </defs>
          <use xlink:href="#12" style="fill:#e6e6e6;fill-opacity:1;fill-rule:evenodd;opacity:1;stroke:none;"/>
        </g>
      </defs>
      <use xlink:href="#11"/>
    </g>
    <clipPath id="14">
      <use xlink:href="#13"/>
      <path id="13" d="M0,0 C0,0,1024,0,1024,0 C1024,0,1024,1024,1024,1024 C1024,1024,0,1024,0,1024 C0,1024,0,0,0,0 z"/>
    </clipPath>
    <g id="15" style="clip-path:url(#14);"/>
  </g>
</svg>
