<?xml version="1.0" encoding="UTF-8" standalone="no"?> <!-- Created with Vectornator for iOS (http://vectornator.io/) --><!DOCTYPE svg PUBLIC "-//W3C//DTD SVG 1.1//EN" "http://www.w3.org/Graphics/SVG/1.1/DTD/svg11.dtd">
<svg style="fill-rule:evenodd;clip-rule:evenodd;stroke-linecap:round;stroke-linejoin:round;" xmlns:vectornator="http://vectornator.io" xmlns:xlink="http://www.w3.org/1999/xlink" xmlns="http://www.w3.org/2000/svg" xml:space="preserve" version="1.1" viewBox="0 0 1024 1024">
<metadata>
<vectornator:setting key="DynamicGuides" value="1"/>
<vectornator:setting key="Units" value="Points"/>
<vectornator:setting key="GuidesVisible" value="1"/>
<vectornator:setting key="RulersVisible" value="1"/>
<vectornator:setting key="SnapToGuides" value="1"/>
<vectornator:setting key="GridSpacing" value="36"/>
</metadata>
<defs>
<path d="M0+0L1024+0L1024+1024L0+1024L0+0Z" id="Mask"/>
</defs>
<g id="Untitled" vectornator:layerName="Untitled">
<g opacity="1" vectornator:mask="#Mask">
<clipPath id="ClipPath">
<use xlink:href="#Mask" fill="none" overflow="visible"/>
</clipPath>
<g clip-path="url(#ClipPath)">
<g opacity="1">
<path d="M509.867+889.6C492.8+889.6+477.867+874.667+477.867+857.6C478.578+736+479.289+614.4+480+492.8C586.667+433.067+693.333+373.333+800+313.6C814.933+305.067+834.133+311.467+842.667+326.4C851.2+341.333+846.933+360.533+829.867+369.067C733.867+423.111+637.867+477.156+541.867+531.2C541.156+640.711+540.444+750.222+539.733+859.733C541.867+876.8+529.067+889.6+509.867+889.6Z" opacity="1" fill="#e6e6e6"/>
<path d="M512+544C507.733+544+501.333+541.867+497.067+539.733C393.244+482.844+289.422+425.956+185.6+369.067C170.667+360.533+164.267+341.333+172.8+326.4C181.333+311.467+200.533+305.067+215.467+313.6C319.289+370.489+423.111+427.378+526.933+484.267C541.867+492.8+548.267+512+539.733+526.933C533.333+537.6+522.667+544+512+544Z" opacity="1" fill="#e6e6e6"/>
<path d="M512+889.6C507.733+889.6+501.333+887.467+497.067+885.333L172.8+721.067C162.133+714.667+155.733+704+155.733+693.333L155.733+341.333C155.733+324.267+170.667+309.333+187.733+309.333C204.8+309.333+219.733+324.267+219.733+341.333C219.733+452.267+219.733+563.2+219.733+674.133C317.867+723.911+416+773.689+514.133+823.467C612.267+773.689+710.4+723.911+808.533+674.133L808.533+341.333C808.533+324.267+823.467+309.333+840.533+309.333C857.6+309.333+872.533+324.267+872.533+341.333C872.533+458.667+872.533+576+872.533+693.333C872.533+706.133+866.133+716.8+855.467+721.067C746.667+775.822+637.867+830.578+529.067+885.333C522.667+889.6+516.267+889.6+512+889.6Z" opacity="1" fill="#e6e6e6"/>
<path d="M838.4+373.333C834.133+373.333+827.733+371.2+823.467+369.067L512+200.533L202.667+369.067C187.733+377.6+168.533+371.2+160+356.267C149.333+341.333+155.733+322.133+170.667+313.6C279.467+254.578+388.267+195.556+497.067+136.533C505.6+132.267+518.4+132.267+526.933+136.533L853.333+313.6C868.267+322.133+874.667+341.333+866.133+356.267C859.733+366.933+849.067+373.333+838.4+373.333Z" opacity="1" fill="#e6e6e6"/>
</g>
</g>
</g>
</g>
</svg>
