<?xml version="1.0" standalone="no"?><!DOCTYPE svg PUBLIC "-//W3C//DTD SVG 1.1//EN" "http://www.w3.org/Graphics/SVG/1.1/DTD/svg11.dtd"><svg class="icon" width="200px" height="200.00px" viewBox="0 0 1024 1024" version="1.1" xmlns="http://www.w3.org/2000/svg"><path d="M84.718 84.718c27.624-27.624 72.413-27.624 100.037 0L512 411.931 839.245 84.718c27.624-27.624 72.413-27.624 100.037 0 27.625 27.624 27.625 72.413 0 100.037L612.069 512l327.213 327.245c25.113 25.113 27.396 64.411 6.849 92.103l-6.849 7.934c-27.624 27.624-72.413 27.624-100.037 0L512 612.069 184.755 939.282c-27.624 27.624-72.413 27.624-100.037 0s-27.624-72.413 0-100.037L411.931 512 84.718 184.755c-25.113-25.113-27.396-64.411-6.849-92.103l6.849-7.934z" fill="#d81e06" /></svg>