<?xml version="1.0" encoding="UTF-8" standalone="no"?> <!-- Created with Vectornator for iOS (http://vectornator.io/) --><!DOCTYPE svg PUBLIC "-//W3C//DTD SVG 1.1//EN" "http://www.w3.org/Graphics/SVG/1.1/DTD/svg11.dtd">
<svg style="fill-rule:evenodd;clip-rule:evenodd;stroke-linecap:round;stroke-linejoin:round;" xmlns:vectornator="http://vectornator.io" xmlns:xlink="http://www.w3.org/1999/xlink" xmlns="http://www.w3.org/2000/svg" xml:space="preserve" version="1.1" viewBox="0 0 1024 1024">
<metadata>
<vectornator:setting key="DynamicGuides" value="1"/>
<vectornator:setting key="Units" value="Points"/>
<vectornator:setting key="GuidesVisible" value="1"/>
<vectornator:setting key="RulersVisible" value="1"/>
<vectornator:setting key="SnapToGuides" value="1"/>
<vectornator:setting key="GridSpacing" value="36"/>
</metadata>
<defs>
<path d="M0+0L1024+0L1024+1024L0+1024L0+0Z" id="Mask"/>
</defs>
<g id="Untitled" vectornator:layerName="Untitled">
<g opacity="1" vectornator:mask="#Mask">
<clipPath id="ClipPath">
<use xlink:href="#Mask" fill="none" overflow="visible"/>
</clipPath>
<g clip-path="url(#ClipPath)">
<g opacity="1">
<path d="M512+998.4C244.053+998.4+25.6+779.947+25.6+512C25.6+244.053+244.053+25.6+512+25.6C779.947+25.6+998.4+244.053+998.4+512C998.4+779.947+779.947+998.4+512+998.4ZM512+76.8C271.36+76.8+76.8+271.36+76.8+512C76.8+752.64+271.36+947.2+512+947.2C752.64+947.2+947.2+752.64+947.2+512C947.2+271.36+752.64+76.8+512+76.8Z" opacity="1" fill="#e1b12c"/>
<path d="M512+25.6C779.947+25.6+998.4+244.053+998.4+512C998.4+779.947+779.947+998.4+512+998.4C244.053+998.4+25.6+779.947+25.6+512C25.6+244.053+244.053+25.6+512+25.6M512+947.2C752.64+947.2+947.2+752.64+947.2+512C947.2+271.36+752.64+76.8+512+76.8C271.36+76.8+76.8+271.36+76.8+512C76.8+752.64+271.36+947.2+512+947.2M512+8.53302C233.813+8.53302+8.53333+233.813+8.53333+512C8.53333+790.187+233.813+1015.47+512+1015.47C790.187+1015.47+1015.47+790.187+1015.47+512C1015.47+233.813+790.187+8.53302+512+8.53302ZM512+930.133C281.6+930.133+93.8667+742.4+93.8667+512C93.8667+281.6+281.6+93.8667+512+93.8667C742.4+93.8667+930.133+281.6+930.133+512C930.133+742.4+742.4+930.133+512+930.133Z" opacity="1" fill="#e1b12c"/>
<path d="M512+162.133C319.147+162.133+162.133+319.147+162.133+512C162.133+704.853+319.147+861.867+512+861.867C704.853+861.867+861.867+704.853+861.867+512C861.867+319.147+704.853+162.133+512+162.133ZM472.747+657.067C472.747+670.72+459.093+679.253+442.027+679.253C424.96+679.253+411.307+670.72+411.307+657.067C411.307+560.356+411.307+463.644+411.307+366.933C411.307+353.28+424.96+344.747+442.027+344.747C459.093+344.747+472.747+353.28+472.747+366.933C472.747+463.644+472.747+560.356+472.747+657.067ZM616.107+657.067C616.107+670.72+602.453+679.253+585.387+679.253C568.32+679.253+554.667+670.72+554.667+657.067C554.667+560.356+554.667+463.644+554.667+366.933C554.667+353.28+568.32+344.747+585.387+344.747C602.453+344.747+616.107+353.28+616.107+366.933C616.107+463.644+616.107+560.356+616.107+657.067Z" opacity="1" fill="#e1b12c"/>
</g>
</g>
</g>
</g>
</svg>
