<?xml version="1.0" encoding="utf-8"?>
<svg x="0pt" y="0pt" width="1024pt" height="1024pt" viewBox="0 0 1024 1024" xmlns="http://www.w3.org/2000/svg" xmlns:xlink="http://www.w3.org/1999/xlink">
  <g id="1">
    <title>Layer 1</title>
    <clipPath id="3">
      <use xlink:href="#2"/>
      <path id="2" d="M0,0 C0,0,1024,0,1024,0 C1024,0,1024,1024,1024,1024 C1024,1024,0,1024,0,1024 C0,1024,0,0,0,0 z"/>
    </clipPath>
    <g id="4" style="clip-path:url(#3);">
      <title>ClipGroup</title>
      <defs>
        <title>Shape 51</title>
        <g id="5">
          <defs>
            <path id="6" d="M512,998.4 C244.053,998.4,25.6,779.947,25.6,512 C25.6,244.053,244.053,25.6,512,25.6 C779.947,25.6,998.4,244.053,998.4,512 C998.4,779.947,779.947,998.4,512,998.4 z M512,76.8 C271.36,76.8,76.8,271.36,76.8,512 C76.8,752.64,271.36,947.2,512,947.2 C752.64,947.2,947.2,752.64,947.2,512 C947.2,271.36,752.64,76.8,512,76.8 z"/>
          </defs>
          <use xlink:href="#6" style="fill:#e1b12c;fill-opacity:1;fill-rule:evenodd;opacity:1;stroke:none;"/>
        </g>
      </defs>
      <use xlink:href="#5"/>
      <defs>
        <title>Shape 52</title>
        <g id="7">
          <defs>
            <path id="8" d="M512,25.6 C779.947,25.6,998.4,244.053,998.4,512 C998.4,779.947,779.947,998.4,512,998.4 C244.053,998.4,25.6,779.947,25.6,512 C25.6,244.053,244.053,25.6,512,25.6 M512,947.2 C752.64,947.2,947.2,752.64,947.2,512 C947.2,271.36,752.64,76.8,512,76.8 C271.36,76.8,76.8,271.36,76.8,512 C76.8,752.64,271.36,947.2,512,947.2 M512,8.53333 C233.813,8.53333,8.53333,233.813,8.53333,512 C8.53333,790.187,233.813,1015.47,512,1015.47 C790.187,1015.47,1015.47,790.187,1015.47,512 C1015.47,233.813,790.187,8.53333,512,8.53333 z M512,930.133 C281.6,930.133,93.8667,742.4,93.8667,512 C93.8667,281.6,281.6,93.8667,512,93.8667 C742.4,93.8667,930.133,281.6,930.133,512 C930.133,742.4,742.4,930.133,512,930.133 z"/>
          </defs>
          <use xlink:href="#8" style="fill:#e1b12c;fill-opacity:1;fill-rule:evenodd;opacity:1;stroke:none;"/>
        </g>
      </defs>
      <use xlink:href="#7"/>
      <defs>
        <title>Shape 53</title>
        <g id="9">
          <defs>
            <path id="10" d="M512,162.133 C319.147,162.133,162.133,319.147,162.133,512 C162.133,704.853,319.147,861.867,512,861.867 C704.853,861.867,861.867,704.853,861.867,512 C861.867,319.147,704.853,162.133,512,162.133 z M472.747,657.067 C472.747,670.72,459.093,679.253,442.027,679.253 C424.96,679.253,411.307,670.72,411.307,657.067 C411.307,560.356,411.307,463.644,411.307,366.933 C411.307,353.28,424.96,344.747,442.027,344.747 C459.093,344.747,472.747,353.28,472.747,366.933 C472.747,463.644,472.747,560.356,472.747,657.067 z M616.107,657.067 C616.107,670.72,602.453,679.253,585.387,679.253 C568.32,679.253,554.667,670.72,554.667,657.067 C554.667,560.356,554.667,463.644,554.667,366.933 C554.667,353.28,568.32,344.747,585.387,344.747 C602.453,344.747,616.107,353.28,616.107,366.933 C616.107,463.644,616.107,560.356,616.107,657.067 z"/>
          </defs>
          <use xlink:href="#10" style="fill:#e1b12c;fill-opacity:1;fill-rule:evenodd;opacity:1;stroke:none;"/>
        </g>
      </defs>
      <use xlink:href="#9"/>
    </g>
    <clipPath id="12">
      <use xlink:href="#11"/>
      <path id="11" d="M0,0 C0,0,1024,0,1024,0 C1024,0,1024,1024,1024,1024 C1024,1024,0,1024,0,1024 C0,1024,0,0,0,0 z"/>
    </clipPath>
    <g id="13" style="clip-path:url(#12);"/>
  </g>
</svg>
