<svg width="2834.648363649973" height="2834.648363649973" xmlns="http://www.w3.org/2000/svg">

 <g>
  <title>background</title>
  <rect height="402" width="582" y="-1" x="-1" fill="none" id="canvas_background"/>
 </g>
 <g>
  <title>Layer 1</title>
  <path d="m947.807739,1145.19104l0,-151.667603l-114.893066,30.962036c-41.743896,11.266724 -84.686279,-13.574341 -95.93512,-55.501892c-11.224976,-41.921448 13.492981,-85.065308 55.260681,-96.337341l155.567505,-41.804626l0,-151.692261l-114.893066,30.961975c-41.743896,11.296753 -84.686279,-13.550415 -95.93512,-55.471863c-11.224976,-41.921509 13.492981,-85.064697 55.260681,-96.33667l155.567505,-41.829285l0,-280.692337c0,-130.228325 105.099487,-235.781174 234.75061,-235.781174l469.532471,0c129.651855,0 234.744751,105.552849 234.744751,235.781174l0,28.132034l114.89978,-30.962769c27.009766,-7.318558 55.835205,0.405472 75.625488,20.261124c19.802002,19.836929 27.565674,48.761154 20.352051,75.910629c-7.214355,27.124756 -28.275635,48.349701 -55.285156,55.643524l-155.592163,41.829315l0,151.667603l114.89978,-30.962036c27.009766,-7.318542 55.835205,0.429443 75.625488,20.266357c19.802002,19.831665 27.565674,48.779907 20.352051,75.904724c-7.214355,27.149414 -28.275635,48.34967 -55.285156,55.662231l-155.592163,41.804565l0,151.667603l114.89978,-30.962036c27.009766,-7.287842 55.835205,0.429504 75.625488,20.267151c19.802002,19.830933 27.565674,48.779114 20.352051,75.90387c-7.214355,27.149475 -28.275635,48.34967 -55.285156,55.668213l-155.592163,41.798584l0,359.310791l391.271606,0c129.682617,0 234.782227,105.546143 234.782227,235.749756l0,314.343384c0,130.203613 -105.099609,235.775146 -234.782227,235.775146l-206.56665,0l-477.504395,548.226807c-44.586426,51.173828 -108.993896,80.533447 -176.689941,80.533447c-67.739258,0 -132.139893,-29.359619 -176.702393,-80.533447l-477.504456,-548.226807l-206.597473,0c-129.651794,0 -234.781189,-105.571533 -234.781189,-235.775146l0,-314.343384c0,-130.203613 105.129395,-235.749756 234.781189,-235.749756l391.271851,0l0,-106.72583l-114.893066,30.962891c-41.743896,11.271973 -84.686279,-13.550415 -95.93512,-55.496704c-11.224976,-41.921387 13.492981,-85.046509 55.260681,-96.343262l155.561523,-41.798706zm156.48999,-42.142578l626.053101,-168.478149l0,-151.52594l-626.053101,168.508179l0,151.495911zm0,162.847534l0,148.695923l626.053101,0l0,-317.19812l-626.053101,168.502197zm0,-477.190918l626.053101,-168.47821l0,-151.52597l-626.053101,168.477448l0,151.526733zm0,-314.344208l626.053101,-168.47821l0,-70.096237c0,-43.412933 -35.031006,-78.593735 -78.26001,-78.593735l-469.532471,0c-43.223633,0 -78.26062,35.180801 -78.26062,78.593735l0,238.574448zm-313.01123,1097.387787l-234.75061,0c-43.229736,0 -78.260651,35.180054 -78.260651,78.59375l0,314.343384c0,43.406982 35.030914,78.59375 78.260651,78.59375l234.75061,0l0,-471.530884zm1252.076294,471.530884l234.744385,0c43.22998,0 78.266846,-35.180054 78.266846,-78.59375l0,-314.343384c0,-43.406982 -35.031006,-78.59375 -78.266846,-78.59375l-234.744385,0l0,471.530884zm-156.527222,-471.530884l-939.034546,0l0,471.530884l939.034546,0l0,-471.530884zm-410.64563,1073.504272l316.447021,-363.221191l-750.612183,0l316.453247,363.073486c14.881104,17.031982 36.321045,26.793701 58.874268,26.793701c22.541016,0 43.981201,-9.761719 58.843506,-26.793701l0,0.147705l-0.005859,0zm0,0" fill="#c23616" id="svg_1"/>
 </g>
</svg>