<?xml version="1.0" encoding="utf-8"?>
<svg x="0pt" y="0pt" width="1024pt" height="1024pt" viewBox="0 0 1024 1024" xmlns="http://www.w3.org/2000/svg" xmlns:xlink="http://www.w3.org/1999/xlink">
  <g id="1">
    <title>Layer 1</title>
    <clipPath id="3">
      <use xlink:href="#2"/>
      <path id="2" d="M0,0 C0,0,1024,0,1024,0 C1024,0,1024,1024,1024,1024 C1024,1024,0,1024,0,1024 C0,1024,0,0,0,0 z"/>
    </clipPath>
    <g id="4" style="clip-path:url(#3);">
      <title>ClipGroup</title>
      <defs>
        <title>Shape 55</title>
        <g id="5">
          <defs>
            <path id="6" d="M664.646,645.566 C664.646,631.722,658.714,619.298,649.298,610.584 C658.714,601.87,664.646,589.446,664.646,575.602 C664.646,549.258,643.288,527.9,616.944,527.9 C616.944,527.9,403.876,527.9,403.876,527.9 C377.532,527.9,356.174,549.258,356.174,575.602 C356.174,589.446,362.104,601.87,371.522,610.584 C362.106,619.298,356.174,631.722,356.174,645.566 C356.174,659.41,362.104,671.834,371.522,680.548 C362.106,689.262,356.174,701.686,356.174,715.53 C356.174,718.8,356.504,721.988,357.132,725.07 C459.317,725.07,561.501,725.07,663.686,725.07 C664.312,721.988,664.644,718.798,664.644,715.53 C664.648,701.686,658.716,689.262,649.3,680.548 C658.714,671.834,664.646,659.408,664.646,645.566 z"/>
          </defs>
          <use xlink:href="#6" style="fill:#e6e6e6;fill-opacity:1;fill-rule:evenodd;opacity:1;stroke:none;"/>
        </g>
      </defs>
      <use xlink:href="#5"/>
      <defs>
        <title>Shape 56</title>
        <g id="7">
          <defs>
            <path id="8" d="M944.496,5.18 C918.152,5.18,896.794,26.538,896.794,52.882 C896.794,79.776,896.794,106.67,896.794,133.564 C896.794,133.564,136.746,133.564,136.746,133.564 C136.746,133.564,136.746,52.882,136.746,52.882 C136.746,26.538,115.388,5.18,89.044,5.18 C62.7,5.18,41.342,26.538,41.342,52.882 C41.342,276.944,41.342,501.006,41.342,725.068 C73.1433,725.068,104.945,725.068,136.746,725.068 C136.746,725.068,136.746,362.534,136.746,362.534 C206.931,362.534,277.117,362.534,347.302,362.534 C350.464,384.794,365.482,398.998,384.796,402.918 C384.796,417.017,384.796,431.117,384.796,445.216 C384.796,471.56,406.154,492.918,432.498,492.918 C458.842,492.918,480.2,471.56,480.2,445.216 C480.2,430.846,480.2,416.476,480.2,402.106 C497.962,397.196,511.528,381.614,514.514,362.532 C641.941,362.532,769.369,362.532,896.796,362.532 C896.796,483.377,896.796,604.221,896.796,725.066 C896.796,725.066,992.2,725.066,992.2,725.066 C992.2,725.066,992.2,52.882,992.2,52.882 C992.198,26.538,970.842,5.18,944.496,5.18 z M896.796,267.13 C896.796,267.13,136.746,267.13,136.746,267.13 C136.746,254.409,136.746,241.689,136.746,228.968 C390.096,228.968,643.446,228.968,896.796,228.968 C896.796,241.689,896.796,254.409,896.796,267.13 z M0,772.77 C0,806.691,0,840.613,0,874.534 C0,903.966,15.9,929.642,41.342,943.386 C41.342,952.629,41.342,961.873,41.342,971.116 C41.342,997.46,62.7,1018.82,89.044,1018.82 C115.388,1018.82,136.746,997.46,136.746,971.116 C136.746,965.423,136.746,959.729,136.746,954.036 C390.096,954.036,643.446,954.036,896.796,954.036 C896.796,959.729,896.796,965.423,896.796,971.116 C896.796,997.46,918.154,1018.82,944.498,1018.82 C970.842,1018.82,992.2,997.46,992.2,971.116 C992.2,959.712,992.2,948.308,992.2,936.904 C1011.28,922.342,1024,899.826,1024,874.532 C1024,840.611,1024,806.689,1024,772.768 C1024,772.768,0,772.768,0,772.768 z"/>
          </defs>
          <use xlink:href="#8" style="fill:#e6e6e6;fill-opacity:1;fill-rule:evenodd;opacity:1;stroke:none;"/>
        </g>
      </defs>
      <use xlink:href="#7"/>
    </g>
    <clipPath id="10">
      <use xlink:href="#9"/>
      <path id="9" d="M0,0 C0,0,1024,0,1024,0 C1024,0,1024,1024,1024,1024 C1024,1024,0,1024,0,1024 C0,1024,0,0,0,0 z"/>
    </clipPath>
    <g id="11" style="clip-path:url(#10);"/>
  </g>
</svg>
