<?xml version="1.0" encoding="UTF-8" standalone="no"?> <!-- Created with Vectornator for iOS (http://vectornator.io/) --><!DOCTYPE svg PUBLIC "-//W3C//DTD SVG 1.1//EN" "http://www.w3.org/Graphics/SVG/1.1/DTD/svg11.dtd">
<svg style="fill-rule:evenodd;clip-rule:evenodd;stroke-linecap:round;stroke-linejoin:round;" xmlns:vectornator="http://vectornator.io" xmlns:xlink="http://www.w3.org/1999/xlink" xmlns="http://www.w3.org/2000/svg" xml:space="preserve" version="1.1" viewBox="0 0 1024 1024">
<metadata>
<vectornator:setting key="DynamicGuides" value="1"/>
<vectornator:setting key="Units" value="Points"/>
<vectornator:setting key="GuidesVisible" value="1"/>
<vectornator:setting key="RulersVisible" value="1"/>
<vectornator:setting key="SnapToGuides" value="1"/>
<vectornator:setting key="GridSpacing" value="36"/>
</metadata>
<defs>
<path d="M0+0L1024+0L1024+1024L0+1024L0+0Z" id="Mask"/>
</defs>
<g id="Untitled" vectornator:layerName="Untitled">
<g opacity="1" vectornator:mask="#Mask">
<clipPath id="ClipPath">
<use xlink:href="#Mask" fill="none" overflow="visible"/>
</clipPath>
<g clip-path="url(#ClipPath)">
<g opacity="1">
<path d="M664.646+645.566C664.646+631.722+658.714+619.298+649.298+610.584C658.714+601.87+664.646+589.446+664.646+575.602C664.646+549.258+643.288+527.9+616.944+527.9L403.876+527.9C377.532+527.9+356.174+549.258+356.174+575.602C356.174+589.446+362.104+601.87+371.522+610.584C362.106+619.298+356.174+631.722+356.174+645.566C356.174+659.41+362.104+671.834+371.522+680.548C362.106+689.262+356.174+701.686+356.174+715.53C356.174+718.8+356.504+721.988+357.132+725.07C459.317+725.07+561.501+725.07+663.686+725.07C664.312+721.988+664.644+718.798+664.644+715.53C664.648+701.686+658.716+689.262+649.3+680.548C658.714+671.834+664.646+659.408+664.646+645.566Z" opacity="1" fill="#ff98fc"/>
<path d="M944.496+5.17999C918.152+5.17999+896.794+26.538+896.794+52.882C896.794+79.776+896.794+106.67+896.794+133.564L136.746+133.564L136.746+52.882C136.746+26.538+115.388+5.17999+89.044+5.17999C62.7+5.17999+41.342+26.538+41.342+52.882C41.342+276.944+41.342+501.006+41.342+725.068C73.1433+725.068+104.945+725.068+136.746+725.068L136.746+362.534C206.931+362.534+277.117+362.534+347.302+362.534C350.464+384.794+365.482+398.998+384.796+402.918C384.796+417.017+384.796+431.117+384.796+445.216C384.796+471.56+406.154+492.918+432.498+492.918C458.842+492.918+480.2+471.56+480.2+445.216C480.2+430.846+480.2+416.476+480.2+402.106C497.962+397.196+511.528+381.614+514.514+362.532C641.941+362.532+769.369+362.532+896.796+362.532C896.796+483.377+896.796+604.221+896.796+725.066L992.2+725.066L992.2+52.882C992.198+26.538+970.842+5.17999+944.496+5.17999ZM896.796+267.13L136.746+267.13C136.746+254.409+136.746+241.689+136.746+228.968C390.096+228.968+643.446+228.968+896.796+228.968C896.796+241.689+896.796+254.409+896.796+267.13ZM0+772.77C0+806.691+0+840.613+0+874.534C0+903.966+15.9+929.642+41.342+943.386C41.342+952.629+41.342+961.873+41.342+971.116C41.342+997.46+62.7+1018.82+89.044+1018.82C115.388+1018.82+136.746+997.46+136.746+971.116C136.746+965.423+136.746+959.729+136.746+954.036C390.096+954.036+643.446+954.036+896.796+954.036C896.796+959.729+896.796+965.423+896.796+971.116C896.796+997.46+918.154+1018.82+944.498+1018.82C970.842+1018.82+992.2+997.46+992.2+971.116C992.2+959.712+992.2+948.308+992.2+936.904C1011.28+922.342+1024+899.826+1024+874.532C1024+840.611+1024+806.689+1024+772.768L0+772.768L0+772.77Z" opacity="1" fill="#26b9ff"/>
</g>
</g>
</g>
</g>
</svg>
