<?xml version="1.0" standalone="no"?><!DOCTYPE svg PUBLIC "-//W3C//DTD SVG 1.1//EN" "http://www.w3.org/Graphics/SVG/1.1/DTD/svg11.dtd"><svg class="icon" width="200px" height="200.00px" viewBox="0 0 1024 1024" version="1.1" xmlns="http://www.w3.org/2000/svg"><path d="M511.642 924.328c-228.817 0-414.99-186.163-414.99-414.99s186.174-414.99 414.99-414.99c102.396 0 200.763 37.622 276.975 105.931 9.48 8.5 10.266 23.077 1.756 32.557-8.488 9.501-23.055 10.266-32.557 1.778-67.723-60.721-155.148-94.156-246.174-94.156-203.397 0-368.88 165.482-368.88 368.88s165.482 368.88 368.88 368.88c199.164 0 361.09-155.779 368.61-354.639 0.495-12.72 11.032-22.863 23.91-22.177 12.721 0.484 22.65 11.19 22.155 23.91-8.465 223.75-190.61 399.016-414.675 399.016z" fill="#22C67F" /><path d="M960.927 327.539l-65.21-65.21L544.76 613.287 300.192 368.72l-65.21 65.209 309.745 309.743 0.033-0.031 0.032 0.031z" fill="#74E8AE" /></svg>