<?xml version="1.0" standalone="no"?><!DOCTYPE svg PUBLIC "-//W3C//DTD SVG 1.1//EN" "http://www.w3.org/Graphics/SVG/1.1/DTD/svg11.dtd"><svg class="icon" width="200px" height="200.00px" viewBox="0 0 1024 1024" version="1.1" xmlns="http://www.w3.org/2000/svg"><path d="M824.551 680.026h-624.73c-17.698 0-32.059-14.353-32.059-32.06 0-17.715 14.361-32.067 32.059-32.067h624.73c17.698 0 32.059 14.353 32.059 32.067-0.001 17.708-14.361 32.06-32.059 32.06zM824.551 807.107h-624.73c-17.698 0-32.059-14.354-32.059-32.068 0-17.706 14.361-32.059 32.059-32.059h624.73c17.698 0 32.059 14.353 32.059 32.059-0.001 17.715-14.361 32.068-32.059 32.068z" fill="#d7a92a" /><path d="M352.938 537.792c-96.696 0-172.445-135.218-172.445-307.829 0-17.706 14.361-32.059 32.059-32.059 17.716 0 32.068 14.353 32.068 32.059 0 143.617 57.091 243.702 108.318 243.702 17.714 0 32.067 14.353 32.067 32.06 0 17.714-14.352 32.067-32.067 32.067zM582.063 537.792c-96.717 0-172.474-135.218-172.474-307.829 0-17.706 14.36-32.059 32.067-32.059s32.068 14.353 32.068 32.059c0 143.617 57.095 243.702 108.339 243.702 17.698 0 32.059 14.353 32.059 32.06 0 17.714-14.36 32.067-32.059 32.067zM811.818 537.792c-96.703 0-172.453-135.218-172.453-307.829 0-17.706 14.352-32.059 32.068-32.059 17.698 0 32.059 14.353 32.059 32.059 0 143.617 57.09 243.702 108.326 243.702 17.717 0 32.066 14.353 32.066 32.06 0.001 17.714-14.349 32.067-32.066 32.067z" fill="#d7a92a" /></svg>