<?xml version="1.0" encoding="utf-8"?>
<svg x="0pt" y="0pt" width="1024pt" height="1024pt" viewBox="0 0 1024 1024" xmlns="http://www.w3.org/2000/svg" xmlns:xlink="http://www.w3.org/1999/xlink">
  <g id="1">
    <title>Layer 1</title>
    <clipPath id="3">
      <use xlink:href="#2"/>
      <path id="2" d="M0,0 C0,0,1024,0,1024,0 C1024,0,1024,1024,1024,1024 C1024,1024,0,1024,0,1024 C0,1024,0,0,0,0 z"/>
    </clipPath>
    <g id="4" style="clip-path:url(#3);">
      <title>ClipGroup</title>
      <defs>
        <title>Shape 58</title>
        <g id="5">
          <defs>
            <path id="6" d="M512.029,1024 C380.84,1024,249.652,974.074,149.8,874.234 C-49.9373,674.508,-49.9373,349.481,149.8,149.789 C349.538,-49.903,674.553,-49.9144,874.245,149.789 C1073.98,349.515,1073.98,674.542,874.245,874.234 C774.405,974.074,643.217,1024,512.029,1024 z M512.029,40.9628 C391.324,40.9628,270.665,86.8872,178.782,178.748 C-4.9503,362.503,-4.9503,661.497,178.782,845.264 C362.514,1029.03,661.543,1028.97,845.298,845.264 C1029.05,661.555,1029.03,362.514,845.298,178.748 C753.392,86.8872,632.733,40.9627,512.029,40.9627 z"/>
          </defs>
          <use xlink:href="#6" style="fill:#44bd32;fill-opacity:1;fill-rule:evenodd;opacity:1;stroke:none;"/>
        </g>
      </defs>
      <use xlink:href="#5"/>
      <defs>
        <title>Shape 59</title>
        <g id="7">
          <defs>
            <path id="8" d="M484.819,342.198 C545.793,380.154,606.766,418.11,667.74,456.066 C707.593,480.875,707.593,538.884,667.74,563.692 C606.766,601.648,545.793,639.604,484.819,677.56 C442.599,703.855,387.94,673.479,387.94,623.747 C387.94,547.835,387.94,471.923,387.94,396.011 C387.951,346.28,442.61,315.915,484.819,342.198 z"/>
          </defs>
          <use xlink:href="#8" style="fill:#44bd32;fill-opacity:1;fill-rule:evenodd;opacity:1;stroke:none;"/>
        </g>
      </defs>
      <use xlink:href="#7"/>
    </g>
    <clipPath id="10">
      <use xlink:href="#9"/>
      <path id="9" d="M0,0 C0,0,1024,0,1024,0 C1024,0,1024,1024,1024,1024 C1024,1024,0,1024,0,1024 C0,1024,0,0,0,0 z"/>
    </clipPath>
    <g id="11" style="clip-path:url(#10);"/>
  </g>
</svg>
