<?xml version="1.0" encoding="UTF-8" standalone="no"?> <!-- Created with Vectornator for iOS (http://vectornator.io/) --><!DOCTYPE svg PUBLIC "-//W3C//DTD SVG 1.1//EN" "http://www.w3.org/Graphics/SVG/1.1/DTD/svg11.dtd">
<svg style="fill-rule:evenodd;clip-rule:evenodd;stroke-linecap:round;stroke-linejoin:round;" xmlns:vectornator="http://vectornator.io" xmlns:xlink="http://www.w3.org/1999/xlink" xmlns="http://www.w3.org/2000/svg" xml:space="preserve" version="1.1" viewBox="0 0 1024 1024">
<metadata>
<vectornator:setting key="DynamicGuides" value="1"/>
<vectornator:setting key="Units" value="Points"/>
<vectornator:setting key="GuidesVisible" value="1"/>
<vectornator:setting key="RulersVisible" value="1"/>
<vectornator:setting key="SnapToGuides" value="1"/>
<vectornator:setting key="GridSpacing" value="36"/>
</metadata>
<defs>
<path d="M0+0L1024+0L1024+1024L0+1024L0+0Z" id="Mask"/>
</defs>
<g id="Untitled" vectornator:layerName="Untitled">
<g opacity="1" vectornator:mask="#Mask">
<clipPath id="ClipPath">
<use xlink:href="#Mask" fill="none" overflow="visible"/>
</clipPath>
<g clip-path="url(#ClipPath)">
<g opacity="1">
<path d="M512.029+1024C380.84+1024+249.652+974.074+149.8+874.234C-49.9373+674.508-49.9373+349.481+149.8+149.789C349.538-49.903+674.553-49.9139+874.245+149.789C1073.98+349.515+1073.98+674.542+874.245+874.234C774.405+974.074+643.217+1024+512.029+1024ZM512.029+40.9628C391.324+40.9628+270.665+86.8872+178.782+178.748C-4.9503+362.503-4.9503+661.497+178.782+845.264C362.514+1029.03+661.543+1028.97+845.298+845.264C1029.05+661.555+1029.03+362.514+845.298+178.748C753.392+86.8872+632.733+40.9627+512.029+40.9627L512.029+40.9628Z" opacity="1" fill="#44bd32"/>
<path d="M484.819+342.198C545.793+380.154+606.766+418.11+667.74+456.066C707.593+480.875+707.593+538.884+667.74+563.692C606.766+601.648+545.793+639.604+484.819+677.56C442.599+703.855+387.94+673.479+387.94+623.747C387.94+547.835+387.94+471.923+387.94+396.011C387.951+346.28+442.61+315.915+484.819+342.198Z" opacity="1" fill="#44bd32"/>
</g>
</g>
</g>
</g>
</svg>
