<?xml version="1.0" standalone="no"?><!DOCTYPE svg PUBLIC "-//W3C//DTD SVG 1.1//EN" "http://www.w3.org/Graphics/SVG/1.1/DTD/svg11.dtd"><svg class="icon" width="200px" height="200.00px" viewBox="0 0 1024 1024" version="1.1" xmlns="http://www.w3.org/2000/svg"><path d="M924.16 544H469.76V89.6c0-11.264-9.216-20.48-20.48-20.48s-20.48 9.216-20.48 20.48v466.432L99.072 885.76c-7.936 7.936-7.936 20.992 0 28.928 4.096 4.096 9.216 5.888 14.592 5.888 5.12 0 10.496-2.048 14.592-5.888l329.728-329.728H924.16c11.264 0 20.48-9.216 20.48-20.48s-9.216-20.48-20.48-20.48z" fill="#ffffff" /><path d="M370.944 120.576l78.336-78.336 78.336 78.336M884.992 485.12l78.336 78.336-78.336 78.336M191.744 932.864H80.896v-110.848M308.736 884.48l-18.432 27.904 18.176 27.392H296.96l-10.496-17.664c-0.512-1.024-1.28-2.304-2.304-4.352h-0.256c0 0.256-0.768 1.536-2.56 4.352l-10.752 17.664h-11.264l18.688-27.136-17.92-28.16h11.52l10.24 18.432c0.512 1.024 1.28 2.56 2.304 4.352h0.256l13.568-22.784h10.752zM936.448 385.28l-25.088 63.744c-4.608 11.776-11.264 17.664-19.712 17.664-2.56 0-4.608-0.256-6.144-0.768v-8.704c1.792 0.768 3.84 1.024 5.376 1.024 4.352 0 7.68-2.56 9.984-7.68l4.352-9.984-21.76-55.296h10.752l14.336 41.472 1.28 4.608h0.256c0.256-1.024 0.512-2.56 1.28-4.352l15.104-41.728h9.984zM613.12 102.656h-45.824v-3.328l32.256-44.032h-29.184v-8.192h43.008v3.328L581.376 94.72h31.744v7.936z" fill="#ffffff" /></svg>