<?xml version="1.0" standalone="no"?><!DOCTYPE svg PUBLIC "-//W3C//DTD SVG 1.1//EN" "http://www.w3.org/Graphics/SVG/1.1/DTD/svg11.dtd"><svg class="icon" width="200px" height="200.00px" viewBox="0 0 1024 1024" version="1.1" xmlns="http://www.w3.org/2000/svg"><path d="M1021.036288 566.784h-0.768L547.948288 517.12a36.5568 36.5568 0 0 1-70.912 8.448 35.84 35.84 0 0 1-2.048-12.544 31.2064 31.2064 0 0 1 1.024-8.192 36.224 36.224 0 0 1 35.584-28.416V0h0.256a512.7936 512.7936 0 0 1 509.184 566.784z m-728.32-54.272a219.5712 219.5712 0 0 0 374.784 155.648A220.9024 220.9024 0 0 0 716.908288 592.896l69.376 22.784a288.5632 288.5632 0 0 1-51.456 87.296 292.9152 292.9152 0 1 1-286.72-476.16l15.104 71.68a219.7504 219.7504 0 0 0-170.496 214.016zM73.580288 512a437.76 437.76 0 0 0 748.032 309.76 430.6688 430.6688 0 0 0 102.656-161.28l69.632 22.784A511.5904 511.5904 0 1 1 402.284288 12.032l15.36 71.68A439.04 439.04 0 0 0 73.580288 512z" fill="#1296db" /></svg>