<?xml version="1.0" standalone="no"?><!DOCTYPE svg PUBLIC "-//W3C//DTD SVG 1.1//EN" "http://www.w3.org/Graphics/SVG/1.1/DTD/svg11.dtd"><svg class="icon" width="200px" height="200.00px" viewBox="0 0 1024 1024" version="1.1" xmlns="http://www.w3.org/2000/svg"><path d="M512 462.102c-27.558 0-49.898 22.34-49.898 49.898 0 27.558 22.34 49.898 49.898 49.898s49.898-22.34 49.898-49.898c0-27.558-22.34-49.898-49.898-49.898z m0-99.795c82.673 0 149.693 67.02 149.693 149.693 0 82.673-67.02 149.693-149.693 149.693S362.307 594.673 362.307 512c0-82.673 67.02-149.693 149.693-149.693z m-1.534-198.511L212.613 337.52v348.575l302.516 174.109 296.258-173.591V337.774L510.466 163.796z m49.95-86.396l300.921 173.979a99.794 99.794 0 0 1 49.846 86.396v348.839a99.797 99.797 0 0 1-49.343 86.103L565.581 946.308a99.795 99.795 0 0 1-100.232 0.39L162.833 772.589a99.796 99.796 0 0 1-50.016-86.493V337.52a99.797 99.797 0 0 1 49.516-86.204L460.187 77.591a99.796 99.796 0 0 1 100.229-0.191z" fill="#ffffff" /></svg>