<?xml version="1.0" encoding="utf-8"?>
<svg x="0pt" y="0pt" width="1024pt" height="1024pt" viewBox="0 0 1024 1024" xmlns="http://www.w3.org/2000/svg" xmlns:xlink="http://www.w3.org/1999/xlink">
  <g id="1">
    <title>Layer 1</title>
    <clipPath id="3">
      <use xlink:href="#2"/>
      <path id="2" d="M0,0 C0,0,1024,0,1024,0 C1024,0,1024,1024,1024,1024 C1024,1024,0,1024,0,1024 C0,1024,0,0,0,0 z"/>
    </clipPath>
    <g id="4" style="clip-path:url(#3);">
      <title>ClipGroup</title>
      <defs>
        <title>Shape 61</title>
        <g id="5">
          <defs>
            <path id="6" d="M512,1024 C450.242,1024,400,973.756,400,912 C400,901.135,400,890.269,400,879.404 C376.267,872.189,353.296,862.669,331.416,850.98 C323.727,858.669,316.038,866.359,308.348,874.048 C287.2,895.194,259.078,906.84,229.16,906.84 C199.228,906.84,171.098,895.194,149.952,874.048 C106.294,830.362,106.298,759.308,149.954,715.654 C157.644,707.965,165.333,700.275,173.022,692.586 C161.335,670.706,151.815,647.735,144.598,624.002 C144.598,624.002,112,624.002,112,624.002 C82.094,624.002,53.972,612.348,32.812,591.188 C11.652,570.028,0,541.904,0,512 C0,450.244,50.242,400,112,400 C122.866,400,133.732,400,144.598,400 C151.813,376.266,161.333,353.296,173.022,331.416 C165.333,323.727,157.643,316.038,149.954,308.348 C128.806,287.2,117.16,259.078,117.16,229.16 C117.16,199.23,128.806,171.1,149.952,149.952 C193.64,106.29,264.692,106.296,308.348,149.952 C316.037,157.641,323.727,165.331,331.416,173.02 C353.296,161.332,376.267,151.812,400,144.596 C400,144.596,400,112,400,112 C400,82.096,411.652,53.974,432.81,32.814 C453.972,11.654,482.094,0,512,0 C519.442,0,526.944,0.75,534.298,2.226 C586.306,12.792,624,58.954,624,112 C624,122.865,624,133.731,624,144.596 C647.734,151.811,670.704,161.331,692.584,173.02 C700.273,165.331,707.963,157.641,715.652,149.952 C736.8,128.806,764.922,117.16,794.84,117.16 C824.772,117.16,852.902,128.806,874.048,149.952 C917.706,193.638,917.702,264.692,874.046,308.346 C866.357,316.035,858.667,323.725,850.978,331.414 C862.665,353.294,872.185,376.265,879.402,399.998 C879.402,399.998,912,399.998,912,399.998 C941.906,399.998,970.028,411.652,991.188,432.812 C1012.35,453.972,1024,482.096,1024,512 C1024,573.756,973.758,624,912,624 C901.134,624,890.268,624,879.402,624 C872.187,647.733,862.667,670.704,850.978,692.584 C858.667,700.273,866.357,707.962,874.046,715.652 C895.192,736.8,906.838,764.922,906.838,794.84 C906.838,824.77,895.192,852.9,874.046,874.048 C852.204,895.876,823.514,906.79,794.838,906.792 C766.152,906.794,737.48,895.88,715.65,874.05 C707.961,866.36,700.271,858.671,692.582,850.982 C670.702,862.669,647.731,872.189,623.998,879.406 C623.998,879.406,623.998,912,623.998,912 C623.998,941.904,612.346,970.026,591.188,991.186 C575.562,1006.81,555.914,1017.38,534.368,1021.76 C534.345,1021.76,534.321,1021.77,534.298,1021.77 C526.957,1023.25,519.488,1023.99,512,1024 z M528,990.4 C528.007,990.4,528.013,990.4,528.02,990.4 z M326.15,779 C331.976,779,337.836,780.586,343.056,783.838 C372.84,802.386,405.198,815.794,439.232,823.69 C453.734,827.054,464,839.975,464,854.862 C464,854.862,464,912,464,912 C464,938.466,485.534,960,512,960 C515.202,960,518.444,959.676,521.642,959.038 C530.826,957.17,539.226,952.638,545.934,945.932 C555.004,936.86,560,924.81,560,912 C560,892.953,560,873.907,560,854.86 C560,839.973,570.266,827.052,584.768,823.688 C618.802,815.792,651.16,802.384,680.944,783.836 C693.576,775.969,709.964,777.849,720.486,788.372 C733.959,801.845,747.433,815.319,760.906,828.792 C779.616,847.5,810.072,847.5,828.798,828.784 C837.85,819.732,842.84,807.674,842.84,794.838 C842.84,782.016,837.852,769.964,828.792,760.906 C815.319,747.433,801.847,733.961,788.374,720.488 C777.851,709.966,775.97,693.578,783.836,680.946 C802.384,651.16,815.794,618.802,823.688,584.77 C827.052,570.268,839.973,560.002,854.86,560.002 C854.86,560.002,912,560.002,912,560.002 C938.466,560.002,960,538.468,960,512.002 C960,499.192,955.004,487.142,945.932,478.07 C936.862,468.996,924.81,464,912,464 C892.953,464,873.907,464,854.86,464 C839.973,464,827.052,453.734,823.688,439.232 C815.794,405.2,802.386,372.842,783.836,343.056 C775.97,330.424,777.85,314.036,788.374,303.514 C801.847,290.041,815.321,276.569,828.794,263.096 C847.504,244.386,847.502,213.93,828.786,195.204 C819.736,186.152,807.676,181.164,794.84,181.164 C782.018,181.164,769.964,186.154,760.906,195.212 C747.433,208.685,733.959,222.157,720.486,235.63 C709.964,246.154,693.576,248.034,680.944,240.166 C651.16,221.618,618.802,208.21,584.768,200.314 C570.266,196.948,560.001,184.027,560,169.14 C560,169.14,560,112,560,112 C560,89.26,543.864,69.476,521.628,64.958 C518.458,64.3238,515.233,64.0029,512,64 C499.19,64,487.138,68.996,478.066,78.068 C468.996,87.14,464,99.19,464,112 C464,131.047,464,150.093,464,169.14 C464,184.027,453.734,196.947,439.232,200.312 C405.198,208.208,372.84,221.616,343.056,240.164 C330.424,248.032,314.036,246.152,303.514,235.628 C290.041,222.155,276.567,208.681,263.094,195.208 C244.384,176.498,213.928,176.502,195.202,195.216 C186.15,204.268,181.16,216.326,181.16,229.162 C181.16,241.984,186.148,254.036,195.208,263.094 C208.681,276.567,222.153,290.039,235.626,303.512 C246.149,314.034,248.03,330.422,240.164,343.054 C221.616,372.84,208.206,405.198,200.312,439.23 C196.95,453.733,184.028,464.001,169.14,464 C169.14,464,112,464,112,464 C85.534,464,64,485.534,64,512 C64,524.81,68.996,536.86,78.068,545.932 C87.138,555.004,99.19,560,112,560 C131.047,560,150.093,560,169.14,560 C184.027,560,196.948,570.266,200.312,584.768 C208.206,618.8,221.614,651.158,240.164,680.944 C248.03,693.576,246.15,709.964,235.626,720.486 C222.153,733.959,208.679,747.431,195.206,760.904 C176.496,779.614,176.498,810.07,195.214,828.796 C204.264,837.848,216.324,842.836,229.16,842.836 C241.982,842.836,254.036,837.846,263.094,828.788 C276.567,815.315,290.041,801.843,303.514,788.37 C309.516,782.366,317.66,778.995,326.15,779 z"/>
          </defs>
          <use xlink:href="#6" style="fill:#e6e6e6;fill-opacity:1;fill-rule:evenodd;opacity:1;stroke:none;"/>
        </g>
      </defs>
      <use xlink:href="#5"/>
      <defs>
        <title>Shape 62</title>
        <g id="7">
          <defs>
            <path id="8" d="M512,736 C388.486,736,288,635.514,288,512 C288,388.486,388.486,288,512,288 C518.362,288,524.678,288.27,530.778,288.8 C586.474,293.378,638.262,318.63,676.448,359.896 C714.85,401.396,736,455.416,736,512 C736,568.584,714.85,622.604,676.448,664.104 C638.262,705.37,586.474,730.622,530.622,735.214 C524.678,735.73,518.362,736,512,736 z M512,352 C423.776,352,352,423.776,352,512 C352,600.224,423.776,672,512,672 C516.516,672,520.964,671.812,525.222,671.442 C607.596,664.67,672,594.642,672,512 C672,429.358,607.596,359.33,525.378,352.572 C520.929,352.188,516.466,351.997,512,352 z"/>
          </defs>
          <use xlink:href="#8" style="fill:#e6e6e6;fill-opacity:1;fill-rule:evenodd;opacity:1;stroke:none;"/>
        </g>
      </defs>
      <use xlink:href="#7"/>
    </g>
    <clipPath id="10">
      <use xlink:href="#9"/>
      <path id="9" d="M0,0 C0,0,1024,0,1024,0 C1024,0,1024,1024,1024,1024 C1024,1024,0,1024,0,1024 C0,1024,0,0,0,0 z"/>
    </clipPath>
    <g id="11" style="clip-path:url(#10);"/>
  </g>
</svg>
