<?xml version="1.0" standalone="no"?><!DOCTYPE svg PUBLIC "-//W3C//DTD SVG 1.1//EN" "http://www.w3.org/Graphics/SVG/1.1/DTD/svg11.dtd"><svg class="icon" width="200px" height="200.00px" viewBox="0 0 1024 1024" version="1.1" xmlns="http://www.w3.org/2000/svg"><path d="M88.359338 572.520095h847.281324a60.520095 60.520095 0 0 0 60.520095-60.520095 60.520095 60.520095 0 0 0-60.520095-60.520095H88.359338a60.520095 60.520095 0 0 0-60.520095 60.520095 60.520095 60.520095 0 0 0 60.520095 60.520095zM457.531915 886.619385v95.016549a42.364066 42.364066 0 0 0 84.728132 0v-95.016549h127.092199l-169.456265-254.184397-169.456265 254.184397zM457.531915 137.380615V42.364066a42.364066 42.364066 0 0 1 84.728132 0v95.016549h127.092199l-169.456265 254.184397L330.439716 137.380615z" fill="#ffffff" /></svg>