<?xml version="1.0" standalone="no"?><!DOCTYPE svg PUBLIC "-//W3C//DTD SVG 1.1//EN" "http://www.w3.org/Graphics/SVG/1.1/DTD/svg11.dtd"><svg class="icon" width="200px" height="200.00px" viewBox="0 0 1024 1024" version="1.1" xmlns="http://www.w3.org/2000/svg"><path d="M853.333333 298.666667H170.666667a42.666667 42.666667 0 0 1 0-85.333334h682.666666a42.666667 42.666667 0 0 1 0 85.333334z m-256-128h-170.666666a42.666667 42.666667 0 0 1 0-85.333334h170.666666a42.666667 42.666667 0 0 1 0 85.333334zM384 725.333333v-298.666666a42.666667 42.666667 0 0 1 85.333333 0v298.666666a42.666667 42.666667 0 0 1-85.333333 0z m170.666667 0v-298.666666a42.666667 42.666667 0 0 1 85.333333 0v298.666666a42.666667 42.666667 0 0 1-85.333333 0zM256 341.333333a42.666667 42.666667 0 0 1 42.666667 42.666667v426.666667a42.666667 42.666667 0 0 0 42.666666 42.666666h341.333334a42.666667 42.666667 0 0 0 42.666666-42.666666V384a42.666667 42.666667 0 0 1 85.333334 0v426.666667a128 128 0 0 1-128 128H341.333333a128 128 0 0 1-128-128V384a42.666667 42.666667 0 0 1 42.666667-42.666667z" fill="#d81e06" /></svg>