<?xml version="1.0" standalone="no"?><!DOCTYPE svg PUBLIC "-//W3C//DTD SVG 1.1//EN" "http://www.w3.org/Graphics/SVG/1.1/DTD/svg11.dtd"><svg class="icon" width="200px" height="200.00px" viewBox="0 0 1024 1024" version="1.1" xmlns="http://www.w3.org/2000/svg"><path d="M810.666667 896H213.333333a128 128 0 0 1-128-128v-256a42.666667 42.666667 0 0 1 85.333334 0v256a42.666667 42.666667 0 0 0 42.666666 42.666667h597.333334a42.666667 42.666667 0 0 0 42.666666-42.666667v-256a42.666667 42.666667 0 0 1 85.333334 0v256a128 128 0 0 1-128 128zM694.784 414.336L554.666667 274.218667V597.333333a42.666667 42.666667 0 0 1-85.333334 0V274.218667L329.216 414.336a43.050667 43.050667 0 0 1-60.885333-60.885333l213.333333-213.333334a43.349333 43.349333 0 0 1 61.098667 0l213.333333 213.333334a43.221333 43.221333 0 0 1-61.312 60.885333z" fill="#1296db" /></svg>