<?xml version="1.0" standalone="no"?><!DOCTYPE svg PUBLIC "-//W3C//DTD SVG 1.1//EN" "http://www.w3.org/Graphics/SVG/1.1/DTD/svg11.dtd"><svg class="icon" width="200px" height="200.00px" viewBox="0 0 1024 1024" version="1.1" xmlns="http://www.w3.org/2000/svg"><path d="M163.886097 288.993415v590.509878a144.496707 144.496707 0 0 0 144.496707 144.496707h407.480715a144.496707 144.496707 0 0 0 144.496707-144.496707V288.993415z m203.499529 541.862653a36.124177 36.124177 0 0 1-72.248353 0v-409.407338a36.124177 36.124177 0 0 1 72.248353 0z m180.620885 0a36.124177 36.124177 0 0 1-72.248354 0v-409.407338a36.124177 36.124177 0 0 1 72.248354 0z m180.620884 0a36.124177 36.124177 0 0 1-72.248354 0v-409.407338a36.124177 36.124177 0 0 1 72.248354 0z" fill="#ff1f1f" /><path d="M11.682898 96.331138m63.096896 0l874.20508 0q63.096896 0 63.096895 63.096896l0 0.240828q0 63.096896-63.096895 63.096895l-874.20508 0q-63.096896 0-63.096896-63.096895l0-0.240828q0-63.096896 63.096896-63.096896Z" fill="#ff1f1f" /><path d="M401.824008 0m99.943556 0l20.229539 0q99.943556 0 99.943556 99.943556l0 0.240828q0 99.943556-99.943556 99.943556l-20.229539 0q-99.943556 0-99.943556-99.943556l0-0.240828q0-99.943556 99.943556-99.943556Z" fill="#ff1f1f" /></svg>