<?xml version="1.0" standalone="no"?><!DOCTYPE svg PUBLIC "-//W3C//DTD SVG 1.1//EN" "http://www.w3.org/Graphics/SVG/1.1/DTD/svg11.dtd"><svg class="icon" width="200px" height="200.00px" viewBox="0 0 1024 1024" version="1.1" xmlns="http://www.w3.org/2000/svg"><path d="M277.333333 341.333333a42.666667 42.666667 0 1 1 0 85.333334H208.384a10.666667 10.666667 0 0 0-9.429333 5.717333l-88.917334 192A10.666667 10.666667 0 0 0 119.466667 640h157.866666A64 64 0 0 1 341.333333 704 64 64 0 0 0 405.333333 768h213.333334a64 64 0 0 0 64-64 64 64 0 0 1 64-64h156.928a10.666667 10.666667 0 0 0 9.386666-15.744l-92.544-192a10.666667 10.666667 0 0 0-9.386666-5.589333H725.333333a42.666667 42.666667 0 0 1 0-85.333334h95.573334c30.122667 0.256 57.6 17.066667 71.594666 43.776l126.549334 256c2.986667 6.314667 4.693333 13.226667 4.949333 20.224v298.666667a64 64 0 0 1-64 64h-896A64 64 0 0 1 0 960v-298.666667c0.512-6.997333 2.261333-13.866667 5.205333-20.266666l125.44-256A81.365333 81.365333 0 0 1 202.069333 341.333333zM512 0a32 32 0 0 1 25.6 12.8l117.504 156.458667a32.042667 32.042667 0 0 1-25.6 51.2h-42.666667a10.624 10.624 0 0 0-10.666666 10.666666V490.666667a64 64 0 1 1-128 0V231.082667a10.624 10.624 0 0 0-10.666667-10.666667h-42.666667a32 32 0 0 1-25.6-51.2L486.4 12.8A32 32 0 0 1 512 0z" fill="#1890ff" /></svg>