<?xml version="1.0" standalone="no"?><!DOCTYPE svg PUBLIC "-//W3C//DTD SVG 1.1//EN" "http://www.w3.org/Graphics/SVG/1.1/DTD/svg11.dtd"><svg class="icon" width="200px" height="200.00px" viewBox="0 0 1024 1024" version="1.1" xmlns="http://www.w3.org/2000/svg"><path d="M 516.373 511.627 m -503.627 0 a 503.627 503.627 0 1 0 1007.25 0 a 503.627 503.627 0 1 0 -1007.25 0 Z" fill="#6f6655" /><path d="M 513.049 508.823 m -504.927 0 a 504.927 504.927 0 1 0 1009.85 0 a 504.927 504.927 0 1 0 -1009.85 0 Z" fill="#d81e06" /><path d="M 707.829 530.275 l -84 -81.025 c -9.085 -8.754 -23.539 -8.509 -32.294 0.557 c -8.755 9.106 -8.507 23.54 0.578 32.294 l 84 81.046 c 9.087 8.758 23.539 8.468 32.296 -0.597 c 8.753 -9.066 8.507 -23.518 -0.58 -32.275 Z M 606.527 631.949 l -84 -81.024 c -9.087 -8.755 -23.539 -8.485 -32.296 0.578 c -8.755 9.085 -8.507 23.518 0.58 32.272 l 84 81.027 c 9.083 8.755 23.539 8.507 32.292 -0.557 c 8.758 -9.086 8.507 -23.538 -0.576 -32.296 Z" fill="#ffffff" /><path d="M 898.374 828.034 c -4.208 5.121 -11.771 5.857 -16.891 1.648 L 751.702 722.974 c -5.12 -4.21 -5.858 -11.771 -1.648 -16.89 l 26.678 -32.447 c 4.208 -5.12 11.772 -5.857 16.891 -1.648 L 923.404 778.7 c 5.12 4.208 5.858 11.77 1.648 16.889 l -26.678 32.445 Z M 284.521 307.854 c -4.451 4.911 -12.04 5.281 -16.95 0.829 L 143.1 195.824 c -4.91 -4.452 -5.282 -12.041 -0.83 -16.95 l 28.216 -31.119 c 4.451 -4.91 12.041 -5.281 16.95 -0.829 l 124.471 112.859 c 4.91 4.451 5.282 12.04 0.83 16.95 l -28.216 31.119 Z" fill="#ffffff" /><path d="M 323.52 572.689 l 51.562 -85.187 l 66.596 -82.349 l 72.556 -66.064 l 60.397 -41.115 c -97.983 -80.865 -228.899 -85.093 -294.967 -8.51 c -64.204 74.422 -43.935 198.231 43.856 283.225 Z M 759.331 449.667 l -48.253 87.104 l -63.383 84.845 l -69.965 68.804 l -58.772 43.405 c 101.017 77.041 231.998 76.237 295.074 -2.827 c 61.298 -76.834 36.287 -199.771 -54.701 -281.331 Z" fill="#ffffff" /></svg>