<?xml version="1.0" standalone="no"?><!DOCTYPE svg PUBLIC "-//W3C//DTD SVG 1.1//EN" "http://www.w3.org/Graphics/SVG/1.1/DTD/svg11.dtd"><svg class="icon" width="200px" height="200.00px" viewBox="0 0 1024 1024" version="1.1" xmlns="http://www.w3.org/2000/svg"><path d="M894.08 894.08a153.088 153.088 0 0 1-216.405333 0l-181.589334-181.632a326.954667 326.954667 0 0 1-394.112-418.133333 41.514667 41.514667 0 0 1 11.776-31.530667v-0.256a42.069333 42.069333 0 0 1 59.477334 0l148.693333 148.693333 89.216-89.216-148.693333-148.693333a42.069333 42.069333 0 0 1 0-59.477333h0.256a41.514667 41.514667 0 0 1 31.530666-11.776 326.954667 326.954667 0 0 1 418.133334 394.112l181.632 181.589333a153.088 153.088 0 0 1 0.085333 216.32z m-325.973333-653.098667a238.208 238.208 0 0 0-188.117334-69.162666l90.709334 90.752a84.096 84.096 0 0 1 0 118.954666l-89.173334 89.173334a84.096 84.096 0 0 1-118.954666 0L171.818667 379.989333a238.208 238.208 0 0 0 69.162666 188.117334 231.424 231.424 0 1 0 327.125334-327.125334z m264.149333 498.517334l-156.757333-156.714667a299.178667 299.178667 0 0 1-92.714667 92.714667l156.714667 156.757333a65.578667 65.578667 0 0 0 92.757333-92.757333z" fill="#ffffff" /></svg>