<?xml version="1.0" standalone="no"?><!DOCTYPE svg PUBLIC "-//W3C//DTD SVG 1.1//EN" "http://www.w3.org/Graphics/SVG/1.1/DTD/svg11.dtd"><svg class="icon" width="200px" height="200.00px" viewBox="0 0 1024 1024" version="1.1" xmlns="http://www.w3.org/2000/svg"><path d="M711.594667 426.666667l-28.373334-255.530667L938.666667 199.594667l-73.898667 73.941333A422.4 422.4 0 0 1 938.666667 512a426.666667 426.666667 0 0 1-426.666667 426.666667 42.666667 42.666667 0 0 1 0-85.333334 341.333333 341.333333 0 0 0 341.333333-341.333333 337.877333 337.877333 0 0 0-50.048-176.896zM512 170.666667a341.333333 341.333333 0 0 0-341.333333 341.333333 337.877333 337.877333 0 0 0 50.048 176.896L312.405333 597.333333l28.373334 255.530667L85.333333 824.405333l73.898667-73.941333A422.4 422.4 0 0 1 85.333333 512 426.666667 426.666667 0 0 1 512 85.333333a42.666667 42.666667 0 0 1 0 85.333334z" fill="#d4237a" /></svg>