<?xml version="1.0" standalone="no"?><!DOCTYPE svg PUBLIC "-//W3C//DTD SVG 1.1//EN" "http://www.w3.org/Graphics/SVG/1.1/DTD/svg11.dtd"><svg class="icon" width="200px" height="200.00px" viewBox="0 0 1024 1024" version="1.1" xmlns="http://www.w3.org/2000/svg"><path d="M1017.812884 408.263411l-167.073684 21.654905 83.526063-111.378863-46.403368-34.029137-120.648758 157.771452-207.279158 27.842021L637.272926 278.312421l185.624253-77.338947-24.791579-55.684042-126.835874 52.590484 61.871158-154.677895-55.684042-21.654905-61.871158 154.688673-55.684042-126.835873-55.684042 21.654905 77.338947 182.530695-77.338947 194.894147-126.835874-163.958568 24.791579-197.998484-61.871158-9.280674-15.467789 139.220884L222.746947 83.429053l-49.496926 37.122694 105.180968 133.033769-139.220884-18.561348-9.280673 58.7776 197.998484 24.791579 129.929431 167.073685-207.279158 27.842021L92.806737 392.860295l-37.122695 46.349473 111.368084 86.619621-167.073684 21.654906 9.280674 58.7776 167.073684-21.654906-86.587284 111.368085 49.486147 34.061473 120.648758-157.771452 204.1856-27.842021-77.338947 194.904926-185.613474 77.338947 24.791579 52.590485 129.929432-52.590485-64.964716 154.677895 55.684042 21.654905 64.964716-154.677894 52.590484 129.929431 55.684042-24.791579-77.338947-182.530694 77.338947-194.894148 129.929432 167.073684-24.791579 197.998485 58.7776 6.187115L702.269979 798.073263l102.119747 133.02299 46.403369-37.122695-102.087411-133.02299 139.220884 18.561348 6.187116-58.7776-197.998484-24.791579-126.835874-167.073684 207.279158-27.842021L934.340716 621.675789l37.122695-46.349473-111.368085-86.619621 163.958569-21.654906z" fill="#2494fb" /></svg>