<?xml version="1.0" encoding="UTF-8" standalone="no"?> <!-- Created with Vectornator for iOS (http://vectornator.io/) --><!DOCTYPE svg PUBLIC "-//W3C//DTD SVG 1.1//EN" "http://www.w3.org/Graphics/SVG/1.1/DTD/svg11.dtd">
<svg style="fill-rule:evenodd;clip-rule:evenodd;stroke-linecap:round;stroke-linejoin:round;" xmlns:vectornator="http://vectornator.io" xmlns:xlink="http://www.w3.org/1999/xlink" xmlns="http://www.w3.org/2000/svg" xml:space="preserve" version="1.1" viewBox="0 0 1024 1024">
<metadata>
<vectornator:setting key="DynamicGuides" value="1"/>
<vectornator:setting key="Units" value="Points"/>
<vectornator:setting key="GuidesVisible" value="1"/>
<vectornator:setting key="RulersVisible" value="1"/>
<vectornator:setting key="SnapToGuides" value="1"/>
<vectornator:setting key="GridSpacing" value="36"/>
</metadata>
<defs>
<path d="M0+0L1024+0L1024+1024L0+1024L0+0Z" id="Mask"/>
</defs>
<g id="Untitled" vectornator:layerName="Untitled">
<g opacity="1" vectornator:mask="#Mask">
<clipPath id="ClipPath">
<use xlink:href="#Mask" fill="none" overflow="visible"/>
</clipPath>
<g clip-path="url(#ClipPath)">
<path d="M414.592+925.231C414.819+933.208+411.75+940.926+406.107+946.569C400.464+952.212+392.746+955.281+384.769+955.054C376.792+955.281+369.074+952.212+363.431+946.569C357.788+940.926+354.719+933.208+354.946+925.231L354.946+165.815L117.38+403.38C111.959+409.117+104.408+412.359+96.5144+412.337C88.6211+412.359+81.0698+409.117+75.6485+403.38C69.9115+397.959+66.6699+390.408+66.6914+382.514C66.6914+374.575+69.6941+367.603+75.6485+361.649C175.058+263.257+274.468+164.865+373.878+66.4726C377.169+65.794+380.46+65.1155+383.751+64.4369C389.723+66.0994+395.694+67.7619+401.665+69.4244C405.635+75.0564+409.604+80.6885+413.574+86.3206C413.913+88.3054+414.253+90.2902+414.592+92.275C414.592+369.927+414.592+647.579+414.592+925.231ZM948.352+615.093C954.089+620.514+957.33+628.065+957.309+635.959C957.33+643.853+954.088+651.404+948.351+656.825C853.589+751.604+758.828+846.382+664.066+941.161C658.773+949.762+650.478+954.393+639.231+955.055C631.254+955.282+623.535+952.213+617.892+946.57C612.25+940.927+609.181+933.209+609.408+925.232L609.408+94.2598C609.18+86.2827+612.25+78.5643+617.893+72.9214C623.536+67.2785+631.254+64.2095+639.231+64.4369C647.208+64.2096+654.926+67.2787+660.569+72.9216C666.212+78.5645+669.281+86.2828+669.054+94.2598C669.054+347.059+669.054+599.859+669.054+852.659C748.242+773.47+827.431+694.281+906.62+615.093C912.05+609.375+919.6+606.152+927.486+606.187C935.425+606.187+942.397+609.138+948.351+615.093L948.352+615.093Z" opacity="1" fill="#f5f6fa"/>
</g>
</g>
</g>
</svg>
