<?xml version="1.0" encoding="utf-8"?>
<svg x="0pt" y="0pt" width="1024pt" height="1024pt" viewBox="0 0 1024 1024" xmlns="http://www.w3.org/2000/svg" xmlns:xlink="http://www.w3.org/1999/xlink">
  <g id="1">
    <title>Layer 1</title>
    <clipPath id="3">
      <use xlink:href="#2"/>
      <path id="2" d="M0,0 C0,0,1024,0,1024,0 C1024,0,1024,1024,1024,1024 C1024,1024,0,1024,0,1024 C0,1024,0,0,0,0 z"/>
    </clipPath>
    <g id="4" style="clip-path:url(#3);">
      <title>ClipGroup</title>
      <defs>
        <title>Shape 64</title>
        <g id="5">
          <defs>
            <path id="6" d="M414.592,925.231 C414.819,933.208,411.75,940.926,406.107,946.569 C400.464,952.212,392.746,955.281,384.769,955.054 C376.792,955.281,369.074,952.212,363.431,946.569 C357.788,940.926,354.719,933.208,354.946,925.231 C354.946,925.231,354.946,165.815,354.946,165.815 C354.946,165.815,117.38,403.38,117.38,403.38 C111.959,409.117,104.408,412.359,96.5144,412.337 C88.6211,412.359,81.0698,409.117,75.6485,403.38 C69.9115,397.959,66.6699,390.408,66.6914,382.514 C66.6914,374.575,69.6941,367.603,75.6485,361.649 C175.058,263.257,274.468,164.865,373.878,66.4726 C377.169,65.794,380.46,65.1155,383.751,64.4369 C389.723,66.0994,395.694,67.7619,401.665,69.4244 C405.635,75.0564,409.604,80.6885,413.574,86.3206 C413.913,88.3054,414.253,90.2902,414.592,92.275 C414.592,369.927,414.592,647.579,414.592,925.231 z M948.352,615.093 C954.089,620.514,957.33,628.065,957.309,635.959 C957.33,643.853,954.088,651.404,948.351,656.825 C853.589,751.604,758.828,846.382,664.066,941.161 C658.773,949.762,650.478,954.393,639.231,955.055 C631.254,955.282,623.535,952.213,617.892,946.57 C612.25,940.927,609.181,933.209,609.408,925.232 C609.408,925.232,609.408,94.2598,609.408,94.2598 C609.18,86.2827,612.25,78.5643,617.893,72.9214 C623.536,67.2785,631.254,64.2095,639.231,64.4369 C647.208,64.2096,654.926,67.2787,660.569,72.9216 C666.212,78.5645,669.281,86.2828,669.054,94.2598 C669.054,347.059,669.054,599.859,669.054,852.659 C748.242,773.47,827.431,694.281,906.62,615.093 C912.05,609.375,919.6,606.152,927.486,606.187 C935.425,606.187,942.397,609.138,948.351,615.093 z"/>
          </defs>
          <use xlink:href="#6" style="fill:#f5f6fa;fill-opacity:1;fill-rule:evenodd;opacity:1;stroke:none;"/>
        </g>
      </defs>
      <use xlink:href="#5"/>
    </g>
    <clipPath id="8">
      <use xlink:href="#7"/>
      <path id="7" d="M0,0 C0,0,1024,0,1024,0 C1024,0,1024,1024,1024,1024 C1024,1024,0,1024,0,1024 C0,1024,0,0,0,0 z"/>
    </clipPath>
    <g id="9" style="clip-path:url(#8);"/>
  </g>
</svg>
