<?xml version="1.0" standalone="no"?><!DOCTYPE svg PUBLIC "-//W3C//DTD SVG 1.1//EN" "http://www.w3.org/Graphics/SVG/1.1/DTD/svg11.dtd"><svg class="icon" width="200px" height="160.00px" viewBox="0 0 1280 1024" version="1.1" xmlns="http://www.w3.org/2000/svg"><path d="M1280.0178 842.68v64a48 48 0 0 1-48 48H624.0178a48 48 0 0 1-48-48v-64a48 48 0 0 1 48-48h608a48 48 0 0 1 48 48z" fill="#ffffff" /><path d="M59.4178 929.32L14.0178 884a48 48 0 0 1 0-67.8l308-309.52L14.0178 197.2a48 48 0 0 1 0-67.8L59.4178 84a48 48 0 0 1 67.88 0L516.0178 472.74a48 48 0 0 1 0 67.88L127.2978 929.32a48 48 0 0 1-67.88 0z" fill="#ffffff" /></svg>