<?xml version="1.0" encoding="utf-8"?>
<svg x="0pt" y="0pt" width="1024pt" height="1024pt" viewBox="0 0 1024 1024" xmlns="http://www.w3.org/2000/svg" xmlns:xlink="http://www.w3.org/1999/xlink">
  <g id="1">
    <title>Layer 1</title>
    <clipPath id="3">
      <use xlink:href="#2"/>
      <path id="2" d="M0,0 C0,0,1024,0,1024,0 C1024,0,1024,1024,1024,1024 C1024,1024,0,1024,0,1024 C0,1024,0,0,0,0 z"/>
    </clipPath>
    <g id="4" style="clip-path:url(#3);">
      <title>ClipGroup</title>
      <defs>
        <title>Shape 66</title>
        <g id="5">
          <defs>
            <path id="6" d="M606.686,573.218 C606.686,563.439,606.686,553.66,606.686,543.881 C639.357,543.881,672.028,543.881,704.7,543.881 C704.7,553.66,704.7,563.439,704.7,573.218 C672.028,573.218,639.357,573.218,606.686,573.218 z M606.686,479.198 C639.357,479.198,672.028,479.198,704.7,479.198 C704.7,489.643,704.7,500.087,704.7,510.532 C672.028,510.532,639.357,510.532,606.686,510.532 C606.686,500.087,606.686,489.643,606.686,479.198 z M606.686,416.478 C639.357,416.478,672.028,416.478,704.7,416.478 C704.7,426.928,704.7,437.379,704.7,447.829 C672.028,447.829,639.357,447.829,606.686,447.829 C606.686,437.379,606.686,426.928,606.686,416.478 z M606.686,351.778 C639.357,351.778,672.028,351.778,704.7,351.778 C704.7,362.223,704.7,372.668,704.7,383.113 C672.028,382.453,639.357,381.793,606.686,381.133 C606.686,371.354,606.686,361.574,606.686,351.795 z M606.686,285.082 C639.357,285.082,672.028,285.082,704.7,285.082 C704.7,296.198,704.7,307.314,704.7,318.43 C672.028,318.43,639.357,318.43,606.686,318.43 C606.686,307.314,606.686,296.198,606.686,285.082 z M606.686,222.396 C639.357,222.396,672.028,222.396,704.7,222.396 C704.7,232.846,704.7,243.297,704.7,253.747 C672.028,253.747,639.357,253.747,606.686,253.747 C606.686,253.747,606.686,222.379,606.686,222.379 z M663.45,772.898 C663.45,876.766,579.226,960.99,475.358,960.99 C371.49,960.99,287.266,876.766,287.266,772.898 C287.266,701.662,324.864,639.744,383.232,607.812 C383.232,607.812,383.232,189.03,383.232,189.03 C383.232,137.097,427.332,95.0101,479.266,95.0101 C531.2,95.0101,573.32,137.097,573.32,189.03 C573.32,330.206,573.32,471.381,573.32,612.557 C627.336,645.649,663.467,704.973,663.467,772.915 z M541.986,631.518 C541.986,631.518,541.986,189.03,541.986,189.03 C541.986,166.635,530.038,145.941,510.643,134.743 C491.248,123.545,467.352,123.545,447.957,134.743 C428.562,145.941,416.614,166.635,416.614,189.03 C416.614,335.28,416.614,481.53,416.614,627.78 C359.202,651.076,318.635,707.14,318.635,772.898 C319.899,858.552,389.694,927.325,475.358,927.325 C561.021,927.325,630.817,858.552,632.081,772.898 C632.115,710.246,595.115,656.64,542.003,631.518 z M475.358,898.304 C442.098,898.304,410.201,885.092,386.682,861.574 C363.164,838.055,349.952,806.158,349.952,772.898 C349.952,713.097,391.902,663.262,447.932,650.718 C447.932,650.718,447.932,351.778,447.932,351.778 C468.838,351.778,489.745,351.778,510.652,351.778 C510.652,452.238,510.652,552.698,510.652,653.158 C562.586,668.484,600.764,715.998,600.764,772.898 C600.764,806.158,587.551,838.055,564.033,861.574 C540.515,885.092,508.618,898.304,475.358,898.304 z"/>
          </defs>
          <use xlink:href="#6" style="fill:#e6e6e6;fill-opacity:1;fill-rule:evenodd;opacity:1;stroke:none;"/>
        </g>
      </defs>
      <use xlink:href="#5"/>
    </g>
    <clipPath id="8">
      <use xlink:href="#7"/>
      <path id="7" d="M0,0 C0,0,1024,0,1024,0 C1024,0,1024,1024,1024,1024 C1024,1024,0,1024,0,1024 C0,1024,0,0,0,0 z"/>
    </clipPath>
    <g id="9" style="clip-path:url(#8);"/>
  </g>
</svg>
