<?xml version="1.0" encoding="UTF-8" standalone="no"?> <!-- Created with Vectornator for iOS (http://vectornator.io/) --><!DOCTYPE svg PUBLIC "-//W3C//DTD SVG 1.1//EN" "http://www.w3.org/Graphics/SVG/1.1/DTD/svg11.dtd">
<svg style="fill-rule:evenodd;clip-rule:evenodd;stroke-linecap:round;stroke-linejoin:round;" xmlns:vectornator="http://vectornator.io" xmlns:xlink="http://www.w3.org/1999/xlink" xmlns="http://www.w3.org/2000/svg" xml:space="preserve" version="1.1" viewBox="0 0 1024 1024">
<metadata>
<vectornator:setting key="DynamicGuides" value="1"/>
<vectornator:setting key="Units" value="Points"/>
<vectornator:setting key="GuidesVisible" value="1"/>
<vectornator:setting key="RulersVisible" value="1"/>
<vectornator:setting key="SnapToGuides" value="1"/>
<vectornator:setting key="GridSpacing" value="36"/>
</metadata>
<defs>
<path d="M0+0L1024+0L1024+1024L0+1024L0+0Z" id="Mask"/>
</defs>
<g id="Untitled" vectornator:layerName="Untitled">
<g opacity="1" vectornator:mask="#Mask">
<clipPath id="ClipPath">
<use xlink:href="#Mask" fill="none" overflow="visible"/>
</clipPath>
<g clip-path="url(#ClipPath)">
<path d="M606.686+573.218C606.686+563.439+606.686+553.66+606.686+543.881C639.357+543.881+672.028+543.881+704.7+543.881C704.7+553.66+704.7+563.439+704.7+573.218C672.028+573.218+639.357+573.218+606.686+573.218ZM606.686+479.198C639.357+479.198+672.028+479.198+704.7+479.198C704.7+489.643+704.7+500.087+704.7+510.532C672.028+510.532+639.357+510.532+606.686+510.532C606.686+500.087+606.686+489.643+606.686+479.198ZM606.686+416.478C639.357+416.478+672.028+416.478+704.7+416.478C704.7+426.928+704.7+437.379+704.7+447.829C672.028+447.829+639.357+447.829+606.686+447.829C606.686+437.379+606.686+426.928+606.686+416.478ZM606.686+351.778C639.357+351.778+672.028+351.778+704.7+351.778C704.7+362.223+704.7+372.668+704.7+383.113C672.028+382.453+639.357+381.793+606.686+381.133C606.686+371.354+606.686+361.574+606.686+351.795L606.686+351.778ZM606.686+285.082C639.357+285.082+672.028+285.082+704.7+285.082C704.7+296.198+704.7+307.314+704.7+318.43C672.028+318.43+639.357+318.43+606.686+318.43C606.686+307.314+606.686+296.198+606.686+285.082ZM606.686+222.396C639.357+222.396+672.028+222.396+704.7+222.396C704.7+232.846+704.7+243.297+704.7+253.747C672.028+253.747+639.357+253.747+606.686+253.747L606.686+222.379L606.686+222.396ZM663.45+772.898C663.45+876.766+579.226+960.99+475.358+960.99C371.49+960.99+287.266+876.766+287.266+772.898C287.266+701.662+324.864+639.744+383.232+607.812L383.232+189.03C383.232+137.097+427.332+95.0101+479.266+95.0101C531.2+95.0101+573.32+137.097+573.32+189.03C573.32+330.206+573.32+471.381+573.32+612.557C627.336+645.649+663.467+704.973+663.467+772.915L663.45+772.898ZM541.986+631.518L541.986+189.03C541.986+166.635+530.038+145.941+510.643+134.743C491.248+123.545+467.352+123.545+447.957+134.743C428.562+145.941+416.614+166.635+416.614+189.03C416.614+335.28+416.614+481.53+416.614+627.78C359.202+651.076+318.635+707.14+318.635+772.898C319.899+858.552+389.694+927.325+475.358+927.325C561.021+927.325+630.817+858.552+632.081+772.898C632.115+710.246+595.115+656.64+542.003+631.518L541.986+631.518ZM475.358+898.304C442.098+898.304+410.201+885.092+386.682+861.574C363.164+838.055+349.952+806.158+349.952+772.898C349.952+713.097+391.902+663.262+447.932+650.718L447.932+351.778C468.838+351.778+489.745+351.778+510.652+351.778C510.652+452.238+510.652+552.698+510.652+653.158C562.586+668.484+600.764+715.998+600.764+772.898C600.764+806.158+587.551+838.055+564.033+861.574C540.515+885.092+508.618+898.304+475.358+898.304Z" opacity="1" fill="#e6e6e6"/>
</g>
</g>
</g>
</svg>
