<?xml version="1.0" standalone="no"?><!DOCTYPE svg PUBLIC "-//W3C//DTD SVG 1.1//EN" "http://www.w3.org/Graphics/SVG/1.1/DTD/svg11.dtd"><svg class="icon" width="200px" height="200.00px" viewBox="0 0 1024 1024" version="1.1" xmlns="http://www.w3.org/2000/svg"><path d="M505.6 510.4m-464 0a464 464 0 1 0 928 0 464 464 0 1 0-928 0Z" fill="#FFF100" /><path d="M910.4 769.6c-4.8 0-11.2-1.6-16-4.8-16-8-20.8-28.8-12.8-43.2 36.8-64 56-137.6 56-212.8 0-238.4-193.6-432-432-432-86.4 0-171.2 25.6-241.6 73.6-14.4 9.6-35.2 6.4-44.8-8-9.6-14.4-6.4-35.2 8-44.8C308.8 41.6 406.4 12.8 505.6 12.8c273.6 0 496 222.4 496 496 0 84.8-22.4 169.6-64 243.2-4.8 12.8-16 17.6-27.2 17.6zM505.6 1006.4c-273.6 0-496-222.4-496-496C9.6 420.8 33.6 332.8 80 256c9.6-14.4 28.8-20.8 43.2-11.2 14.4 9.6 20.8 28.8 11.2 43.2-40 67.2-60.8 144-60.8 222.4 0 238.4 193.6 432 432 432 81.6 0 160-22.4 228.8-65.6 14.4-9.6 35.2-4.8 44.8 9.6s4.8 35.2-9.6 44.8c-80 49.6-171.2 75.2-264 75.2z"  /><path d="M340.8 352h332.8v316.8H340.8z"  /><path d="M672 676.8H340.8c-4.8 0-8-3.2-8-8V352c0-4.8 3.2-8 8-8H672c4.8 0 8 3.2 8 8v316.8c0 4.8-3.2 8-8 8z m-323.2-16h316.8V360H348.8v300.8z"  /><path d="M160 177.6m-48 0a48 48 0 1 0 96 0 48 48 0 1 0-96 0Z"  /><path d="M851.2 841.6m-48 0a48 48 0 1 0 96 0 48 48 0 1 0-96 0Z"  /></svg>