<?xml version="1.0" encoding="utf-8"?>
<svg x="0pt" y="0pt" width="1024pt" height="1024pt" viewBox="0 0 1024 1024" xmlns="http://www.w3.org/2000/svg" xmlns:xlink="http://www.w3.org/1999/xlink">
  <g id="1">
    <title>Layer 1</title>
    <clipPath id="3">
      <use xlink:href="#2"/>
      <path id="2" d="M0,0 C0,0,1024,0,1024,0 C1024,0,1024,1024,1024,1024 C1024,1024,0,1024,0,1024 C0,1024,0,0,0,0 z"/>
    </clipPath>
    <g id="4" style="clip-path:url(#3);">
      <title>ClipGroup</title>
      <defs>
        <title>Shape 68</title>
        <g id="5">
          <defs>
            <path id="6" d="M512,870.4 C526.08,870.4,537.6,858.88,537.6,844.8 C537.6,844.8,537.6,496.64,537.6,496.64 C557.227,516.267,576.853,535.893,596.48,555.52 C601.6,560.64,608,563.2,614.4,563.2 C620.8,563.2,627.2,560.64,632.32,555.52 C642.56,545.28,642.56,529.92,632.32,519.68 C598.187,485.547,564.053,451.413,529.92,417.28 C519.68,407.04,504.32,407.04,494.08,417.28 C459.947,451.413,425.813,485.547,391.68,519.68 C381.44,529.92,381.44,545.28,391.68,555.52 C401.92,565.76,417.28,565.76,427.52,555.52 C447.147,535.893,466.773,516.267,486.4,496.64 C486.4,496.64,486.4,844.8,486.4,844.8 C486.4,858.88,497.92,870.4,512,870.4 z"/>
          </defs>
          <use xlink:href="#6" style="fill:#0097e6;fill-opacity:1;fill-rule:evenodd;opacity:1;stroke:none;"/>
        </g>
      </defs>
      <use xlink:href="#5"/>
      <defs>
        <title>Shape 69</title>
        <g id="7">
          <defs>
            <path id="8" d="M128,665.6 C221.867,665.6,315.733,665.6,409.6,665.6 C423.68,665.6,435.2,654.08,435.2,640 C435.2,625.92,423.68,614.4,409.6,614.4 C409.6,614.4,153.6,614.4,153.6,614.4 C153.6,614.4,153.6,204.8,153.6,204.8 C392.533,204.8,631.467,204.8,870.4,204.8 C870.4,341.333,870.4,477.867,870.4,614.4 C870.4,614.4,614.4,614.4,614.4,614.4 C600.32,614.4,588.8,625.92,588.8,640 C588.8,654.08,600.32,665.6,614.4,665.6 C708.267,665.6,802.133,665.6,896,665.6 C910.08,665.6,921.6,654.08,921.6,640 C921.6,640,921.6,179.2,921.6,179.2 C921.6,165.12,910.08,153.6,896,153.6 C896,153.6,128,153.6,128,153.6 C113.92,153.6,102.4,165.12,102.4,179.2 C102.4,332.8,102.4,486.4,102.4,640 C102.4,654.08,113.92,665.6,128,665.6 z"/>
          </defs>
          <use xlink:href="#8" style="fill:#0097e6;fill-opacity:1;fill-rule:evenodd;opacity:1;stroke:none;"/>
        </g>
      </defs>
      <use xlink:href="#7"/>
    </g>
    <clipPath id="10">
      <use xlink:href="#9"/>
      <path id="9" d="M0,0 C0,0,1024,0,1024,0 C1024,0,1024,1024,1024,1024 C1024,1024,0,1024,0,1024 C0,1024,0,0,0,0 z"/>
    </clipPath>
    <g id="11" style="clip-path:url(#10);"/>
  </g>
</svg>
