<?xml version="1.0" encoding="UTF-8" standalone="no"?> <!-- Created with Vectornator for iOS (http://vectornator.io/) --><!DOCTYPE svg PUBLIC "-//W3C//DTD SVG 1.1//EN" "http://www.w3.org/Graphics/SVG/1.1/DTD/svg11.dtd">
<svg style="fill-rule:evenodd;clip-rule:evenodd;stroke-linecap:round;stroke-linejoin:round;" xmlns:vectornator="http://vectornator.io" xmlns:xlink="http://www.w3.org/1999/xlink" xmlns="http://www.w3.org/2000/svg" xml:space="preserve" version="1.1" viewBox="0 0 1024 1024">
<metadata>
<vectornator:setting key="DynamicGuides" value="1"/>
<vectornator:setting key="Units" value="Points"/>
<vectornator:setting key="GuidesVisible" value="1"/>
<vectornator:setting key="RulersVisible" value="1"/>
<vectornator:setting key="SnapToGuides" value="1"/>
<vectornator:setting key="GridSpacing" value="36"/>
</metadata>
<defs>
<path d="M0+0L1024+0L1024+1024L0+1024L0+0Z" id="Mask"/>
</defs>
<g id="Untitled" vectornator:layerName="Untitled">
<g opacity="1" vectornator:mask="#Mask">
<clipPath id="ClipPath">
<use xlink:href="#Mask" fill="none" overflow="visible"/>
</clipPath>
<g clip-path="url(#ClipPath)">
<g opacity="1">
<path d="M512+870.4C526.08+870.4+537.6+858.88+537.6+844.8L537.6+496.64C557.227+516.267+576.853+535.893+596.48+555.52C601.6+560.64+608+563.2+614.4+563.2C620.8+563.2+627.2+560.64+632.32+555.52C642.56+545.28+642.56+529.92+632.32+519.68C598.187+485.547+564.053+451.413+529.92+417.28C519.68+407.04+504.32+407.04+494.08+417.28C459.947+451.413+425.813+485.547+391.68+519.68C381.44+529.92+381.44+545.28+391.68+555.52C401.92+565.76+417.28+565.76+427.52+555.52C447.147+535.893+466.773+516.267+486.4+496.64L486.4+844.8C486.4+858.88+497.92+870.4+512+870.4Z" opacity="1" fill="#0097e6"/>
<path d="M128+665.6C221.867+665.6+315.733+665.6+409.6+665.6C423.68+665.6+435.2+654.08+435.2+640C435.2+625.92+423.68+614.4+409.6+614.4L153.6+614.4L153.6+204.8C392.533+204.8+631.467+204.8+870.4+204.8C870.4+341.333+870.4+477.867+870.4+614.4L614.4+614.4C600.32+614.4+588.8+625.92+588.8+640C588.8+654.08+600.32+665.6+614.4+665.6C708.267+665.6+802.133+665.6+896+665.6C910.08+665.6+921.6+654.08+921.6+640L921.6+179.2C921.6+165.12+910.08+153.6+896+153.6L128+153.6C113.92+153.6+102.4+165.12+102.4+179.2C102.4+332.8+102.4+486.4+102.4+640C102.4+654.08+113.92+665.6+128+665.6Z" opacity="1" fill="#0097e6"/>
</g>
</g>
</g>
</g>
</svg>
