<?xml version="1.0" standalone="no"?><!DOCTYPE svg PUBLIC "-//W3C//DTD SVG 1.1//EN" "http://www.w3.org/Graphics/SVG/1.1/DTD/svg11.dtd"><svg class="icon" width="200px" height="200.00px" viewBox="0 0 1024 1024" version="1.1" xmlns="http://www.w3.org/2000/svg"><path d="M0 512C0 229.262222 229.233778 0 512 0s512 229.233778 512 512-229.233778 512-512 512S0 794.766222 0 512z m785.180444 3.527111l-83.114666-49.436444a6.997333 6.997333 0 0 0-8.277334-0.284445 8.049778 8.049778 0 0 0-4.181333 7.224889v32.995556H400.810667c8.362667-13.539556 15.701333-27.704889 21.902222-42.353778 2.759111-6.343111 4.835556-11.008 6.343111-14.136889 1.479111-3.128889 3.555556-7.310222 6.257778-12.629333a86.101333 86.101333 0 0 1 13.994666-21.048889 27.221333 27.221333 0 0 1 8.135112-6.712889 18.944 18.944 0 0 1 8.590222-2.048h27.704889a50.033778 50.033778 0 0 0 82.204444 18.488889c18.119111-18.176 19.256889-47.132444 2.645333-66.673778a50.033778 50.033778 0 0 0-66.673777-8.618667c-8.334222 5.944889-14.677333 14.222222-18.204445 23.836445h-27.676444a47.786667 47.786667 0 0 0-15.815111 2.56 66.275556 66.275556 0 0 0-13.482667 6.058666c-4.408889 2.844444-8.334222 6.314667-11.662222 10.353778-4.010667 4.721778-7.196444 8.903111-9.671111 12.032a112.64 112.64 0 0 0-8.675556 14.677334c-3.356444 6.542222-5.831111 11.463111-7.395555 14.791111l-7.281778 15.587555c-3.953778 9.102222-7.139556 16.071111-9.585778 20.992a223.715556 223.715556 0 0 1-9.329778 16.782222 48.327111 48.327111 0 0 1-11.548444 13.738667 19.683556 19.683556 0 0 1-12.032 4.437333h-26.936889a64.512 64.512 0 0 0-23.608889-35.669333 64.483556 64.483556 0 0 0-40.675556-13.937778c-26.823111 0-51.000889 16.099556-61.269333 40.704a65.621333 65.621333 0 0 0 14.336 71.822223 66.56 66.56 0 0 0 87.608889 5.404444c11.719111-8.903111 20.053333-21.475556 23.608889-35.697778h93.354667c4.408889 0.113778 8.647111 1.706667 12.060444 4.465778 4.664889 3.811556 8.590222 8.476444 11.548444 13.738667 3.754667 6.286222 6.912 11.861333 9.329778 16.782222 2.417778 4.864 5.603556 11.861333 9.557334 20.963555l7.281777 15.587556c1.536 3.328 3.982222 8.277333 7.367111 14.791111 2.503111 5.233778 5.404444 10.24 8.704 15.018667 2.446222 3.242667 5.632 7.395556 9.585778 11.861333 3.328 4.067556 7.253333 7.566222 11.662222 10.439111 4.181333 2.474667 8.618667 4.494222 13.198223 6.030222 5.12 1.735111 10.467556 2.616889 15.872 2.56h24.888889v24.746667a7.964444 7.964444 0 0 0 8.248888 8.248889h83.000889a7.936 7.936 0 0 0 8.248889-8.248889v-82.432a7.936 7.936 0 0 0-8.248889-8.248889h-83.000889a8.021333 8.021333 0 0 0-8.248888 8.248889v24.746667h-24.888889a18.972444 18.972444 0 0 1-8.590223-2.076445 27.847111 27.847111 0 0 1-8.163555-6.684444c-2.503111-3.271111-4.977778-6.200889-6.997333-8.931556a90.851556 90.851556 0 0 1-6.968889-12.117333 422.030222 422.030222 0 0 1-12.572445-26.766222 307.057778 307.057778 0 0 0-21.560889-42.552889h222.435556v32.995555a8.049778 8.049778 0 0 0 8.334222 8.248889 7.765333 7.765333 0 0 0 4.124445-1.308444l83.000888-49.436445a7.936 7.936 0 0 0 0-13.937777z" fill="#409EFF" /></svg>