<?xml version="1.0" standalone="no"?><!DOCTYPE svg PUBLIC "-//W3C//DTD SVG 1.1//EN" "http://www.w3.org/Graphics/SVG/1.1/DTD/svg11.dtd"><svg class="icon" width="200px" height="200.00px" viewBox="0 0 1024 1024" version="1.1" xmlns="http://www.w3.org/2000/svg"><path d="M315.388 302.933c16.495 0 29.867 13.372 29.867 29.867s-13.372 29.867-29.867 29.867h-82.143c-16.495 0-29.867-13.372-29.867-29.867s13.372-29.867 29.867-29.867h82.143z m256.345-79.644H253.156c-71.478 0-129.422 57.944-129.422 129.422v318.578c0 71.478 57.944 129.422 129.422 129.422h318.578c71.478 0 129.422-57.944 129.422-129.422v-4.619c0-22.857 24.627-37.243 44.537-26.015l139.728 78.794a9.955 9.955 0 0 0 4.891 1.284c5.498 0 9.956-4.457 9.956-9.956V353.054a9.95 9.95 0 0 0-1.284-4.89c-2.701-4.789-8.773-6.482-13.564-3.78l-139.727 78.785c-19.91 11.226-44.536-3.16-44.536-26.016v-44.442c-0.001-71.478-57.946-129.422-129.424-129.422z m0-59.733c102.252 0 185.553 81.133 189.042 182.534l95.303-53.737c33.524-18.906 76.028-7.056 94.934 26.468a69.687 69.687 0 0 1 8.987 34.233v357.723c0 38.488-31.201 69.689-69.689 69.689a69.694 69.694 0 0 1-34.232-8.987l-100.253-56.534-2.154 8.269c-22.567 79.221-95.479 137.23-181.939 137.23H253.156C148.688 860.444 64 775.757 64 671.289V352.711c0-104.468 84.688-189.156 189.156-189.156h318.577z" fill="#ffffff" /></svg>