<?xml version="1.0" standalone="no"?><!DOCTYPE svg PUBLIC "-//W3C//DTD SVG 1.1//EN" "http://www.w3.org/Graphics/SVG/1.1/DTD/svg11.dtd"><svg class="icon" width="200px" height="200.00px" viewBox="0 0 1024 1024" version="1.1" xmlns="http://www.w3.org/2000/svg"><path d="M763.1 553.4c27.6 0 50-22.4 50-50s-22.4-50-50-50c-22 0-40.7 14.3-47.4 34.1H605.4c-0.9-42.3-5.2-82.2-12.3-117.7 31.6-9.7 60.9-24 86.7-42.1 29.7 30.3 51.8 68 63.2 110 6.4-1.9 13.1-3 20.1-3 5.3 0 10.4 0.6 15.4 1.7-30.5-126-144.7-219.6-280.9-219.6-137.1 0-251.8 94.8-281.4 221.9 7.3-2.6 15.2-4.1 23.4-4.1 4.5 0 8.8 0.4 13.1 1.3 11.6-41.3 33.4-78.4 62.7-108.2 25.8 18.1 55.1 32.4 86.7 42.1-7.1 35.5-11.4 75.4-12.3 117.7H286.9c-6.7-19.7-25.4-33.9-47.3-33.9-27.6 0-50 22.4-50 50s22.4 50 50 50c22 0 40.7-14.3 47.4-34.1h102.8c0.8 36.6 4.1 71.4 9.6 103.1-34.1 10.8-65.4 27-92.6 47.6-24.9-28.1-43.7-61.8-54.1-98.9-4.2 0.8-8.6 1.3-13.1 1.3-8.2 0-16.1-1.4-23.4-4.1 29.6 127.1 144.4 221.8 281.4 221.8 136.2 0 250.4-93.6 280.9-219.5-4.9 1.1-10.1 1.7-15.3 1.7-7 0-13.8-1.1-20.1-3-10.3 37.8-29.2 72.1-54.5 100.7-27.2-20.5-58.5-36.8-92.6-47.6 5.5-31.7 8.8-66.5 9.6-103.1H715.7c6.8 19.7 25.4 33.9 47.4 33.9z m0-72c12.2 0 22 9.8 22 22s-9.8 22-22 22-22-9.8-22-22 9.8-22 22-22z m-523.5 44.2c-12.2 0-22-9.8-22-22s9.8-22 22-22 22 9.8 22 22-9.9 22-22 22z m346.2-187.5c-8.7-32.7-20-60.3-33-80.9 37.7 8.3 72.2 24.8 101.5 47.7-20.7 13.9-43.8 25.2-68.5 33.2z m-91.6-86.8h6.8c21.4 3.4 40.3 39.6 52.7 95.2-18.1 3.6-36.8 5.4-56.1 5.4-19.3 0-38-1.9-56.1-5.4 12.4-55.6 31.3-91.8 52.7-95.2z m-153.3 53.6c29.3-22.8 63.8-39.4 101.5-47.7-13 20.6-24.3 48.2-33 80.9-24.8-8-47.9-19.3-68.5-33.2z m94.6 73.2c20 3.8 40.8 5.9 62.1 5.9 21.3 0 42-2 62-5.9 5.2 32.4 8.3 69.5 8.9 109.4h-142c0.7-39.9 3.8-77 9-109.4z m-29.7 276.5c9.1 39 21.7 71.7 36.6 95.2-42.1-9.2-80.3-28.8-111.7-56 22.2-16.5 47.6-29.9 75.1-39.2z m91.8 101.2c-24.3 0-45.8-43.6-58.6-110.2 18.8-3.9 38.5-6 58.6-6s39.7 2.1 58.6 5.9c-12.9 66.7-34.3 110.3-58.6 110.3z m166.8-61.9c-31.4 27.1-69.6 46.7-111.7 56 14.9-23.5 27.5-56.3 36.6-95.3 27.6 9.3 52.9 22.7 75.1 39.3z m-103-80.1c-20.5-4.1-41.9-6.2-63.8-6.2s-43.3 2.2-63.8 6.2c-4-28.8-6.5-60.6-7.1-94.3h141.9c-0.8 33.7-3.3 65.5-7.2 94.3z" fill="#0099FF" /><path d="M501.5 839.4c-18.3 0-34.3 9.5-43.4 23.9-184.7-19.7-328.6-176-328.6-365.9 0-102.8 42.1-195.7 110.1-262.5 3-2.9 5-7 5-11.5 0-8.8-7.2-15.9-16-15.9-4.4 0-8.4 1.8-11.2 4.6-74.1 72.5-119.9 173.6-119.9 285.3 0 204.9 154.1 373.9 352.8 397.2 2 26.5 24.1 47.4 51.2 47.4 28.4 0 51.3-23 51.3-51.3 0-28.3-23-51.3-51.3-51.3z m0 73.9c-12.4 0-22.5-10.1-22.5-22.5s10.1-22.5 22.5-22.5 22.5 10.1 22.5 22.5-10.1 22.5-22.5 22.5zM550.6 100.9c-6.4-21.1-26-36.5-49.2-36.5-28.4 0-51.3 23-51.3 51.3 0 28.4 23 51.3 51.3 51.3 22.3 0 41.2-14.2 48.3-34 178.5 25.4 315.7 178.8 315.7 364.3 0 116.8-54.5 221-139.4 288.4-3.6 2.9-5.9 7.4-5.9 12.3 0 8.8 7.2 15.9 16 15.9 3.6 0 6.8-1.2 9.5-3.1v0.1c92.4-73.3 151.7-186.5 151.7-313.6 0.2-202.8-150.9-370.4-346.7-396.4z m-49.1 37.4c-12.4 0-22.5-10.1-22.5-22.5s10.1-22.5 22.5-22.5 22.5 10.1 22.5 22.5-10.1 22.5-22.5 22.5z m51.2-20.1c0-0.8 0.1-1.6 0.1-2.5 0-0.8 0-1.6-0.1-2.3 0 0.8 0.1 1.6 0.1 2.3 0 0.9 0 1.7-0.1 2.5z m-1.8 11.4c0.1-0.2 0.1-0.5 0.2-0.7-0.1 0.2-0.2 0.5-0.2 0.7z m0.5-2c0.1-0.3 0.2-0.7 0.2-1 0 0.3-0.1 0.6-0.2 1z m0.5-2.3c0.1-0.4 0.1-0.8 0.2-1.2-0.1 0.4-0.2 0.8-0.2 1.2z m0.4-2.3c0.1-0.4 0.1-0.9 0.2-1.3-0.1 0.4-0.2 0.9-0.2 1.3z m0.2-2.4c0-0.5 0.1-1 0.1-1.6 0 0.6 0 1.1-0.1 1.6z m-1.1-16.6c0.1 0.3 0.1 0.5 0.2 0.8-0.1-0.3-0.1-0.6-0.2-0.8z m0.4 2c0.1 0.4 0.1 0.7 0.2 1.1 0-0.4-0.1-0.7-0.2-1.1z m0.4 2.1l0.3 2.1-0.3-2.1z m0.4 2.9c0 0.5 0.1 1.1 0.1 1.6 0-0.5-0.1-1-0.1-1.6z" fill="#7DC1FF" /></svg>