<?xml version="1.0" standalone="no"?><!DOCTYPE svg PUBLIC "-//W3C//DTD SVG 1.1//EN" "http://www.w3.org/Graphics/SVG/1.1/DTD/svg11.dtd"><svg class="icon" width="200px" height="200.00px" viewBox="0 0 1024 1024" version="1.1" xmlns="http://www.w3.org/2000/svg"><path d="M368.64 716.8c0 56.32 45.568 102.4 102.4 102.4 56.32 0 102.4-45.568 102.4-102.4 0-56.32-45.568-102.4-102.4-102.4s-102.4 45.568-102.4 102.4zM617.984 525.824c6.656 3.584 16.896 3.584 24.064-6.656 3.584-6.656 3.584-16.896-6.656-24.064-92.16-57.856-245.76-88.576-358.4 27.136-6.656 6.656-6.656 16.896 0 24.064 3.584 3.584 6.656 3.584 13.824 3.584s10.24 0 13.824-3.584c94.72-99.328 227.84-71.68 313.344-20.48z" fill="#ffffff" /><path d="M781.824 436.736c3.584 3.584 6.656 3.584 13.824 3.584s10.24 0 13.824-3.584c6.656-6.656 6.656-16.896 0-24.064C621.056 225.28 321.024 225.28 133.12 413.184c-6.656 6.656-6.656 16.896 0 24.064 6.656 6.656 16.896 6.656 24.064 0 81.92-85.504 194.56-129.536 310.784-129.536s231.936 44.032 313.856 129.024z" fill="#ffffff" /><path d="M904.704 317.44c3.584 3.584 6.656 3.584 13.824 3.584s10.24 0 13.824-3.584c6.656-6.656 6.656-16.896 0-24.064C679.424 40.96 266.24 40.96 13.824 293.376c-6.656 6.656-6.656 16.896 0 24.064s16.896 6.656 24.064 0C272.896 75.264 665.6 75.264 904.704 317.44z m-109.568 160.256c-122.88 0-221.696 98.816-221.696 221.696s98.816 221.696 221.696 221.696 221.696-98.816 221.696-221.696-98.816-221.696-221.696-221.696z m4.096 300.544h-1.024c-10.752 0-19.968-9.216-19.968-19.968v-177.152c0-10.752 9.216-19.968 19.968-19.968h1.024c10.752 0 19.968 9.216 19.968 19.968v177.152c0 11.264-8.704 19.968-19.968 19.968z m24.064 38.4c0 12.8-10.24 23.04-23.04 23.04s-23.04-10.24-23.04-23.04 10.24-23.04 23.04-23.04 23.04 10.24 23.04 23.04z" fill="#ffffff" /></svg>