<?xml version="1.0" standalone="no"?><!DOCTYPE svg PUBLIC "-//W3C//DTD SVG 1.1//EN" "http://www.w3.org/Graphics/SVG/1.1/DTD/svg11.dtd"><svg t="1608791816514" class="icon" viewBox="0 0 1024 1024" version="1.1" xmlns="http://www.w3.org/2000/svg" p-id="4070" xmlns:xlink="http://www.w3.org/1999/xlink" width="1024" height="1024"><defs><style type="text/css"></style></defs><path d="M17.066667 546.133333h989.866666v-68.266666H17.066667z" fill="#2c2c2c" p-id="4071"></path><path d="M512 1024c122.6752 0 204.8-229.956267 204.8-512S634.6752 0 512 0 307.2 229.956267 307.2 512s82.1248 512 204.8 512z m0-68.266667c-65.8432 0-136.533333-197.9392-136.533333-443.733333s70.690133-443.733333 136.533333-443.733333c65.8432 0 136.533333 197.9392 136.533333 443.733333s-70.690133 443.733333-136.533333 443.733333z" fill="#2c2c2c" p-id="4072"></path><path d="M512 955.733333c245.077333 0 443.733333-198.656 443.733333-443.733333S757.077333 68.266667 512 68.266667 68.266667 266.922667 68.266667 512s198.656 443.733333 443.733333 443.733333z m0 68.266667C229.239467 1024 0 794.760533 0 512 0 229.239467 229.239467 0 512 0c282.760533 0 512 229.239467 512 512 0 282.760533-229.239467 512-512 512z" fill="#2c2c2c" p-id="4073"></path></svg>