<?xml version="1.0" standalone="no"?><!DOCTYPE svg PUBLIC "-//W3C//DTD SVG 1.1//EN" "http://www.w3.org/Graphics/SVG/1.1/DTD/svg11.dtd"><svg class="icon" width="200px" height="200.00px" viewBox="0 0 1024 1024" version="1.1" xmlns="http://www.w3.org/2000/svg"><path d="M1024 801.792H0V188.928h947.712c41.984 0 76.288 34.304 76.288 76.288v536.576zM640 188.928c0-70.656-57.344-128-128-128H0v128h640" fill="#ce9f06" /><path d="M128 247.296h768v384H128z" fill="#ffffff" /><path d="M1024 883.2V386.048c0-35.328-28.672-64-64-64h-896C28.672 322.048 0 350.72 0 386.048v497.152c0 43.52 35.328 78.848 78.848 78.848h866.304c43.52 0 78.848-35.328 78.848-78.848z m0 0" fill="#ffcd2c" /></svg>