<?xml version="1.0" standalone="no"?><!DOCTYPE svg PUBLIC "-//W3C//DTD SVG 1.1//EN" "http://www.w3.org/Graphics/SVG/1.1/DTD/svg11.dtd"><svg class="icon" width="200px" height="200.00px" viewBox="0 0 1024 1024" version="1.1" xmlns="http://www.w3.org/2000/svg"><path d="M419.2 755.84c-0.64-0.64-75.52-75.52-50.56-100.48 24.96-24.96 100.48 50.56 100.48 50.56m88.32-88.32c119.04 56.96 265.6 35.84 364.16-62.72a320.192 320.192 0 0 0 0-452.48c-124.8-124.8-327.68-124.8-453.12 0-97.92 97.92-118.4 245.12-62.08 364.16L8.96 864l7.68 143.36 143.36 7.68 57.6-57.6s-75.52-75.52-50.56-100.48c24.96-24.96 100.48 49.92 100.48 50.56l50.56-50.56s-75.52-75.52-50.56-100.48c24.96-24.96 100.48 50.56 100.48 50.56m403.2-403.2c-41.6 41.6-109.44 41.6-151.04 0-41.6-41.6-41.6-109.44 0-151.04 41.6-41.6 109.44-41.6 151.04 0 41.6 41.6 41.6 109.44 0 151.04z m0 0" fill="#1296DB" /></svg>