<?xml version="1.0" standalone="no"?><!DOCTYPE svg PUBLIC "-//W3C//DTD SVG 1.1//EN" "http://www.w3.org/Graphics/SVG/1.1/DTD/svg11.dtd"><svg class="icon" width="200px" height="200.00px" viewBox="0 0 1024 1024" version="1.1" xmlns="http://www.w3.org/2000/svg"><path d="M814.976 409.728V320.597333c0-164.821333-130.816-302.506667-294.314667-305.493333a661.973333 661.973333 0 0 0-17.877333 0c-163.498667 2.986667-294.314667 140.672-294.314667 305.493333v89.130667c-39.936 0-72.32 32.384-72.32 72.32v424.96a85.333333 85.333333 0 0 0 85.333334 85.333333h580.48a85.333333 85.333333 0 0 0 85.333333-85.333333v-424.96c0-39.936-32.384-72.32-72.32-72.32z m-242.858667 290.730667v135.082666c0 15.445333-12.928 28.544-28.416 28.544h-63.914666a28.842667 28.842667 0 0 1-28.458667-28.586666v-135.04a80.384 80.384 0 0 1-23.722667-57.813334c0-42.837333 33.109333-79.658667 75.178667-81.365333 4.48-0.170667 13.397333-0.170667 17.92 0 42.069333 1.706667 75.178667 38.528 75.178667 81.365333 0 22.613333-8.746667 43.050667-23.765334 57.813334z m-51.456-290.730667H333.994667V320.597333c0-98.176 79.786667-179.370667 177.749333-179.370666 97.92 0 177.706667 81.194667 177.706667 179.370666v89.130667h-168.789334z" fill="#006DFA" /></svg>