<?xml version="1.0" standalone="no"?><!DOCTYPE svg PUBLIC "-//W3C//DTD SVG 1.1//EN" "http://www.w3.org/Graphics/SVG/1.1/DTD/svg11.dtd"><svg class="icon" width="200px" height="151.14px" viewBox="0 0 1355 1024" version="1.1" xmlns="http://www.w3.org/2000/svg"><path d="M897.554366 803.90068C875.512337 803.90068 853.524315 794.932125 837.532903 777.320349 796.52755 732.048021 738.126452 706.168568 677.240799 706.168568 615.327645 706.168568 558.438862 731.290558 517.056677 776.942262 487.018298 810.16865 435.803367 812.707212 402.577012 782.560785 369.405952 752.469686 366.866102 701.252179 396.958489 668.135127 468.37902 589.312363 570.541419 544.094043 677.240799 544.094043 783.778122 544.094043 885.940521 589.421667 957.577117 668.406487 987.668216 701.577546 985.129654 752.793765 951.958594 782.886152 936.507293 796.985839 917.003826 803.901969 897.555654 803.901969L897.554366 803.90068ZM1077.349971 601.14356C1056.658234 601.14356 1035.966497 593.256514 1020.191149 577.535174 928.456935 486.285807 806.683086 436.043082 677.238222 436.043082 547.524575 436.043082 425.696718 486.179047 334.124527 577.211095 302.411809 608.761823 251.087542 608.598511 219.536846 576.887048 187.986118 545.174297 188.094167 493.850029 219.860926 462.299334 341.957566 340.85082 504.411466 273.967269 677.238222 273.967269 849.793619 273.967269 1012.194799 340.958836 1134.506215 462.623414 1166.272974 494.174109 1166.38099 545.498343 1134.830295 577.265102 1119.000906 593.094491 1098.147146 601.144849 1077.347394 601.144849L1077.349971 601.14356ZM1256.768743 398.71052C1236.618438 398.71052 1216.412804 391.201561 1200.691464 376.182388 1059.199372 240.580146 873.35315 165.916309 677.240799 165.916309 480.751649 165.916309 294.79609 240.470842 153.683373 375.965035 121.429223 406.920324 70.106277 405.895399 39.095692 373.587241 8.085075 341.280339 9.165329 289.957393 41.419479 258.999527 212.895942 94.437871 438.666009 3.837919 677.242087 3.837919 915.330742 3.837919 1141.048089 94.54592 1312.848632 259.16155 1345.155501 290.116872 1346.237044 341.442395 1315.279178 373.749265 1299.341774 390.334794 1278.055919 398.709231 1256.768743 398.709231L1256.768743 398.71052ZM579.346663 922.267912C579.346663 976.333923 623.174788 1020.162081 677.240799 1020.162081 731.306777 1020.162081 775.134935 976.333923 775.134935 922.267912 775.134935 868.201934 731.306777 824.373777 677.240799 824.373777 623.174788 824.373777 579.346663 868.201934 579.346663 922.267912L579.346663 922.267912Z" fill="#ffffff" /></svg>