<?xml version="1.0" standalone="no"?><!DOCTYPE svg PUBLIC "-//W3C//DTD SVG 1.1//EN" "http://www.w3.org/Graphics/SVG/1.1/DTD/svg11.dtd"><svg class="icon" width="200px" height="200.00px" viewBox="0 0 1024 1024" version="1.1" xmlns="http://www.w3.org/2000/svg"><path d="M512 0C229.218462 0 0 229.218462 0 512s229.218462 512 512 512 512-229.218462 512-512S794.781538 0 512 0zM242.609231 474.978462c-24.418462 0-43.323077-19.692308-43.323077-43.323077 0-24.418462 19.692308-43.323077 43.323077-43.323077h139.421538V229.218462c0-24.418462 19.692308-43.323077 43.323077-43.323077s43.323077 19.692308 43.323077 43.323077v201.64923c0 24.418462-19.692308 43.323077-43.323077 43.323077l-182.744615 0.787693z m382.818461 246.547692l-78.76923 99.249231c-7.876923 11.027692-21.267692 17.329231-35.446154 17.32923s-26.781538-7.089231-35.446154-17.32923l-78.769231-99.249231-2.363077-2.363077c-2.363077-3.938462-6.301538-11.815385-6.301538-21.267692 0-7.089231 1.575385-14.178462 6.301538-21.267693 11.027692-16.541538 26.781538-19.692308 34.658462-20.48h33.870769V526.178462c0-25.993846 21.267692-47.261538 47.261538-47.261539s47.261538 21.267692 47.261539 47.261539v129.96923h29.144615c18.116923 0 31.507692 7.089231 40.172308 20.48 3.938462 7.089231 7.089231 14.178462 7.089231 21.267693 0 7.876923-3.150769 16.541538-8.664616 23.630769z m155.963077-246.547692L598.646154 474.190769c-24.418462 0-43.323077-19.692308-43.323077-43.323077V229.218462c0-24.418462 19.692308-43.323077 43.323077-43.323077s43.323077 19.692308 43.323077 43.323077v158.326153h139.421538c24.418462 0 43.323077 19.692308 43.323077 43.323077 0 25.206154-19.692308 44.110769-43.323077 44.11077z" fill="#e6e6e6" /></svg>