<?xml version="1.0" standalone="no"?><!DOCTYPE svg PUBLIC "-//W3C//DTD SVG 1.1//EN" "http://www.w3.org/Graphics/SVG/1.1/DTD/svg11.dtd"><svg t="1608184737441" class="icon" viewBox="0 0 1024 1024" version="1.1" xmlns="http://www.w3.org/2000/svg" p-id="8495" xmlns:xlink="http://www.w3.org/1999/xlink" width="1024" height="1024"><defs><style type="text/css"></style></defs><path d="M315.904 199.3728A102.4 102.4 0 0 1 224.4096 256H102.4a51.2 51.2 0 0 0-51.2 51.2v512a51.2 51.2 0 0 0 51.2 51.2h819.2a51.2 51.2 0 0 0 51.2-51.2V307.2a51.2 51.2 0 0 0-51.2-51.2h-121.9584a102.4 102.4 0 0 1-91.5968-56.6272l-11.4176-22.8864A41.4208 41.4208 0 0 0 659.5584 153.6H364.4416a41.4208 41.4208 0 0 0-37.0688 22.8864l-11.4176 22.8864z m-45.7728-22.8864L281.6 153.6c15.6672-31.3856 47.7696-51.2 82.8416-51.2h295.1168c35.072 0 67.1744 19.8144 82.8416 51.2l11.4688 22.8864a51.2 51.2 0 0 0 45.7728 28.3136H921.6a102.4 102.4 0 0 1 102.4 102.4v512a102.4 102.4 0 0 1-102.4 102.4H102.4a102.4 102.4 0 0 1-102.4-102.4V307.2a102.4 102.4 0 0 1 102.4-102.4h121.9584a51.2 51.2 0 0 0 45.7728-28.3136zM512 742.4a204.8 204.8 0 1 1 0-409.6 204.8 204.8 0 0 1 0 409.6z m0-51.2a153.6 153.6 0 1 0 0-307.2 153.6 153.6 0 0 0 0 307.2z" fill="#2c2c2c" p-id="8496"></path></svg>