<?xml version="1.0" standalone="no"?><!DOCTYPE svg PUBLIC "-//W3C//DTD SVG 1.1//EN" "http://www.w3.org/Graphics/SVG/1.1/DTD/svg11.dtd"><svg class="icon" width="200px" height="200.00px" viewBox="0 0 1024 1024" version="1.1" xmlns="http://www.w3.org/2000/svg"><path d="M338.432 623.762286v-277.211429c0-41.618286 27.721143-69.339429 69.266286-69.339428H546.377143c41.545143 0 69.266286 27.794286 69.266286 69.339428v277.211429H809.691429c6.948571 0 20.772571 6.948571 27.794285 6.948571 13.824 13.897143 13.824 34.596571 0 48.493714L504.685714 1011.858286a33.499429 33.499429 0 0 1-48.493714 0L123.611429 686.153143C116.662857 679.204571 109.714286 665.307429 109.714286 658.285714c0-20.772571 13.897143-34.596571 34.669714-34.596571h194.048zM373.028571 138.605714h207.872c20.845714 0 34.669714 13.897143 34.669715 34.669715s-13.897143 34.669714-34.669715 34.669714H373.101714c-20.845714 0-34.669714-13.897143-34.669714-34.669714s13.897143-34.669714 34.669714-34.669715zM373.028571 0h207.872c20.845714 0 34.669714 13.897143 34.669715 34.669714s-13.897143 34.669714-34.669715 34.669715H373.101714c-20.845714 0-34.669714-13.897143-34.669714-34.669715S352.329143 0 373.028571 0z" fill="#0c66ff" /></svg>