<?xml version="1.0" standalone="no"?><!DOCTYPE svg PUBLIC "-//W3C//DTD SVG 1.1//EN" "http://www.w3.org/Graphics/SVG/1.1/DTD/svg11.dtd"><svg class="icon" width="200px" height="200.00px" viewBox="0 0 1024 1024" version="1.1" xmlns="http://www.w3.org/2000/svg"><path d="M384 469.333333h256a42.666667 42.666667 0 0 1 0 85.333334H384a42.666667 42.666667 0 0 1 0-85.333334z m128-128a42.666667 42.666667 0 0 1 42.666667 42.666667v256a42.666667 42.666667 0 0 1-85.333334 0V384a42.666667 42.666667 0 0 1 42.666667-42.666667z m0 554.666667a384 384 0 1 1 384-384 384 384 0 0 1-384 384z m0-682.666667a298.666667 298.666667 0 1 0 298.666667 298.666667 298.666667 298.666667 0 0 0-298.666667-298.666667z" fill="#1296db" /></svg>