<?xml version="1.0" standalone="no"?><!DOCTYPE svg PUBLIC "-//W3C//DTD SVG 1.1//EN" "http://www.w3.org/Graphics/SVG/1.1/DTD/svg11.dtd"><svg class="icon" width="200px" height="198.64px" viewBox="0 0 1031 1024" version="1.1" xmlns="http://www.w3.org/2000/svg"><path d="M865.78185 992.156299l-87.267136-87.267136q-61.240095-61.240095-140.85222-140.086719T467.721229 597.157683Q377.774839 508.436094 293.952458 425.685415t-153.100238-151.569236q-69.277858-68.895107-107.552918-107.170167a98.443453 98.443453 0 0 1-31.385549-54.350585 82.291378 82.291378 0 0 1 7.655012-54.350585 109.08392 109.08392 0 0 1 40.571563-41.337064 126.766998 126.766998 0 0 1 67.364105-16.841026h710.385108q93.467696 0 148.507231 54.350584t55.116086 140.086719v696.606086a168.410263 168.410263 0 0 1-16.075525 77.315621 103.955062 103.955062 0 0 1-40.571563 45.16457 80.530726 80.530726 0 0 1-53.585084 9.186014 100.433757 100.433757 0 0 1-55.116085-30.620047z" fill="#ffffff" /></svg>