<?xml version="1.0" standalone="no"?><!DOCTYPE svg PUBLIC "-//W3C//DTD SVG 1.1//EN" "http://www.w3.org/Graphics/SVG/1.1/DTD/svg11.dtd"><svg class="icon" width="200px" height="200.00px" viewBox="0 0 1024 1024" version="1.1" xmlns="http://www.w3.org/2000/svg"><path d="M112.008533 564.104533H39.082667C18.261333 564.104533 0 545.860267 0 525.021867c0-20.821333 18.2272-39.082667 39.082667-39.082667h70.314666c7.816533-93.764267 44.288-182.340267 109.4144-244.855467 65.1264-62.5152 153.685333-101.5808 250.077867-106.8032V56.149333c0-20.821333 18.2272-39.0656 39.082667-39.0656 20.821333 0 39.0656 18.2272 39.0656 39.082667v78.1312c83.3536 10.410667 161.501867 46.8992 218.794666 104.209067 62.532267 62.5152 101.597867 151.074133 109.4144 244.855466h75.554134c20.821333 0 39.0656 18.2272 39.0656 39.082667 0 20.821333-18.2272 41.6768-39.082667 41.6768h-78.1312c-10.410667 85.947733-46.8992 164.096-106.8032 221.405867-57.309867 57.309867-130.2528 93.781333-218.811733 104.209066v75.537067c0 20.821333-18.244267 39.082667-39.082667 39.082667-20.821333 0-39.082667-15.633067-39.082667-36.471467v-72.942933h-2.594133c-96.375467-5.205333-184.951467-44.288-250.077867-106.8032-57.2928-59.904-93.764267-132.846933-104.192-224.017067z m507.9552-184.951466c31.266133 31.249067 52.104533 75.537067 52.104534 127.6416 0 52.087467-18.2272 96.375467-52.104534 127.6416-31.249067 31.249067-75.537067 52.087467-127.6416 52.087466-52.087467 0-96.375467-18.2272-127.6416-52.087466-36.4544-28.672-57.2928-72.942933-57.2928-119.825067 0-49.493333 18.2272-96.392533 52.087467-127.658667 39.082667-31.232 83.3536-57.2928 132.846933-57.2928 52.104533 0 96.392533 18.2272 127.658667 49.493334z m-127.6416-169.3184c-83.3536 0-158.890667 31.249067-216.200533 88.576-52.104533 57.2928-88.576 132.829867-88.576 216.200533 0 83.3536 31.266133 158.890667 88.576 216.200533 57.309867 57.309867 127.6416 88.576 216.200533 88.576 80.759467 0 158.890667-31.266133 216.2176-88.576 57.309867-57.309867 88.576-132.846933 88.576-216.200533 0-83.370667-39.082667-158.890667-88.576-216.2176-57.309867-52.087467-132.846933-88.576-216.2176-88.576z" fill="#1296db" /></svg>