<?xml version="1.0" standalone="no"?><!DOCTYPE svg PUBLIC "-//W3C//DTD SVG 1.1//EN" "http://www.w3.org/Graphics/SVG/1.1/DTD/svg11.dtd"><svg class="icon" width="200px" height="200.00px" viewBox="0 0 1024 1024" version="1.1" xmlns="http://www.w3.org/2000/svg"><path d="M853.333333 810.666667h-298.666666a85.333333 85.333333 0 0 1-85.333334-85.333334v-170.666666a85.333333 85.333333 0 0 1 85.333334-85.333334h298.666666a85.333333 85.333333 0 0 1 85.333334 85.333334v170.666666a85.333333 85.333333 0 0 1-85.333334 85.333334z m0-256h-298.666666v170.666666h298.666666v-170.666666z m-42.666666-170.666667a42.666667 42.666667 0 0 1-42.666667-42.666667V298.666667a42.666667 42.666667 0 0 0-42.666667-42.666667h-42.666666a42.666667 42.666667 0 0 1 0-85.333333h85.333333a85.333333 85.333333 0 0 1 85.333333 85.333333v85.333333a42.666667 42.666667 0 0 1-42.666666 42.666667z m-341.333334 42.666667H170.666667a85.333333 85.333333 0 0 1-85.333334-85.333334V170.666667a85.333333 85.333333 0 0 1 85.333334-85.333334h298.666666a85.333333 85.333333 0 0 1 85.333334 85.333334v170.666666a85.333333 85.333333 0 0 1-85.333334 85.333334z m0-256H170.666667v170.666666h298.666666V170.666667zM213.333333 640a42.666667 42.666667 0 0 1 42.666667 42.666667v42.666666a42.666667 42.666667 0 0 0 42.666667 42.666667h42.666666a42.666667 42.666667 0 0 1 0 85.333333H256a85.333333 85.333333 0 0 1-85.333333-85.333333v-85.333333a42.666667 42.666667 0 0 1 42.666666-42.666667z m0-85.333333a42.666667 42.666667 0 0 1 0-85.333334h170.666667a42.666667 42.666667 0 0 1 0 85.333334H213.333333z m384 298.666666h213.333334a42.666667 42.666667 0 0 1 0 85.333334h-213.333334a42.666667 42.666667 0 0 1 0-85.333334z" fill="#ffffff" /></svg>