<?xml version="1.0" standalone="no"?><!DOCTYPE svg PUBLIC "-//W3C//DTD SVG 1.1//EN" "http://www.w3.org/Graphics/SVG/1.1/DTD/svg11.dtd"><svg class="icon" width="200px" height="200.00px" viewBox="0 0 1024 1024" version="1.1" xmlns="http://www.w3.org/2000/svg"><path d="M307.063467 389.12s67.1744-230.331733 181.794133-230.331733c119.466667 0 216.2688 97.621333 220.637867 199.748266L573.917867 491.588267 989.866667 568.7296V84.650667l-123.835734 120.832C846.916267 180.565333 743.082667 20.48 532.8896 20.48 261.802667 20.48 307.131733 389.12 307.131733 389.12zM491.52 976.213333c271.1552 0 225.416533-368.64 225.416533-368.64s-67.1744 230.331733-182.272 230.331734c-119.466667 0-216.2688-97.621333-220.637866-199.748267l135.645866-133.051733L34.133333 427.963733v484.1472l123.357867-120.832c19.6608 24.849067 123.426133 184.9344 334.0288 184.9344z" fill="#cdcdcd" /></svg>