<?xml version="1.0" standalone="no"?><!DOCTYPE svg PUBLIC "-//W3C//DTD SVG 1.1//EN" "http://www.w3.org/Graphics/SVG/1.1/DTD/svg11.dtd"><svg class="icon" width="200px" height="200.00px" viewBox="0 0 1024 1024" version="1.1" xmlns="http://www.w3.org/2000/svg"><path d="M213.333333 341.333333h469.333334v469.333334H213.333333z" fill="#1676c4" /><path d="M810.666667 213.333333v469.333334l-128 128V341.333333l128-128z" fill="#0091ff" /><path d="M810.666667 213.333333l-128 128H213.333333l128-128h469.333334z" fill="#31c4ff" /><path d="M362.666667 213.333333h-21.333334l-21.333333 21.333334V21.333333h42.666667v192zM1002.666667 704H789.333333l21.333334-21.333333v-21.333334h192v42.666667zM213.333333 810.666667v-30.165334l-192 192V1002.666667h30.165334l192-192H213.333333z" fill="#2c2c2c" /><path d="M832 661.333333v-42.666666h-42.666667v55.168l-85.333333 85.333333V533.333333h-42.666667v256H234.666667V362.666667h85.333333v-42.666667h-55.168l85.333333-85.333333h409.002667l-85.333333 85.333333H362.666667v42.666667h298.666666v42.666666h42.666667v-55.168l85.333333-85.333333V576h42.666667V213.333333a21.333333 21.333333 0 0 0-21.333333-21.333333H362.666667V21.333333h-42.666667v183.168l-121.728 121.728A21.205333 21.205333 0 0 0 192 341.333333v460.501334L6.250667 987.584l30.165333 30.165333L222.165333 832H682.666667a21.333333 21.333333 0 0 0 15.104-6.272L819.498667 704H1002.666667v-42.666667zM149.333333 128h21.333334v85.333333h42.666666V128h21.333334a21.333333 21.333333 0 0 0 21.333333-21.333333V42.666667h-42.666667v42.666666H170.666667V42.666667H128v64a21.333333 21.333333 0 0 0 21.333333 21.333333z"  /><path d="M336.661333 888A21.333333 21.333333 0 0 0 320 853.333333h-106.666667v42.666667h62.272l-57.6 72A21.333333 21.333333 0 0 0 234.666667 1002.666667h106.666666v-42.666667h-62.272zM661.333333 448h42.666667v42.666667h-42.666667zM944.917333 731.584L906.666667 769.834667l-38.250667-38.250667-30.165333 30.165333 38.250666 38.250667-38.250666 38.250667 30.165333 30.165333 38.250667-38.250667 38.250666 38.250667 30.165334-30.165333-38.250667-38.250667 38.250667-38.250667-30.165334-30.165333z"  /></svg>