<?xml version="1.0" standalone="no"?><!DOCTYPE svg PUBLIC "-//W3C//DTD SVG 1.1//EN" "http://www.w3.org/Graphics/SVG/1.1/DTD/svg11.dtd"><svg class="icon" width="200px" height="198.26px" viewBox="0 0 1033 1024" version="1.1" xmlns="http://www.w3.org/2000/svg"><path d="M188.883866 37.311624q26.441846 26.441846 85.959693 85.296277t136.379269 133.915155q76.671876 75.060724 162.631568 160.357t167.275476 164.906135q81.315784 79.799406 148.699843 145.572313t106.051704 104.251005a122.637091 122.637091 0 0 1 34.118511 59.61262 117.803636 117.803636 0 0 1-1.516379 62.74015 101.218249 101.218249 0 0 1-34.876699 49.566615 104.251005 104.251005 0 0 1-65.867681 20.092011H185.85111a174.478273 174.478273 0 0 1-133.251739-58.854431 205.943122 205.943122 0 0 1-38.667646-65.014717 223.760566 223.760566 0 0 1-13.457857-78.662122V122.513127a135.526307 135.526307 0 0 1 18.954728-75.818912A98.943681 98.943681 0 0 1 67.384059 6.415417a104.251005 104.251005 0 0 1 61.981961-3.12753 122.447544 122.447544 0 0 1 59.61262 34.023737z" fill="#ffffff" /></svg>