<?xml version="1.0" standalone="no"?><!DOCTYPE svg PUBLIC "-//W3C//DTD SVG 1.1//EN" "http://www.w3.org/Graphics/SVG/1.1/DTD/svg11.dtd"><svg class="icon" width="200px" height="189.28px" viewBox="0 0 1082 1024" version="1.1" xmlns="http://www.w3.org/2000/svg"><path d="M605.44 960V64a64 64 0 0 0-64-64 64 64 0 0 0-64 64v896a64 64 0 0 0 64 64 64 64 0 0 0 64-64zM937.6 569.6h100.48a44.8 44.8 0 0 0 0-89.6h-100.48V345.6l-268.8 179.2 268.8 179.2zM145.28 569.6H44.8a44.8 44.8 0 0 1 0-89.6h100.48V345.6l268.8 179.2-268.8 179.2z" fill="#ffffff" /></svg>