<?xml version="1.0" standalone="no"?><!DOCTYPE svg PUBLIC "-//W3C//DTD SVG 1.1//EN" "http://www.w3.org/Graphics/SVG/1.1/DTD/svg11.dtd"><svg class="icon" width="200px" height="200.00px" viewBox="0 0 1024 1024" version="1.1" xmlns="http://www.w3.org/2000/svg"><path d="M 244.272 477.814 q 0 24.2725 6.06815 60.6815 c 133.499 6.06815 157.772 6.06815 298.553 0 q 6.06815 -24.2725 6.06815 -60.6815" fill="#d89727" /><path d="M 262.477 485.703 h 48.5452 v 14.5635 h -48.5452 Z M 323.157 485.703 h 48.5452 v 14.5635 h -48.5452 Z M 429.957 485.703 h 48.5452 v 14.5635 h -48.5452 Z M 490.638 485.703 h 48.5452 v 14.5635 h -48.5452 Z"  /><path d="M 391.12 455.362 l -12.1363 42.477 l 23.059 12.1363 l 23.059 -12.1363 l -12.1363 -42.477 M 369.275 437.158 q 32.768 48.5452 66.7497 0" fill="#ff0000" /><path d="M 326.798 437.158 c 6.06815 6.06815 30.3408 20.6317 42.477 20.6317 l 18.2045 -21.8453 M 479.715 437.158 c -6.06815 6.06815 -30.3408 20.6317 -42.477 20.6317 l -18.2045 -21.2385" fill="#ffffff" /><path d="M 205.435 115.546 q -20.6317 -10.9227 -9.70903 9.70903 l 9.70903 24.2725 c 3.64089 6.06815 6.06815 18.2045 2.42725 24.2725 c -9.70903 9.70903 -9.70903 26.6998 2.42725 36.4089 c 3.64089 6.06815 6.06815 18.2045 2.42725 24.2725 c -9.70903 9.70903 -9.70903 26.6998 2.42725 36.4089 c 3.64089 6.06815 6.06815 18.2045 2.42725 24.2725 c -9.70903 9.70903 -9.70903 26.6998 2.42725 36.4089 c 3.64089 6.06815 6.06815 18.2045 2.42725 24.2725 c -9.70903 9.70903 -9.70903 26.6998 2.42725 36.4089 c 3.64089 6.06815 6.06815 18.2045 2.42725 24.2725 c -9.70903 9.70903 -9.70903 26.6998 9.70903 24.2725 l 48.5452 -12.1363 c 6.06815 0 9.70903 -3.64089 12.1363 8.49541 q 3.64089 9.70903 24.2725 2.42725 l 24.2725 -9.70903 c 6.06815 -2.42725 18.2045 -2.42725 24.2725 0 l 24.2725 9.70903 q 4.85452 2.42725 9.70903 2.42725 M 603.506 115.546 q 20.6317 -10.9227 9.70903 9.70903 l -9.70903 24.2725 c -3.64089 6.06815 -6.06815 18.2045 -2.42725 24.2725 c 9.70903 9.70903 9.70903 26.6998 -2.42725 36.4089 c -3.64089 6.06815 -6.06815 18.2045 -2.42725 24.2725 c 9.70903 9.70903 9.70903 26.6998 -2.42725 36.4089 c -3.64089 6.06815 -6.06815 18.2045 -2.42725 24.2725 c 9.70903 9.70903 9.70903 26.6998 -2.42725 36.4089 c -3.64089 6.06815 -6.06815 18.2045 -2.42725 24.2725 c 9.70903 9.70903 9.70903 26.6998 -2.42725 36.4089 c -3.64089 6.06815 -6.06815 18.2045 -2.42725 24.2725 c 9.70903 9.70903 9.70903 26.6998 -9.70903 24.2725 l -48.5452 -12.1363 c -6.06815 0 -9.70903 -3.64089 -12.1363 8.49541 q -3.64089 9.70903 -24.2725 2.42725 l -24.2725 -9.70903 c -6.06815 -2.42725 -18.2045 -2.42725 -24.2725 0 l -24.2725 9.70903 q -4.85452 2.42725 -9.70903 2.42725" fill="#feff33" /><path d="M 204.222 115.546 h 400.498 L 404.472 443.226" fill="#feff33" /><path d="M 254.109 184.534 a 12.1363 21.8453 25 1 0 18.4645 -39.5971 a 12.1363 21.8453 25 1 0 -18.4645 39.5971 Z" fill="#9ba916" /><path d="M 246.644 229.26 a 7.28178 16.9908 25 1 0 14.3613 -30.7979 a 7.28178 16.9908 25 1 0 -14.3613 30.7979 Z" fill="#9ba916" /><path d="M 553.024 175.28 a 6.06815 14.5635 25 1 0 12.3097 -26.3982 a 6.06815 14.5635 25 1 0 -12.3097 26.3982 Z" fill="#9ba916" /><path d="M 533.136 361.514 a 12.1363 21.8453 25 1 0 18.4645 -39.5971 a 12.1363 21.8453 25 1 0 -18.4645 39.5971 Z" fill="#9ba916" /><path d="M 536.671 411.37 a 7.28178 16.9908 25 1 0 14.3613 -30.7979 a 7.28178 16.9908 25 1 0 -14.3613 30.7979 Z" fill="#9ba916" /><path d="M 258.044 348.398 a 7.28178 16.9908 25 1 0 14.3613 -30.7979 a 7.28178 16.9908 25 1 0 -14.3613 30.7979 Z" fill="#9ba916" /><path d="M 273.602 401.183 a 12.1363 21.8453 25 1 0 18.4645 -39.5971 a 12.1363 21.8453 25 1 0 -18.4645 39.5971 Z" fill="#9ba916" /><path d="M 204.222 114.94 q 18.2045 9.70903 36.4089 0 c 9.70903 -9.70903 14.5635 -9.70903 36.4089 0 q 18.2045 9.70903 36.4089 0 c 9.70903 -9.70903 14.5635 -9.70903 36.4089 0 q 18.2045 9.70903 36.4089 0 c 9.70903 -9.70903 14.5635 -9.70903 36.4089 0 q 18.2045 9.70903 36.4089 0 c 9.70903 -9.70903 14.5635 -9.70903 36.4089 0 q 18.2045 9.70903 36.4089 0 c 9.70903 -9.70903 14.5635 -9.70903 36.4089 0 c 14.5635 9.70903 14.5635 9.70903 35.8021 0" fill="#feff33" /><path d="M 290.389 230.841 a 60.6815 54.6133 0 1 0 121.363 0 a 60.6815 54.6133 0 1 0 -121.363 0 Z" fill="#ffffff" /><path d="M 399.616 230.841 a 60.6815 54.6133 0 1 0 121.363 0 a 60.6815 54.6133 0 1 0 -121.363 0 Z" fill="#ffffff" /><path d="M 363.208 230.841 m -21.8453 0 a 21.8453 21.8453 0 1 0 43.6907 0 a 21.8453 21.8453 0 1 0 -43.6907 0 Z" fill="#2a91bd" /><path d="M 448.162 230.841 m -21.8453 0 a 21.8453 21.8453 0 1 0 43.6907 0 a 21.8453 21.8453 0 1 0 -43.6907 0 Z" fill="#2a91bd" /><path d="M 363.208 230.841 m -8.49541 0 a 8.49541 8.49541 0 1 0 16.9908 0 a 8.49541 8.49541 0 1 0 -16.9908 0 Z"  /><path d="M 448.162 230.841 m -8.49541 0 a 8.49541 8.49541 0 1 0 16.9908 0 a 8.49541 8.49541 0 1 0 -16.9908 0 Z"  /><path d="M 266.117 281.812 c -54.6133 -48.5452 54.6133 -66.7497 36.4089 -12.1363 M 545.251 281.812 c 54.6133 -48.5452 -54.6133 -66.7497 -36.4089 -12.1363" fill="#feff33" /><path d="M 266.117 267.249 m -3.03408 0 a 3.03408 3.03408 0 1 0 6.06815 0 a 3.03408 3.03408 0 1 0 -6.06815 0 Z" fill="#a54823" /><path d="M 290.389 249.044 m -3.03408 0 a 3.03408 3.03408 0 1 0 6.06815 0 a 3.03408 3.03408 0 1 0 -6.06815 0 Z" fill="#a54823" /><path d="M 272.185 249.044 m -3.03408 0 a 3.03408 3.03408 0 1 0 6.06815 0 a 3.03408 3.03408 0 1 0 -6.06815 0 Z" fill="#a54823" /><path d="M 545.251 267.249 m -3.03408 0 a 3.03408 3.03408 0 1 0 6.06815 0 a 3.03408 3.03408 0 1 0 -6.06815 0 Z" fill="#a54823" /><path d="M 520.979 249.044 m -3.03408 0 a 3.03408 3.03408 0 1 0 6.06815 0 a 3.03408 3.03408 0 1 0 -6.06815 0 Z" fill="#a54823" /><path d="M 539.184 249.044 m -3.03408 0 a 3.03408 3.03408 0 1 0 6.06815 0 a 3.03408 3.03408 0 1 0 -6.06815 0 Z" fill="#a54823" /><path d="M 375.344 331.572 l -2.42725 18.2045 q 12.1363 -1.21363 24.2725 3.64089 l 2.42725 -18.2045 M 442.093 331.572 l 2.42725 18.2045 q -12.1363 -1.21363 -24.2725 3.64089 l -2.42725 -18.2045" fill="#ffffff" /><path d="M 278.253 267.249 q 6.06815 -6.06815 12.1363 -9.70903"  /><path d="M 533.115 267.249 q -6.06815 -6.06815 -12.1363 -9.70903"  /><path d="M 397.189 273.318 l -4.85452 -12.1363 q 0 -18.2045 18.2045 -12.1363 q 3.64089 0 8.49541 9.70903 v 12.1363 l -3.64089 12.1363 l -2.42725 7.28178" fill="#feff33" /><path d="M 302.526 542.744 l -2.42725 18.2045 q 30.3408 12.1363 72.8178 3.64089 l -2.42725 -19.4181 M 506.416 542.744 l 2.42725 18.2045 q -30.3408 12.1363 -72.8178 3.64089 l 2.42725 -19.4181" fill="#d89727" /><path d="M 332.866 673.815 q -12.1363 0 -18.2045 12.1363 q -30.3408 -18.2045 -42.477 -6.06815 q -12.1363 18.2045 3.64089 30.3408 q 36.4089 2.42725 66.7497 -6.06815 l -1.21363 3.64089 l 27.9135 -3.64089 l -6.06815 -27.9135 M 472.434 673.815 q 12.1363 0 18.2045 12.1363 q 30.3408 -18.2045 42.477 -6.06815 q 12.1363 18.2045 -3.64089 30.3408 q -36.4089 2.42725 -66.7497 -6.06815 l 1.21363 3.64089 l -27.9135 -3.64089 l 6.06815 -27.9135"  /><path d="M 332.866 569.443 q 12.1363 66.7497 0 109.227 q 12.1363 6.06815 24.2725 0 q 12.1363 -42.477 -3.64089 -109.227 M 472.434 569.443 q -12.1363 66.7497 0 109.227 q -12.1363 6.06815 -24.2725 0 q -12.1363 -42.477 3.64089 -109.227" fill="#feff33" /></svg>