<?xml version="1.0" standalone="no"?><!DOCTYPE svg PUBLIC "-//W3C//DTD SVG 1.1//EN" "http://www.w3.org/Graphics/SVG/1.1/DTD/svg11.dtd"><svg class="icon" width="200px" height="200.00px" viewBox="0 0 1024 1024" version="1.1" xmlns="http://www.w3.org/2000/svg"><path d="M134.9 515.68a389.4 389.4 0 1 0 778.8 0 389.4 389.4 0 1 0-778.8 0z" fill="#8dcdef" /><path d="M508.88 934.67a419.75 419.75 0 0 1-115.2-16 8.29 8.29 0 0 1 4.55-15.95 403.12 403.12 0 0 0 389.2-96.58 8.29 8.29 0 0 1 11.48 12 417 417 0 0 1-290.03 116.53zM218.83 814.74a8.27 8.27 0 0 1-5.86-2.42 418.88 418.88 0 1 1 680.22-129.47 8.29 8.29 0 0 1-15.19-6.63 399.61 399.61 0 0 0 33.3-160.55c0-221.89-180.52-402.41-402.41-402.41S106.47 293.79 106.47 515.68c0 107.68 42 208.86 118.22 284.9a8.29 8.29 0 0 1-5.86 14.16z"  /><path d="M263.72 313.26s-25.53 0.45-29.9 6.16-10 42.29-13.09 49.52c-2.1 4.94-17.1 16.8-20.59 23.47s-2.57 17.69-6 24.09c-3.71 7-27.33 17.7-9.88 38.65s22.29 18 24.91 29.46 6.33 33.39 11.22 42 23.79 20.31 26.7 30.47 5.24 45.71 12.22 52.06 29.37 27.13 30.52 37.87c1.25 11.75-3.75 38.66 2.65 51.81s19.73 20.17 19.73 33.1c0 13.82-4.78 33.48 3.67 46.82s7.81 34 10.27 40.52c3 7.9 9.38 16.5 25.08 9.52s37.82-11.43 40.73-8.89 24.23 15.1 39.94 10.85-13.2-103.54-13.2-103.54L280.3 329.45z" fill="#e8eb7c" /><path d="M423.68 850.75c-16.62 0-34.57-9-39.86-12.71-4.7-0.63-24.83 3-40.53 9.39-11.07 4.51-23 3.62-32-2.4-5.46-3.67-8.6-8.56-8.6-13.4 0-6.45-3.85-33.26-12.34-45.54-9.17-13.24-5.86-26.17-2.94-37.58 0.64-2.52 1.25-4.9 1.72-7.24 1-5.07-2.29-9-8.23-15.6-3.63-4-7.74-8.57-10.74-14.22-9.39-17.69-7.27-55.69-7.18-57.29 0.19-3.26-5.6-13.86-28.53-33-6.44-5.37-9.25-20.13-12.52-40.41-1.05-6.55-2-12.73-3-15.72-1.36-4.36-9-10.78-15.17-15.93-5.81-4.87-11.29-9.46-14.11-14-6.57-10.61-13.55-35.1-15.65-43.62-1.5-6-2.46-6.93-8.67-12.95-3.55-3.44-8.42-8.15-15.39-15.81s-10.25-15.91-9.38-24.09c1.49-14 14.28-23.11 19.09-26.55 2.44-1.74 4.42-9.85 5.73-15.22 1.24-5.07 2.41-9.86 4.32-13.22 3.89-6.81 16.5-14.92 28.32-22l0.55-0.33c1.65-2.54 4.37-12.34 6.19-18.9 3.34-12 5.54-19.59 8.5-23.14 5.77-6.92 23.48-10.75 28.77-11.76l2.82-0.54 21.75 19.46 155.65 409.91 0.09 0.58c0.08 0.51 8.38 51.59 11.48 82.73a61 61 0 0 0 3.1 12.83c1.74 5.36 3.11 9.59 1 13.37a8 8 0 0 1-5.14 3.84 37.86 37.86 0 0 1-9.1 1.06z m-41.11-24.37c5.21 0 6.74 1.23 7.74 2 2.64 2.09 21.83 12.17 36.48 10.59-0.28-1-0.63-2-0.92-2.92a71.38 71.38 0 0 1-3.61-15.26c-2.88-29-10.37-75.71-11.29-81.44l-154.25-406.1-15.32-13.71c-8.18 1.83-17.38 5-19.25 7.2-1.56 2-4.37 12.12-6.23 18.81-4.58 16.47-6.7 22.93-10.87 25.43l-1.12 0.67c-17.59 10.48-22.86 15.44-24.18 17.75-1.1 1.93-2.13 6.14-3.12 10.21-2.12 8.69-4.31 17.67-10.27 21.92-3.65 2.61-13.36 9.54-14.29 18.33-0.51 4.74 1.66 9.8 6.42 15 6.72 7.39 11.43 12 14.87 15.28 6.76 6.54 9.56 9.25 11.86 18.48 3 12 9.44 32.46 14.34 40.34 1.84 3 6.85 7.16 11.71 11.22 8.07 6.76 16.42 13.76 18.8 21.37 1.18 3.79 2.2 10.07 3.37 17.34 1.59 9.84 4.88 30.33 8.48 33.33 33.55 28 32.9 39 32.69 42.57-0.82 14 0 40.23 5.84 51.17 2.33 4.38 5.77 8.19 9.1 11.88 6.19 6.85 13.21 14.62 11 25.66-0.53 2.64-1.2 5.28-1.86 7.84-2.64 10.31-4.91 19.21 1.24 28.09 10.8 15.61 14.41 45.51 14.41 52.15 0.07 0.57 1.27 2.52 4.32 4.3 2.12 1.24 9.86 5 20.24 0.74a164.39 164.39 0 0 1 29.25-8.54 78.53 78.53 0 0 1 14.42-1.7z"  /><path d="M272.46 316.34c17.68-7.29 29.92-20 51.44-19s46.38 4.13 54.8 1.34 27.23-11.89 44.51-13c36-2.28 41.49 5.13 64 4.18 16-0.68 32.6-16.36 50.6-13.8 19.39 2.75 50.83-4.3 71.61-10.39 19.05-5.58 37.4-0.47 52.37-3.31s43.66-32.77 71.73-13.84 12.49 46.92 15.3 58.28 30.43 59.26 27.62 80.56-3.81 58.21 0.2 72.41 19.45 45.43 18 63.89-1.68 56.7 0.09 70.9 8.33 42.6 5.52 53-8.42 33.13-7.49 46.38 14 29.34 0 42.6-53.3 13.23-61.76 18.91-22.46 18-33.69 18-38.37-6.63-56.16 0-29.95 20.82-47.73 21.77-47.94-6.63-56.73 0-30.28 18.92-41.51 21.78-40.25 0.95-48.67 5.68-5.25 0.35-12.2 6.9c-8.91-20.8-17.75-31.51-24.3-51.39s-14-20.82-17.78-36 3.74-45.44-2.81-59.63-29-33.13-29.95-44.49 7.49-29.34 0-45.44-36.81-38.81-38.69-48.91 1.25-45.44-5.62-54.27-29.33-25.87-33.07-41.65-4.3-46.7-9.64-53.64-36.54-36-40.28-49.22-6.24-27.14 0-29 30.1 4.6 40.29 0.4z" fill="#fef553" /><path d="M437 849.88a21.42 21.42 0 0 1-4.66-0.53c-9.2-2-11.34-14.89-14.31-32.67-1.5-9-3.06-18.33-5.57-25.87a66.43 66.43 0 0 0-9.8-19.15c-3.3-4.76-6.71-9.68-8.88-18.4-1.94-7.75-1.36-18-0.75-28.8 0.65-11.64 1.4-24.83-1.8-31.69-2.69-5.75-8.71-12.91-14.53-19.82-8.51-10.11-16.55-19.66-17.25-28.06-0.4-4.79 0.51-10.09 1.46-15.71 1.6-9.36 3.4-20-0.93-29.19-3.51-7.46-13-17.35-21.39-26.07-11.25-11.72-18.21-19.23-19.44-25.8-0.76-4-0.82-10.72-0.9-18.47-0.11-11.42-0.3-30.54-3.82-35a117.34 117.34 0 0 0-9.1-9.4c-10.4-10.1-23.35-22.68-26.5-35.82-1.63-6.78-2.69-16-3.71-24.83-1.16-10.06-2.92-25.26-5.29-28.31-1.35-1.73-5-5.5-9.23-9.87-16.12-16.65-30.83-32.47-33.81-42.89-2.46-8.62-3.81-15.37-4.12-20.63-0.67-11.43 4-15.27 8-16.49 3.64-1.09 8.73-0.58 17.4 0.41 8.11 0.93 19.23 2.2 24.12 0.21a144.14 144.14 0 0 0 15.35-7.71c11.63-6.44 23.65-13.1 40.79-12.35 4.34 0.19 8.61 0.41 12.74 0.62 15.89 0.82 30.9 1.6 37-0.39 1.85-0.61 6-3.8 9.64-6.62 10.68-8.25 25.3-19.56 41.56-18l6.11 0.6c18.52 1.84 43.89 4.35 56.78-0.38 12.5-4.6 36.77-11.61 58.88-7 9.35 2 26.13-4.65 40.93-10.49 11.48-4.53 22.33-8.81 31.29-10.09 11.23-1.6 19.74-0.74 27.25 0 6.76 0.69 12.6 1.29 19.39 0 3.46-0.65 8.7-3.16 14.24-5.82 16.76-8 42.08-20.16 66.24-4.05 25 16.66 25.69 46.71 26.1 64.67 0.11 4.6 0.21 8.94 0.73 11 0.76 3 4.23 10.47 7.9 18.34 9.84 21.1 23.31 50 21.05 67-3 22.77-3.68 59.34 0 72.36 1.15 4 3.3 9.56 5.79 16 6.41 16.56 14.4 37.16 13.25 52-1.46 19-1.7 58.06 0.06 72 0.49 3.87 1.36 8.94 2.29 14.32 2.71 15.74 5.78 33.58 3.31 42.64-5.49 20.14-8.27 36.88-7.62 45.92 0.24 3.39 1.55 7.35 2.93 11.54 3.47 10.54 8.21 25-4.76 37.07-10.29 9.6-30.28 13-46.35 15.74-7.74 1.32-16.51 2.81-18.86 4.38-1.63 1.09-3.57 2.49-5.61 4-9.57 6.93-21.47 15.56-32.77 15.56a133.32 133.32 0 0 1-13.89-1.2c-12.94-1.52-30.66-3.59-42.71 0.84-6.84 2.52-13.06 6.33-19.08 10-9.73 6-19.79 12.13-32.44 12.8-7.43 0.39-16.59-0.52-25.45-1.4-11.26-1.12-26.68-2.66-30.59 0.26-9.71 7.24-32.78 20.28-45.42 23.45-5.52 1.38-14 1.75-22.95 2.15-9.52 0.42-22.56 1-26.44 3.15-2 1.14-3.91 2.36-5.71 3.55-4.76 3.16-9.66 6.39-16.14 6.39z m-1.72-11.78c3.75 0.69 6.3-0.86 11.5-4.28 1.89-1.24 4-2.65 6.46-4 6.27-3.48 18.56-4 31.56-4.6 8-0.35 16.25-0.72 20.64-1.82 10.71-2.68 32.44-14.88 41.3-21.49 7.52-5.61 22-4.17 38.68-2.51 8.43 0.84 17.14 1.7 23.69 1.36 9.7-0.51 17.71-5.42 27-11.1 6.49-4 13.21-8.1 21.13-11 14.65-5.4 34-3.13 48.08-1.48 5.15 0.6 9.59 1.12 12.54 1.12 7.53 0 18.18-7.72 26-13.35 2.14-1.55 4.16-3 6-4.23 4.2-2.8 11.26-4.11 23.36-6.17 13.77-2.34 32.63-5.56 40.37-12.78 7.18-6.7 5.3-13.84 1.65-25-1.54-4.68-3.13-9.53-3.48-14.35-1-14.1 4.58-37.26 8-49.81 1.79-6.57-1.3-24.51-3.55-37.61-0.95-5.51-1.84-10.71-2.37-14.83-1.87-14.8-1.65-54.43-0.12-74.34 0.94-12.19-6.83-32.25-12.5-46.89-2.59-6.7-4.83-12.48-6.13-17-4.68-16.38-3.2-56-0.38-77.09 1.81-13.59-11.35-41.83-20.07-60.52-4.42-9.48-7.61-16.32-8.64-20.44-0.84-3.36-0.94-7.87-1.08-13.59-0.38-16.71-1-42-20.93-55.27-18.66-12.44-38.69-2.85-54.78 4.86-6.53 3.13-12.16 5.83-17.12 6.76-8.44 1.58-15.37 0.88-22.71 0.13-7.18-0.73-14.61-1.49-24.43-0.09-7.61 1.09-17.84 5.12-28.67 9.4-17.12 6.75-34.82 13.74-47.58 11.05-19.26-4.05-41.15 2.33-52.48 6.49-15.39 5.66-41.2 3.1-61.93 1l-6.07-0.59c-11.68-1.1-24.21 8.57-33.36 15.64-5.23 4-9.37 7.24-13.12 8.47-8.13 2.67-22.72 1.91-41.2 1-4.09-0.21-8.33-0.43-12.64-0.62-13.88-0.6-23.5 4.73-34.66 10.91a153 153 0 0 1-16.59 8.31l-2.19-5.38 2.19 5.38c-7.64 3.12-19.43 1.77-29.83 0.58-4.28-0.49-10-1.15-12.23-0.91-0.46 1.34-1.28 6.47 3.41 22.88 2.43 8.5 21 27.69 31 38 4.83 5 8.31 8.59 10 10.82 4.16 5.34 5.62 16.44 7.66 34.11 1 8.53 2 17.36 3.47 23.45 2.37 9.86 14.46 21.61 23.3 30.19a122.25 122.25 0 0 1 10.14 10.55c5.53 7 6.1 21.88 6.3 42.08 0.07 6.9 0.13 13.42 0.7 16.44 0.66 3.49 9.76 13 16.4 19.89 9.44 9.83 19.19 20 23.52 29.17 5.89 12.51 3.66 25.58 1.87 36.08-0.83 4.87-1.61 9.47-1.34 12.79 0.39 4.72 8.25 14 14.56 21.55s12.84 15.25 16.17 22.39c4.44 9.51 3.64 23.62 2.88 37.26-0.53 9.48-1.08 19.28 0.43 25.33 1.67 6.66 4.09 10.17 7.17 14.61a78.28 78.28 0 0 1 11.27 22.09c2.8 8.4 4.5 18.62 6 27.63 1.35 8.36 3.43 20.82 5.76 23.37z"  /><path d="M292.26 354.94s-3.26 41.68 20.19 37.12 31.91-13.68 24.75-37.12-24.75-26-31.91-22.79-13.16 10.85-13.03 22.79z m409.29-58.29s5.21 18.56 15 22.79 27.35 3.26 28.33-10.09-1-36.47-16.93-39.07-29.01 6.19-26.4 26.37z m42 48.52s-5.77 15.3 1.51 23.12 16.07 9.77 20.63 7.49 7.81-24.42-2-30.61-17.53-3.26-20.14 0z m-7.65 281.65s2 27.35 21 31.26 32.72-17.09 31.75-26.86-3.42-30.28-21-35.65-33.21 6.34-31.75 31.25z m2.93 64.96s-13.38 14.65-3 28.33 24 10.26 29.4 6.35 5.81-21-3-28.82-20.04-10.64-23.4-5.86z m-300.7 69.85s5.54 35.17 32.24 30.28 20.19-40.38 16-48.84-16-25.07-35.17-17.58-14.27 30.99-13.07 36.14z m-18.23-76.2s8.79 21.49 22.47 17.26 11.4-21.82 6.84-30.28-11.4-15.3-22.14-11.4-9.13 16.61-7.17 24.42z" fill="#abbf27" /><path d="M275.81 594.59s2 34.68 22.47 36.14 31.75-24.42 30.28-40.54-11.23-38.58-28.81-35.19-26.48 25.26-23.94 39.59z m28.33 78.63s-4.88 17.34 7.08 21 18.56-11 19.29-14.9 2.44-19.29-8.3-20.51-15.63 8.55-18.07 14.41z m-76.03-159.38s-1.63 26.37 15.3 27.35 21.16-14 20.19-25.4-6.42-24.1-17.7-22.79-16.81 11.07-17.79 20.84zM196.2 416.8c-1 3.79-3.91 44.28 23.12 45.26s34.51-26 34.84-37.12-5.86-43.63-29.16-40.37-26.84 24.75-28.8 32.23z m155.32 321.06s-27.42 11.72-22.83 35.82 18.43 23.61 25.76 22.63 21.49-17.58 19-31.26-9.72-27.05-21.93-27.19z" fill="#939307" /><path d="M544.93 426.74a98.17 98.17 0 1 0 196.34 0 98.17 98.17 0 1 0-196.34 0z" fill="#ffffff" /><path d="M643.1 530.19a103.45 103.45 0 1 1 103.45-103.45A103.57 103.57 0 0 1 643.1 530.19z m0-196.34a92.89 92.89 0 1 0 92.9 92.89 93 93 0 0 0-92.9-92.9z"  /><path d="M601.42 425.6a32.81 32.81 0 1 0 65.62 0 32.81 32.81 0 1 0-65.62 0z" fill="#05adf2" /><path d="M634.23 460.35A34.76 34.76 0 1 1 669 425.6a34.8 34.8 0 0 1-34.77 34.75z m0-65.61a30.85 30.85 0 1 0 30.85 30.85 30.89 30.89 0 0 0-30.85-30.85z"  /><path d="M616.65 425.6a17.58 17.58 0 1 0 35.16 0 17.58 17.58 0 1 0-35.16 0z"  /><path d="M634.23 445.13a19.54 19.54 0 1 1 19.54-19.54 19.56 19.56 0 0 1-19.54 19.54z m0-35.17a15.63 15.63 0 1 0 15.63 15.63A15.65 15.65 0 0 0 634.23 410zM556.33 328.56l20.65 25.61m-24.444-22.5l7.606-6.133 20.65 25.612-7.605 6.132z m55.564-28.83l8.43 29.37m-13.128-27.996l9.391-2.694 8.426 29.365-9.391 2.695z m67.868-3.004l-6.19 27.35m-4.735-1.044l6.189-27.349 9.529 2.157-6.189 27.348z"  /><path d="M442.25 569.84c0.92 0.1 4.33 12.54 4.7 13.56q6.43 17.69 13.93 35c12.06 27.83 26.69 55.63 43.91 80.75 13.62 19.87 31.29 38 53.79 46.59 27.69 10.6 62.34 2.1 89.64-6.78 10.17-3.31 20.54-7.6 27.44-15.77 6.49-7.68 9.14-18.05 9-28.1-0.23-24.1-12.33-47.81-21.3-69.64-1.32-3.22-10.91-32.71-14.45-33.1z" fill="#ffffff" /><path d="M442.25 569.84c0.87 0.1 4.08 12.54 4.43 13.56q6.05 17.69 13.12 35c11.36 27.83 25.15 55.63 41.36 80.75 12.83 19.87 29.48 38 50.68 46.59 26.09 10.6 58.73 2.1 84.45-6.78 9.58-3.31 19.35-7.6 25.85-15.77 6.11-7.68 8.61-18.05 8.52-28.1-0.22-24.1-11.62-47.81-20.07-69.64-1.25-3.22-10.28-32.71-13.61-33.1z" fill="#8a1e04" /><path d="M587.94 755.54a86.67 86.67 0 0 1-31.12-5.28c-20.61-7.89-39.48-24.17-56.08-48.39-16.27-23.73-31.19-51.17-44.36-81.57a610.915 610.915 0 0 1-14-35.23c-0.13-0.35-0.28-0.88-0.72-2.35-0.59-2-2.3-7.83-3.11-9.71a4.88 4.88 0 0 1 4.24-8l206.68 22.47c4.59 0.5 7.37 4.76 17 32 0.65 1.85 1.26 3.59 1.47 4.09 1.44 3.5 2.93 7 4.51 10.67 8.34 19.47 17 39.6 17.16 60.78 0.12 12.26-3.5 23.38-10.2 31.3-7.82 9.25-19.38 13.92-29.66 17.27-18.52 5.99-40.5 11.95-61.81 11.95z m-138.24-180c0.4 1.31 0.82 2.77 1.3 4.39 0.26 0.89 0.46 1.56 0.54 1.82 4.17 11.47 8.81 23.14 13.8 34.64 12.92 29.82 27.54 56.72 43.45 79.93 15.46 22.56 32.79 37.63 51.51 44.79 26.58 10.17 60.12 1.68 86.38-6.87 9-2.92 19-6.9 25.22-14.28 5.18-6.14 8-15 7.89-24.91-0.18-19.23-8.41-38.44-16.37-57-1.52-3.56-3.1-7.24-4.57-10.8-0.29-0.7-0.76-2-1.65-4.56-5-14.21-8.48-22.83-10.34-25.71z m198.71 21.6zM441.72 574.7z m0 0z m0 0z"  /><path d="M671 730.37s-15.63-28.82-45.42-39.56-62 17.93-62 17.93l-60.08-7.18 33.7 53.73 111.8-3.95z" fill="#f89c84" /><path d="M537.16 759.67a4.4 4.4 0 0 1-3.72-2.06l-33.7-53.73a4.4 4.4 0 0 1 4.25-6.7l58.18 7c7.06-5.78 36.48-27.72 64.9-17.47 31 11.18 47.13 40.36 47.8 41.6a4.4 4.4 0 0 1-0.83 5.28l-22 21a4.39 4.39 0 0 1-2.88 1.21l-111.85 3.93zM512.07 707l27.47 43.79L647.18 747l18.21-17.38c-4.7-7.28-18.87-26.59-41.32-34.69-26.95-9.72-57.32 16.81-57.62 17.08a4.37 4.37 0 0 1-3.45 1.09z"  /><path d="M505.9 705.95s20.51-19 44.93-8.79 34.51 19.54 37.28 23.93" fill="#f89c84" /><path d="M588.12 725a3.91 3.91 0 0 1-3.31-1.83c-0.66-1-7.24-10.55-35.49-22.41-21.84-9.17-40.58 7.88-40.76 8.05a3.91 3.91 0 1 1-5.32-5.73c0.91-0.85 22.66-20.64 49.1-9.53 29.08 12.21 37.26 22.57 39.08 25.45a3.91 3.91 0 0 1-3.3 6z"  /><path d="M550.3 609.07s-0.24 22.88 2.2 31.67 5.86 20.76 5.86 20.76 29.79-2.93 34.68-4.15 19-5.37 19-5.37-3.91-21.25-4.4-27.35 0.12-19 0.12-19" fill="#ffffff" /><path d="M558.36 665.41a3.91 3.91 0 0 1-3.75-2.83c0-0.12-3.45-12.08-5.87-20.79-2.56-9.22-2.35-31.8-2.34-32.76a3.91 3.91 0 0 1 3.91-3.87 3.91 3.91 0 0 1 3.87 3.95c-0.07 6.21 0.18 23.81 2.06 30.58 1.65 6 3.78 13.44 5 17.59 11.79-1.19 27.78-3 30.87-3.73 3.3-0.82 11-3 15.52-4.35-1.14-6.34-3.44-19.51-3.82-24.27-0.5-6.28 0.08-18.95 0.11-19.48a3.91 3.91 0 1 1 7.81 0.37c0 0.13-0.59 12.71-0.12 18.49s4.31 26.75 4.34 27a3.91 3.91 0 0 1-2.74 4.46c-0.58 0.17-14.29 4.19-19.2 5.41s-32.16 3.95-35.24 4.25z"  /><path d="M628.84 602.12s1.08 20.07 3.28 25.44 6.84 21.73 8.3 22.22 25.15-1.47 32.48-4.15 17.09-7.81 19-11-9-25.89-10-30-3.57-15.6-3.57-15.6" fill="#ffffff" /><path d="M642 653.72a11 11 0 0 1-2.81-0.23c-2.6-0.87-3.47-3-7.68-15.76-1.16-3.53-2.26-6.86-3-8.69-2.33-5.69-3.38-23.25-3.56-26.71a3.91 3.91 0 1 1 7.8-0.42c0.41 7.5 1.58 20.7 3 24.17 0.85 2.08 2 5.55 3.2 9.21 1.06 3.22 2.7 8.21 3.72 10.65 5.78-0.19 23.24-1.9 28.9-4 7.74-2.84 14.81-7 16.7-8.93-0.34-3.25-4.54-13.37-6.62-18.38a82.19 82.19 0 0 1-3.5-9.16c-1-4.12-3.55-15.52-3.57-15.64a3.91 3.91 0 0 1 7.62-1.72c0 0.11 2.6 11.48 3.56 15.57 0.24 1 1.77 4.71 3.11 7.95 6.7 16.15 8.46 21.71 6.42 25-3.2 5.19-16.26 10.86-21 12.61-5.9 2.2-24.77 4.48-32.29 4.48z m-0.94-7.78z m47.21-12.41z"  /><path d="M441.39 566.59c36.44 22.71 78.4 41.93 121.92 42.42 62.36 0.69 136-16.22 178.29-65.21l-69.68-7.16" fill="#fef553" /><path d="M567 613.42h-3.75c-37.74-0.42-78.37-14.51-124.2-43.08a4.4 4.4 0 0 1 4.65-7.46c44.42 27.69 83.56 41.35 119.64 41.75 70.42 0.76 132.8-20.52 169.06-57.34L671.47 541a4.4 4.4 0 0 1 0.9-8.75l69.63 7.17a4.4 4.4 0 0 1 2.88 7.25c-20.16 23.36-48.28 41-83.58 52.54-28.53 9.31-61.08 14.21-94.3 14.21z"  /><path d="M603.54 524.26c30.33-9.54 59.38-23.44 84.55-43 16.79-13.05 29.47-30.78 49-40.25 4.56-2.21 9.77-4 14.63-2.51 6.83 2 10.43 9.57 11.68 16.59 6.15 34.63-21.55 60.53-49.28 75.63-29.93 16.3-73.4 31-107.32 21.54" fill="#fef553" /><path d="M630.08 559.64a91 91 0 0 1-24.47-3.15A4.4 4.4 0 1 1 608 548c40 11.15 89.73-13.39 104-21.17 20.32-11.06 53.45-35 47.05-71-0.47-2.62-2.46-11.32-8.6-13.15-2.88-0.86-6.52-0.15-11.46 2.25-11.72 5.69-20.83 14.49-30.47 23.81a221.89 221.89 0 0 1-17.75 16c-23.94 18.61-52.85 33.33-85.93 43.73a4.4 4.4 0 0 1-2.64-8.39c32.07-10.08 60.05-24.31 83.17-42.28a215.22 215.22 0 0 0 17-15.33c9.72-9.39 19.76-19.1 32.75-25.4 4.42-2.15 11.08-4.77 17.8-2.76 7.51 2.24 12.88 9.54 14.75 20 3 17.06-1.26 33.4-12.76 48.56-11.31 14.92-27.32 25.47-38.75 31.69-12.21 6.69-49.37 25.08-86.08 25.08z"  /><path d="M386.03 467.11a98.17 98.17 0 1 0 196.34 0 98.17 98.17 0 1 0-196.34 0z" fill="#ffffff" /><path d="M484.2 570.56a103.45 103.45 0 1 1 103.46-103.45A103.57 103.57 0 0 1 484.2 570.56z m0-196.34a92.89 92.89 0 1 0 92.89 92.89 93 93 0 0 0-92.89-92.89z"  /><path d="M456.36 459.38a32.81 32.81 0 1 0 65.62 0 32.81 32.81 0 1 0-65.62 0z" fill="#05adf2" /><path d="M489.17 494.14a34.76 34.76 0 1 1 34.76-34.76 34.8 34.8 0 0 1-34.76 34.76z m0-65.61A30.85 30.85 0 1 0 520 459.38a30.89 30.89 0 0 0-30.83-30.85z"  /><path d="M471.59 459.38a17.58 17.58 0 1 0 35.16 0 17.58 17.58 0 1 0-35.16 0z"  /><path d="M489.17 478.92a19.54 19.54 0 1 1 19.54-19.54 19.56 19.56 0 0 1-19.54 19.54z m0-35.17a15.63 15.63 0 1 0 15.63 15.63 15.65 15.65 0 0 0-15.63-15.63zM398.08 374.15l18.53 21.77m-22.18-19.797l7.426-6.35 18.583 21.728-7.425 6.35z m50.54-30.953l10.65 28m-15.218-26.249l9.132-3.472 10.645 27.994-9.132 3.473z m70.018-4.681l-6.84 26.7m-4.732-1.23l6.835-26.698 9.465 2.423-6.835 26.699z"  /><path d="M463.53 570.49c9.77-37.12-16.49-60.24-39.93-60.24s-37.12 24.1-39.72 50.8 39.72 31.26 39.72 31.26l12-31.91z" fill="#fef553" /><path d="M423.6 596.22h-0.42c-1.89-0.2-46.14-5.32-43.19-35.52 2.64-27 17.15-54.32 43.61-54.32 16.17 0 30.13 6.1 38.3 16.74 8.64 11.26 10.46 26.56 5.4 45.49a3.91 3.91 0 1 1-7.55-2c4.4-16.46 3-29.48-4.05-38.71-6.58-8.57-18.58-13.68-32.1-13.68-21.57 0-33.54 23.74-35.84 47.27-2.2 22.53 35.87 27 36.26 27a3.91 3.91 0 0 1-0.42 7.79z" fill="#c1672b" /><path d="M592.16 785.5a317 317 0 0 1-53.82-4.73 3.91 3.91 0 0 1 1.46-7.68c0.54 0.1 54.39 10.14 96 0 41.29-10 71.36-41.54 71.66-41.86a3.91 3.91 0 0 1 5.69 5.35c-1.28 1.36-31.91 33.53-75.51 44.1-14.74 3.63-30.73 4.82-45.48 4.82z" fill="#f37393" /></svg>