<?xml version="1.0" standalone="no"?><!DOCTYPE svg PUBLIC "-//W3C//DTD SVG 1.1//EN" "http://www.w3.org/Graphics/SVG/1.1/DTD/svg11.dtd"><svg class="icon" width="200px" height="177.47px" viewBox="0 0 1154 1024" version="1.1" xmlns="http://www.w3.org/2000/svg"><path d="M953.766175 0.678175H200.479439C90.996772 0.678175 2.245614 89.429333 2.245614 198.912v416.29193c0 109.478175 88.751158 198.229333 198.233825 198.229333h19.82428v190.02386c0 17.659509 21.351298 26.507228 33.841404 14.017123l204.036491-204.036492h495.589053c109.478175 0 198.229333-88.751158 198.229333-198.233824v-416.29193C1152 89.429333 1063.253333 0.678175 953.766175 0.678175z" fill="#FFEBBE" /><path d="M577.122807 635.028211m-39.648561 0a39.648561 39.648561 0 1 0 79.297122 0 39.648561 39.648561 0 1 0-79.297122 0Z" fill="#FF6464" /><path d="M617.50793 138.725053a29.493895 29.493895 0 0 0-21.512983-9.198035h-37.74428a29.493895 29.493895 0 0 0-21.512983 9.198035 29.547789 29.547789 0 0 0-8.196491 21.935158l15.633965 333.976701a32.857825 32.857825 0 0 0 32.871298 31.362246h0.157193a32.857825 32.857825 0 0 0 32.871298-31.362246l15.633965-333.976701a29.570246 29.570246 0 0 0-8.205473-21.935158z" fill="#FF6464" /></svg>