<svg width="850.39" height="850.39" xmlns="http://www.w3.org/2000/svg">

 <g>
  <title>background</title>
  <rect height="402" width="582" y="-1" x="-1" fill="none" id="canvas_background"/>
 </g>
 <g>
  <title>Layer 1</title>
  <g id="svg_1">
   <g id="svg_2">
    <g id="svg_3">
     <path d="m208.695496,120.314484c-26.638,0 -48.269989,-20.366997 -48.269989,-45.396004c0,-25.042 21.631989,-45.397999 48.269989,-45.397999c26.62001,0 48.274994,20.355999 48.274994,45.397999c0,25.029007 -21.656006,45.396004 -48.274994,45.396004zm0,-59.314003c-8.16098,0 -14.802994,6.238007 -14.802994,13.918007c0,7.689995 6.642014,13.928993 14.802994,13.928993c8.180023,0 14.817017,-6.237999 14.817017,-13.928993c-0.000015,-7.68 -6.637024,-13.918007 -14.817017,-13.918007z" fill="#ffffff" id="svg_4"/>
    </g>
    <g id="svg_5">
     <path d="m425.680481,179.638489c-26.605011,0 -48.251007,-20.354996 -48.251007,-45.382996c0,-25.028999 21.645996,-45.408005 48.251007,-45.408005c26.64801,0 48.294006,20.378998 48.294006,45.408005c0,25.028 -21.645996,45.382996 -48.294006,45.382996zm0,-59.324005c-8.143005,0 -14.791992,6.260002 -14.791992,13.940994c0,7.693008 6.649994,13.928009 14.791992,13.928009c8.174988,0 14.817993,-6.235001 14.817993,-13.928009c0,-7.680992 -6.643982,-13.940994 -14.817993,-13.940994z" fill="#ffffff" id="svg_6"/>
    </g>
    <g id="svg_7">
     <path d="m640.353516,117.59449c-26.61499,0 -48.286011,-20.344002 -48.286011,-45.387001c0,-25.041004 21.671021,-45.383003 48.286011,-45.383003c26.612,0 48.296997,20.343002 48.296997,45.383003c-0.000977,25.042 -21.684998,45.387001 -48.296997,45.387001zm0,-59.328007c-8.166992,0 -14.817993,6.250004 -14.817993,13.940006c0,7.694 6.651001,13.917999 14.817993,13.917999c8.203003,0 14.830017,-6.223999 14.830017,-13.917999c0,-7.690002 -6.627014,-13.940006 -14.830017,-13.940006z" fill="#ffffff" id="svg_8"/>
    </g>
    <g id="svg_9">
     <rect height="472.496" width="45.962" y="163.922" x="402.711" fill="#ffffff" id="svg_10"/>
    </g>
    <g id="svg_11">
     <polygon points="422.523,254.515 447.966,279.733 499.596,233.663 474.141,208.432" fill="#ffffff" id="svg_12"/>
    </g>
    <g id="svg_13">
     <polygon points="542.202,285.438 427.547,386.326 402.711,361.391 517.359,260.514" fill="#ffffff" id="svg_14"/>
    </g>
    <g id="svg_15">
     <polygon points="306.167,278.999 414.012,386.326 440.402,362.893 332.543,255.555" fill="#ffffff" id="svg_16"/>
    </g>
    <g id="svg_17">
     <rect height="284.462" width="45.952" y="101.864" x="186.639" fill="#ffffff" id="svg_18"/>
    </g>
    <g id="svg_19">
     <rect height="205.797" width="44.429" y="444.751" x="274.65" fill="#ffffff" id="svg_20"/>
    </g>
    <g id="svg_21">
     <polygon points="320.664,444.891 289.227,476.443 186.639,386.182 218.038,354.622" fill="#ffffff" id="svg_22"/>
    </g>
    <g id="svg_23">
     <polygon points="212.246,169.178 186.768,194.396 135.173,148.29 160.617,123.083" fill="#ffffff" id="svg_24"/>
    </g>
    <g id="svg_25">
     <polygon points="206.297,169.178 231.764,194.396 283.408,148.29 257.93,123.083" fill="#ffffff" id="svg_26"/>
    </g>
    <g id="svg_27">
     <polygon points="284.723,429.116 310.176,454.337 361.823,408.254 336.341,383.036" fill="#ffffff" id="svg_28"/>
    </g>
    <g id="svg_29">
     <polygon points="344.082,197.901 213.846,312.526 189.019,287.578 319.279,172.941" fill="#ffffff" id="svg_30"/>
    </g>
    <g id="svg_31">
     <polygon points="77.5285,197.901 207.788,312.526 232.591,287.578 102.341,172.941" fill="#ffffff" id="svg_32"/>
    </g>
    <g id="svg_33">
     <rect height="284.462" width="45.984" y="101.864" x="617.776" fill="#ffffff" id="svg_34"/>
    </g>
    <g id="svg_35">
     <rect height="205.797" width="45.479" y="444.751" x="530.247" fill="#ffffff" id="svg_36"/>
    </g>
    <g id="svg_37">
     <polygon points="529.741,444.891 561.159,476.443 663.76,386.182 632.354,354.622" fill="#ffffff" id="svg_38"/>
    </g>
    <g id="svg_39">
     <polygon points="638.141,169.178 663.608,194.396 715.203,148.29 689.75,123.083" fill="#ffffff" id="svg_40"/>
    </g>
    <g id="svg_41">
     <polygon points="644.078,169.178 618.602,194.396 567.007,148.29 592.46,123.083" fill="#ffffff" id="svg_42"/>
    </g>
    <g id="svg_43">
     <polygon points="565.677,429.116 540.187,454.337 488.591,408.254 514.06,383.036" fill="#ffffff" id="svg_44"/>
    </g>
    <g id="svg_45">
     <polygon points="363.501,682.099 338.033,707.329 274.649,650.716 300.141,625.471" fill="#ffffff" id="svg_46"/>
    </g>
    <g id="svg_47">
     <polygon points="402.97,631.227 429.728,655.237 358.387,725.581 331.62,701.565" fill="#ffffff" id="svg_48"/>
    </g>
    <g id="svg_49">
     <polygon points="486.874,681.745 512.328,706.974 575.727,650.385 550.273,625.151" fill="#ffffff" id="svg_50"/>
    </g>
    <g id="svg_51">
     <polygon points="448.257,631.839 421.467,655.78 491.986,725.212 518.757,701.234" fill="#ffffff" id="svg_52"/>
    </g>
    <g id="svg_53">
     <polygon points="506.293,197.901 636.544,312.526 661.372,287.578 531.135,172.941" fill="#ffffff" id="svg_54"/>
    </g>
    <g id="svg_55">
     <polygon points="772.862,197.901 642.603,312.526 617.776,287.578 748.034,172.941" fill="#ffffff" id="svg_56"/>
    </g>
    <g id="svg_57">
     <polygon points="448.19,632.346 425.28,657.531 402.304,632.346" fill="#ffffff" id="svg_58"/>
    </g>
    <g id="svg_59">
     <g id="svg_60">
      <polygon points="450.628,730.49 424.944,754.668 399.253,730.49 424.944,706.362" fill="#ffffff" id="svg_61"/>
     </g>
     <g id="svg_62">
      <g id="svg_63">
       <polygon points="361.121,780.076 335.667,805.282 219.37,701.453 244.839,676.253" fill="#ffffff" id="svg_64"/>
      </g>
      <g id="svg_65">
       <polygon points="400.567,729.212 427.339,753.214 355.999,823.565 329.241,799.565" fill="#ffffff" id="svg_66"/>
      </g>
      <g id="svg_67">
       <polygon points="489.728,778.63 514.081,804.966 628.378,697.956 604.022,671.638" fill="#ffffff" id="svg_68"/>
      </g>
      <g id="svg_69">
       <polygon points="449.04,728.94 422.33,753.036 493.868,823.143 520.557,799.079" fill="#ffffff" id="svg_70"/>
      </g>
      <g id="svg_71">
       <polygon points="604.744,671.542 701.434,741.188 587.443,700.917" fill="#ffffff" id="svg_72"/>
      </g>
      <g id="svg_73">
       <polygon points="244.862,676.253 148.203,745.872 262.202,705.628" fill="#ffffff" id="svg_74"/>
      </g>
     </g>
    </g>
   </g>
  </g>
 </g>
</svg>